<?xml version="1.0" encoding="UTF-8" standalone="no"?>
<!-- Created with Inkscape (http://www.inkscape.org/) -->

<svg
   xmlns:dc="http://purl.org/dc/elements/1.1/"
   xmlns:cc="http://creativecommons.org/ns#"
   xmlns:rdf="http://www.w3.org/1999/02/22-rdf-syntax-ns#"
   xmlns:svg="http://www.w3.org/2000/svg"
   xmlns="http://www.w3.org/2000/svg"
   xmlns:sodipodi="http://sodipodi.sourceforge.net/DTD/sodipodi-0.dtd"
   xmlns:inkscape="http://www.inkscape.org/namespaces/inkscape"
   width="1600"
   height="900"
   viewBox="0 0 423.33332 238.12505"
   version="1.1"
   id="svg311"
   inkscape:version="0.92.4 (5da689c313, 2019-01-14)"
   sodipodi:docname="lernOS-Sprint.svg"
   inkscape:export-filename="C:\Users\Simon Dückert\OneDrive - Cogneon GmbH\Dokumente\GitHub\lernos-for-you\de\images\lernOS-Sprint.png"
   inkscape:export-xdpi="96"
   inkscape:export-ydpi="96">
  <defs
     id="defs305">
    <marker
       inkscape:stockid="Arrow2Lstart"
       orient="auto"
       refY="0.0"
       refX="0.0"
       id="Arrow2Lstart"
       style="overflow:visible"
       inkscape:isstock="true">
      <path
         id="path1274"
         style="fill-rule:evenodd;stroke-width:0.625;stroke-linejoin:round;stroke:#000000;stroke-opacity:1;fill:#000000;fill-opacity:1"
         d="M 8.7185878,4.0337352 L -2.2072895,0.016013256 L 8.7185884,-4.0017078 C 6.9730900,-1.6296469 6.9831476,1.6157441 8.7185878,4.0337352 z "
         transform="scale(1.1) translate(1,0)" />
    </marker>
    <marker
       inkscape:stockid="Arrow1Lend"
       orient="auto"
       refY="0.0"
       refX="0.0"
       id="marker1615"
       style="overflow:visible;"
       inkscape:isstock="true">
      <path
         id="path1613"
         d="M 0.0,0.0 L 5.0,-5.0 L -12.5,0.0 L 5.0,5.0 L 0.0,0.0 z "
         style="fill-rule:evenodd;stroke:#000000;stroke-width:1pt;stroke-opacity:1;fill:#000000;fill-opacity:1"
         transform="scale(0.8) rotate(180) translate(12.5,0)" />
    </marker>
    <marker
       inkscape:stockid="Arrow1Lend"
       orient="auto"
       refY="0.0"
       refX="0.0"
       id="Arrow1Lend"
       style="overflow:visible;"
       inkscape:isstock="true">
      <path
         id="path1259"
         d="M 0.0,0.0 L 5.0,-5.0 L -12.5,0.0 L 5.0,5.0 L 0.0,0.0 z "
         style="fill-rule:evenodd;stroke:#000000;stroke-width:1pt;stroke-opacity:1;fill:#000000;fill-opacity:1"
         transform="scale(0.8) rotate(180) translate(12.5,0)" />
    </marker>
  </defs>
  <sodipodi:namedview
     id="base"
     pagecolor="#ffffff"
     bordercolor="#666666"
     borderopacity="1.0"
     inkscape:pageopacity="1"
     inkscape:pageshadow="2"
     inkscape:zoom="0.65125"
     inkscape:cx="114.41388"
     inkscape:cy="334.227"
     inkscape:document-units="mm"
     inkscape:current-layer="g966"
     showgrid="false"
     inkscape:window-width="2560"
     inkscape:window-height="1373"
     inkscape:window-x="-9"
     inkscape:window-y="-9"
     inkscape:window-maximized="1"
     units="px" />
  <metadata
     id="metadata308">
    <rdf:RDF>
      <cc:Work
         rdf:about="">
        <dc:format>image/svg+xml</dc:format>
        <dc:type
           rdf:resource="http://purl.org/dc/dcmitype/StillImage" />
        <dc:title />
      </cc:Work>
    </rdf:RDF>
  </metadata>
  <g
     inkscape:label="Ebene 1"
     inkscape:groupmode="layer"
     id="layer1"
     transform="translate(0,-58.874969)">
    <path
       style="fill:#ff6600;fill-opacity:1;stroke:#000000;stroke-width:0.54267287px;stroke-linecap:butt;stroke-linejoin:miter;stroke-opacity:1"
       d="m 294.07127,202.43809 20.74641,20.46217 -20.35611,20.07721 h 84.05954 v -40.48002 z"
       id="path1579"
       inkscape:connector-curvature="0" />
    <g
       id="g1796"
       transform="translate(-52.999082,2e-5)">
      <path
         style="fill:#ff6600;fill-opacity:1;stroke:#000000;stroke-width:0.53900617px;stroke-linecap:butt;stroke-linejoin:miter;stroke-opacity:1"
         d="m 100.1514,202.43544 h 62.30984 l 20.4646,20.4646 -20.07959,20.07959 H 99.705503 Z"
         id="path1385"
         inkscape:connector-curvature="0" />
      <text
         id="text854-4-5"
         y="221.70657"
         x="106.91977"
         style="font-style:normal;font-weight:normal;font-size:13.34327126px;line-height:1.25;font-family:sans-serif;letter-spacing:0px;word-spacing:0px;fill:#ffffff;fill-opacity:1;stroke:none;stroke-width:0.33358172"
         xml:space="preserve"><tspan
           style="font-style:normal;font-variant:normal;font-weight:bold;font-stretch:normal;font-size:13.34327126px;font-family:'Open Sans';-inkscape-font-specification:'Open Sans, Bold';font-variant-ligatures:normal;font-variant-caps:normal;font-variant-numeric:normal;font-feature-settings:normal;text-align:start;writing-mode:lr-tb;text-anchor:start;fill:#ffffff;stroke-width:0.33358172"
           y="221.70657"
           x="106.91977"
           id="tspan852-1-3"
           sodipodi:role="line">Woche 0</tspan></text>
      <text
         id="text854-5-6-1"
         y="231.94382"
         x="108.62478"
         style="font-style:normal;font-weight:normal;font-size:7.9195075px;line-height:1.25;font-family:sans-serif;letter-spacing:0px;word-spacing:0px;fill:#ffffff;fill-opacity:1;stroke:none;stroke-width:0.19798766"
         xml:space="preserve"><tspan
           style="font-style:normal;font-variant:normal;font-weight:normal;font-stretch:normal;font-size:7.91966486px;font-family:'Open Sans';-inkscape-font-specification:'Open Sans, Normal';font-variant-ligatures:normal;font-variant-caps:normal;font-variant-numeric:normal;font-feature-settings:normal;text-align:start;writing-mode:lr-tb;text-anchor:start;fill:#ffffff;stroke-width:0.19798766"
           y="231.94382"
           x="108.62478"
           id="tspan852-5-7-2"
           sodipodi:role="line">Planung, Ziele</tspan></text>
    </g>
    <path
       style="fill:#ff6600;fill-opacity:1;stroke:#000000;stroke-width:0.53900617px;stroke-linecap:butt;stroke-linejoin:miter;stroke-opacity:1"
       d="m 133.43561,202.43546 h 11.2736 l 20.4646,20.4646 -20.07957,20.07958 h -11.27362 l 20.07959,-20.07958 z"
       id="path1488"
       inkscape:connector-curvature="0" />
    <path
       style="fill:#ff6600;fill-opacity:1;stroke:#000000;stroke-width:0.53900617px;stroke-linecap:butt;stroke-linejoin:miter;stroke-opacity:1"
       d="m 149.35901,202.43546 h 11.27364 l 20.4646,20.4646 -20.07961,20.07958 h -11.2736 l 20.07959,-20.07958 z"
       id="path1488-4"
       inkscape:connector-curvature="0" />
    <path
       style="fill:#ff6600;fill-opacity:1;stroke:#000000;stroke-width:0.53900617px;stroke-linecap:butt;stroke-linejoin:miter;stroke-opacity:1"
       d="m 165.28247,202.43546 h 11.27364 l 20.4646,20.4646 -20.07959,20.07958 H 165.6675 l 20.07959,-20.07958 z"
       id="path1488-4-9"
       inkscape:connector-curvature="0" />
    <path
       style="fill:#ff6600;fill-opacity:1;stroke:#000000;stroke-width:0.53900617px;stroke-linecap:butt;stroke-linejoin:miter;stroke-opacity:1"
       d="m 181.20593,202.43546 h 11.27362 l 20.46461,20.4646 -20.0796,20.07958 h -11.27362 l 20.0796,-20.07958 z"
       id="path1488-4-3"
       inkscape:connector-curvature="0" />
    <path
       style="fill:#ff6600;fill-opacity:1;stroke:#000000;stroke-width:0.53900617px;stroke-linecap:butt;stroke-linejoin:miter;stroke-opacity:1"
       d="m 197.12936,202.43546 h 11.27362 l 20.4646,20.4646 -20.07959,20.07958 h -11.27362 l 20.07959,-20.07958 z"
       id="path1488-4-4"
       inkscape:connector-curvature="0" />
    <path
       style="fill:#ff6600;fill-opacity:1;stroke:#000000;stroke-width:0.53900617px;stroke-linecap:butt;stroke-linejoin:miter;stroke-opacity:1"
       d="m 213.05279,202.43546 h 11.27362 l 20.46461,20.4646 -20.0796,20.07958 H 213.4378 l 20.0796,-20.07958 z"
       id="path1488-4-2"
       inkscape:connector-curvature="0" />
    <path
       style="fill:#ff6600;fill-opacity:1;stroke:#000000;stroke-width:0.53900617px;stroke-linecap:butt;stroke-linejoin:miter;stroke-opacity:1"
       d="m 228.97628,202.43546 h 11.27362 l 20.4646,20.4646 -20.07959,20.07958 h -11.27362 l 20.07959,-20.07958 z"
       id="path1488-4-5"
       inkscape:connector-curvature="0" />
    <path
       style="fill:#ff6600;fill-opacity:1;stroke:#000000;stroke-width:0.53900617px;stroke-linecap:butt;stroke-linejoin:miter;stroke-opacity:1"
       d="m 244.89966,202.43546 h 11.27362 l 20.4646,20.4646 -20.07959,20.07958 h -11.27362 l 20.07959,-20.07958 z"
       id="path1488-4-0"
       inkscape:connector-curvature="0" />
    <path
       style="fill:#ff6600;fill-opacity:1;stroke:#000000;stroke-width:0.53900617px;stroke-linecap:butt;stroke-linejoin:miter;stroke-opacity:1"
       d="m 260.82315,202.43546 h 11.27362 l 20.46461,20.4646 -20.0796,20.07958 h -11.27362 l 20.07958,-20.07958 z"
       id="path1488-4-91"
       inkscape:connector-curvature="0" />
    <path
       style="fill:#ff6600;fill-opacity:1;stroke:#000000;stroke-width:0.53900617px;stroke-linecap:butt;stroke-linejoin:miter;stroke-opacity:1"
       d="m 276.74658,202.43546 h 11.27361 l 20.46461,20.4646 -20.07959,20.07958 h -11.27362 l 20.07961,-20.07958 z"
       id="path1488-4-1"
       inkscape:connector-curvature="0" />
    <text
       xml:space="preserve"
       style="font-style:normal;font-weight:normal;font-size:13.34326935px;line-height:1.25;font-family:sans-serif;letter-spacing:0px;word-spacing:0px;fill:#ffffff;fill-opacity:1;stroke:none;stroke-width:0.33358169"
       x="313.66907"
       y="221.70648"
       id="text854-4-55"><tspan
         sodipodi:role="line"
         id="tspan852-1-2"
         x="313.66907"
         y="221.70648"
         style="font-style:normal;font-variant:normal;font-weight:bold;font-stretch:normal;font-size:13.34326935px;font-family:'Open Sans';-inkscape-font-specification:'Open Sans, Bold';font-variant-ligatures:normal;font-variant-caps:normal;font-variant-numeric:normal;font-feature-settings:normal;text-align:start;writing-mode:lr-tb;text-anchor:start;fill:#ffffff;stroke-width:0.33358169">Woche 12</tspan></text>
    <text
       xml:space="preserve"
       style="font-style:normal;font-weight:normal;font-size:7.91950655px;line-height:1.25;font-family:sans-serif;letter-spacing:0px;word-spacing:0px;fill:#ffffff;fill-opacity:1;stroke:none;stroke-width:0.19798765"
       x="319.66135"
       y="231.94371"
       id="text854-5-6-3"><tspan
         sodipodi:role="line"
         id="tspan852-5-7-4"
         x="319.66135"
         y="231.94371"
         style="font-style:normal;font-variant:normal;font-weight:normal;font-stretch:normal;font-size:7.91966391px;font-family:'Open Sans';-inkscape-font-specification:'Open Sans, Normal';font-variant-ligatures:normal;font-variant-caps:normal;font-variant-numeric:normal;font-feature-settings:normal;text-align:start;writing-mode:lr-tb;text-anchor:start;fill:#ffffff;stroke-width:0.19798765">Retrospektive</tspan></text>
    <g
       id="layer2"
       inkscape:label="Layer"
       transform="matrix(0.36842994,0,0,0.36842994,-58.948556,-85.350361)" />
    <text
       xml:space="preserve"
       style="font-style:normal;font-weight:normal;font-size:8.99444866px;line-height:1.25;font-family:sans-serif;letter-spacing:0px;word-spacing:0px;fill:#000000;fill-opacity:1;stroke:none;stroke-width:0.2248612"
       x="148.0585"
       y="168.47186"
       id="text854-5-7"><tspan
         sodipodi:role="line"
         id="tspan852-5-1"
         x="148.0585"
         y="168.47186"
         style="font-style:normal;font-variant:normal;font-weight:normal;font-stretch:normal;font-size:8.99462795px;font-family:'Open Sans';-inkscape-font-specification:'Open Sans, Normal';font-variant-ligatures:normal;font-variant-caps:normal;font-variant-numeric:normal;font-feature-settings:normal;text-align:start;writing-mode:lr-tb;text-anchor:start;fill:#000000;stroke-width:0.2248612">Boxen-</tspan><tspan
         sodipodi:role="line"
         x="148.0585"
         y="179.95137"
         style="font-style:normal;font-variant:normal;font-weight:normal;font-stretch:normal;font-size:8.99462795px;font-family:'Open Sans';-inkscape-font-specification:'Open Sans, Normal';font-variant-ligatures:normal;font-variant-caps:normal;font-variant-numeric:normal;font-feature-settings:normal;text-align:start;writing-mode:lr-tb;text-anchor:start;fill:#000000;stroke-width:0.2248612"
         id="tspan1248">stopp 1</tspan></text>
    <text
       xml:space="preserve"
       style="font-style:normal;font-weight:normal;font-size:8.99444866px;line-height:1.25;font-family:sans-serif;letter-spacing:0px;word-spacing:0px;fill:#000000;fill-opacity:1;stroke:none;stroke-width:0.2248612"
       x="211.0697"
       y="168.47186"
       id="text854-5-7-3"><tspan
         sodipodi:role="line"
         id="tspan852-5-1-0"
         x="211.0697"
         y="168.47186"
         style="font-style:normal;font-variant:normal;font-weight:normal;font-stretch:normal;font-size:8.99462795px;font-family:'Open Sans';-inkscape-font-specification:'Open Sans, Normal';font-variant-ligatures:normal;font-variant-caps:normal;font-variant-numeric:normal;font-feature-settings:normal;text-align:start;writing-mode:lr-tb;text-anchor:start;fill:#000000;stroke-width:0.2248612">Boxen-</tspan><tspan
         sodipodi:role="line"
         x="211.0697"
         y="179.95137"
         style="font-style:normal;font-variant:normal;font-weight:normal;font-stretch:normal;font-size:8.99462795px;font-family:'Open Sans';-inkscape-font-specification:'Open Sans, Normal';font-variant-ligatures:normal;font-variant-caps:normal;font-variant-numeric:normal;font-feature-settings:normal;text-align:start;writing-mode:lr-tb;text-anchor:start;fill:#000000;stroke-width:0.2248612"
         id="tspan1250">stopp 2</tspan></text>
    <text
       xml:space="preserve"
       style="font-style:normal;font-weight:normal;font-size:8.99444866px;line-height:1.25;font-family:sans-serif;letter-spacing:0px;word-spacing:0px;fill:#000000;fill-opacity:1;stroke:none;stroke-width:0.2248612"
       x="136.87935"
       y="252.60747"
       id="text854-5-7-3-8"><tspan
         sodipodi:role="line"
         id="tspan852-5-1-0-2"
         x="136.87935"
         y="252.60747"
         style="font-style:normal;font-variant:normal;font-weight:normal;font-stretch:normal;font-size:8.99462795px;font-family:'Open Sans';-inkscape-font-specification:'Open Sans, Normal';font-variant-ligatures:normal;font-variant-caps:normal;font-variant-numeric:normal;font-feature-settings:normal;text-align:start;writing-mode:lr-tb;text-anchor:start;fill:#000000;stroke-width:0.2248612">2</tspan></text>
    <g
       id="g2341">
      <g
         transform="matrix(2.0371888,0,0,2.0371888,296.81696,-153.59125)"
         id="g966"
         style="fill:#000000">
        <text
           xml:space="preserve"
           style="font-style:normal;font-weight:normal;font-size:4.41512775px;line-height:1.25;font-family:sans-serif;letter-spacing:0px;word-spacing:0px;fill:#000000;fill-opacity:1;stroke:none;stroke-width:0.11037818"
           x="-57.401447"
           y="125.77675"
           id="text854-5"><tspan
             sodipodi:role="line"
             id="tspan852-5"
             x="-57.401447"
             y="125.77675"
             style="font-style:normal;font-variant:normal;font-weight:normal;font-stretch:normal;font-size:4.41521549px;font-family:'Open Sans';-inkscape-font-specification:'Open Sans, Normal';font-variant-ligatures:normal;font-variant-caps:normal;font-variant-numeric:normal;font-feature-settings:normal;text-align:start;writing-mode:lr-tb;text-anchor:start;fill:#000000;stroke-width:0.11037818"><tspan
   style="font-style:normal;font-variant:normal;font-weight:bold;font-stretch:normal;font-size:4.41528797px;font-family:'Open Sans';-inkscape-font-specification:'Open Sans, Bold';font-variant-ligatures:normal;font-variant-caps:normal;font-variant-numeric:normal;font-feature-settings:normal;text-align:start;writing-mode:lr-tb;text-anchor:start"
   id="tspan953">lernOS Circle:</tspan> 4-5 Personen, persönliche Ziele</tspan></text>
        <text
           xml:space="preserve"
           style="font-style:normal;font-weight:normal;font-size:4.41512775px;line-height:1.25;font-family:sans-serif;letter-spacing:0px;word-spacing:0px;fill:#000000;fill-opacity:1;stroke:none;stroke-width:0.11037818"
           x="-57.401447"
           y="132.37746"
           id="text854-5-5"><tspan
             sodipodi:role="line"
             id="tspan852-5-9"
             x="-57.401447"
             y="132.37746"
             style="font-style:normal;font-variant:normal;font-weight:normal;font-stretch:normal;font-size:4.41521549px;font-family:'Open Sans';-inkscape-font-specification:'Open Sans, Normal';font-variant-ligatures:normal;font-variant-caps:normal;font-variant-numeric:normal;font-feature-settings:normal;text-align:start;writing-mode:lr-tb;text-anchor:start;fill:#000000;stroke-width:0.11037818"><tspan
   style="font-style:normal;font-variant:normal;font-weight:bold;font-stretch:normal;font-size:4.41528797px;font-family:'Open Sans';-inkscape-font-specification:'Open Sans, Bold';font-variant-ligatures:normal;font-variant-caps:normal;font-variant-numeric:normal;font-feature-settings:normal;text-align:start;writing-mode:lr-tb;text-anchor:start"
   id="tspan951">lernOS Tandem:</tspan> 2 Personen, persönliche Ziele</tspan></text>
        <text
           xml:space="preserve"
           style="font-style:normal;font-weight:normal;font-size:4.41512775px;line-height:1.25;font-family:sans-serif;letter-spacing:0px;word-spacing:0px;fill:#000000;fill-opacity:1;stroke:none;stroke-width:0.11037818"
           x="-57.401447"
           y="138.97816"
           id="text854-5-5-3"><tspan
             sodipodi:role="line"
             id="tspan852-5-9-9"
             x="-57.401447"
             y="138.97816"
             style="font-style:normal;font-variant:normal;font-weight:normal;font-stretch:normal;font-size:4.41521549px;font-family:'Open Sans';-inkscape-font-specification:'Open Sans, Normal';font-variant-ligatures:normal;font-variant-caps:normal;font-variant-numeric:normal;font-feature-settings:normal;text-align:start;writing-mode:lr-tb;text-anchor:start;fill:#000000;stroke-width:0.11037818"><tspan
   style="font-style:normal;font-variant:normal;font-weight:bold;font-stretch:normal;font-size:4.41528797px;font-family:'Open Sans';-inkscape-font-specification:'Open Sans, Bold';font-variant-ligatures:normal;font-variant-caps:normal;font-variant-numeric:normal;font-feature-settings:normal;text-align:start;writing-mode:lr-tb;text-anchor:start"
   id="tspan955">lernOS Solist:</tspan> 1 Person, persönliches Ziele</tspan></text>
      </g>
      <g
         style="fill:#333333;fill-opacity:1;stroke:none"
         transform="matrix(0.02225638,0,0,-0.02225638,-347.2662,419.64732)"
         id="g1643">
        <path
           style="fill:#333333;fill-opacity:1;stroke-width:0.12835068"
           inkscape:connector-curvature="0"
           d="m 20762.126,15422.943 c -22.205,-2.824 -43.896,-11.809 -86.637,-36.067 -22.462,-12.707 -26.954,-16.814 -30.034,-27.98 -3.209,-11.937 -5.134,-14.889 -12.45,-19.766 -8.086,-5.391 -10.654,-10.268 -12.45,-23.745 -1.027,-7.958 -0.514,-36.965 0.641,-41.201 0.77,-2.823 2.183,-20.536 2.568,-32.216 0.513,-20.279 -3.594,-33.371 -13.991,-44.537 -3.208,-3.466 -6.674,-8.343 -7.829,-10.91 -2.824,-6.931 -2.438,-20.793 1.283,-39.276 8.6,-42.484 12.451,-51.083 29.906,-68.154 11.808,-11.423 12.835,-12.963 17.199,-23.745 2.567,-6.289 6.803,-16.685 9.498,-23.103 3.465,-8.471 4.878,-13.99 5.391,-20.921 l 0.642,-9.241 -6.29,-6.161 c -3.465,-3.337 -8.984,-8.214 -12.321,-10.91 -4.877,-3.85 -7.701,-7.958 -14.632,-21.434 -15.145,-29.393 -18.355,-31.96 -64.304,-49.287 -17.969,-6.803 -60.709,-33.371 -94.723,-58.913 -28.75,-21.691 -44.281,-30.419 -95.364,-54.164 -39.147,-18.097 -42.997,-22.59 -43.383,-49.415 -0.128,-8.471 0.514,-18.611 1.541,-23.745 2.952,-14.375 3.208,-45.821 0.641,-68.026 -1.283,-10.524 -2.439,-28.237 -2.567,-39.275 -0.257,-26.697 -1.925,-31.959 -9.498,-31.959 -8.471,0 -20.407,18.867 -38.12,59.683 -14.503,33.884 -25.927,52.495 -41.585,68.154 -12.451,12.322 -23.103,18.996 -43.512,26.954 -26.953,10.524 -30.804,15.402 -32.857,42.227 -2.182,26.569 -2.695,39.917 -3.209,80.861 -0.898,55.319 1.797,70.593 17.712,103.451 13.349,27.467 18.611,47.104 19.253,71.876 1.284,52.367 -21.563,102.295 -64.175,139.902 -55.833,49.415 -128.993,62.507 -184.055,32.986 -52.88,-28.237 -93.953,-89.332 -127.067,-188.29 -23.488,-70.208 -28.366,-127.452 -15.274,-175.969 1.412,-5.262 5.39,-15.787 8.856,-23.231 7.316,-15.788 9.626,-24.387 7.701,-28.109 -1.796,-3.466 -8.471,-6.675 -23.745,-11.295 -11.294,-3.466 -13.605,-4.749 -18.61,-9.883 -8.086,-8.343 -13.477,-10.782 -30.42,-13.605 -8.086,-1.412 -19.509,-3.722 -25.285,-5.006 -5.647,-1.412 -21.819,-4.236 -35.81,-6.418 -60.709,-9.497 -85.481,-24.129 -95.236,-56.474 -1.155,-4.107 -2.567,-15.274 -3.08,-26.953 -0.77,-12.964 -1.926,-22.077 -3.337,-26.312 -6.29,-18.098 -18.354,-35.938 -39.404,-58.015 -13.477,-14.118 -14.503,-15.787 -22.975,-36.708 -4.877,-12.193 -10.91,-20.408 -27.724,-38.12 -17.07,-18.098 -24.771,-28.109 -45.05,-58.015 -26.441,-39.018 -30.035,-42.227 -35.554,-31.189 -2.31,4.621 -2.567,7.573 -2.438,30.804 0,21.178 0.641,28.622 3.08,42.356 4.364,24.001 4.492,57.116 0.257,71.876 -6.289,21.82 -20.665,42.228 -40.174,56.988 -6.161,4.749 -21.434,14.504 -34.013,21.82 -25.157,14.632 -44.794,28.493 -49.158,34.526 -5.391,7.701 -5.647,10.525 -2.182,20.793 1.797,5.262 4.236,14.632 5.391,21.049 2.567,15.274 4.492,19.253 17.455,36.709 30.933,41.585 37.35,59.939 36.323,102.68 -0.385,13.092 -0.898,25.542 -1.155,27.595 -0.256,2.182 -0.898,8.472 -1.412,14.119 -2.566,32.473 -9.626,84.198 -13.605,100.114 -17.07,67.127 -76.368,135.024 -135.923,155.561 -19.895,6.802 -31.061,5.647 -56.346,-5.905 -13.734,-6.417 -21.05,-8.214 -38.634,-9.754 -17.327,-1.412 -29.905,-5.776 -43.254,-14.889 -37.093,-25.413 -71.106,-89.717 -84.839,-160.952 -3.466,-17.712 -3.466,-18.61 -3.466,-71.234 0,-47.362 0.257,-54.036 2.31,-60.582 2.439,-7.958 3.851,-8.984 6.033,-4.877 0.77,1.412 1.796,2.567 2.31,2.567 0.642,0 1.027,-7.958 1.027,-17.584 0.128,-31.189 5.134,-50.57 19.766,-77.396 4.877,-8.856 9.369,-18.482 10.011,-21.177 2.568,-11.552 -0.77,-19.51 -14.246,-33.628 -15.916,-16.686 -30.676,-27.339 -71.492,-50.827 -53.137,-30.676 -61.095,-38.505 -107.173,-106.146 -27.21,-39.917 -31.189,-46.206 -41.585,-66.743 -16.172,-31.831 -19.638,-37.093 -36.195,-54.805 -15.788,-16.943 -19.51,-21.948 -30.034,-39.661 -13.092,-22.461 -28.623,-38.248 -80.604,-82.657 -12.579,-10.654 -24.259,-21.563 -25.927,-24.13 -4.108,-6.161 -7.573,-16.686 -9.499,-27.852 -3.208,-19.381 -5.39,-31.96 -7.443,-42.613 -3.21,-17.071 -2.825,-50.57 0.641,-63.533 4.364,-16.173 8.728,-23.617 20.151,-35.04 7.958,-7.958 12.707,-11.552 21.178,-15.787 14.375,-7.06 30.162,-11.424 48.26,-13.22 13.348,-1.412 16.301,-1.284 33.243,1.411 23.359,3.594 29.52,3.081 40.687,-3.978 4.492,-2.696 11.808,-7.316 16.429,-10.14 20.792,-12.707 29.52,-22.847 29.52,-34.655 0,-10.781 -4.62,-21.948 -20.792,-50.827 -11.552,-20.279 -13.092,-24.9 -12.964,-38.377 0.257,-17.969 5.648,-29.264 16.301,-34.141 4.235,-1.925 8.471,-2.439 21.306,-2.439 24.643,0 28.365,-3.208 31.446,-27.21 2.054,-14.889 3.337,-19.252 11.68,-37.35 11.808,-25.927 21.049,-52.88 21.049,-61.993 0,-1.797 -2.567,-9.627 -5.647,-17.584 -4.749,-11.809 -5.904,-16.558 -6.546,-25.927 -0.513,-6.418 -1.027,-12.964 -1.284,-14.632 -3.209,-20.023 -3.209,-134.64 -0.128,-154.149 0.385,-1.797 0.899,-7.83 1.412,-13.477 2.695,-32.473 11.295,-78.037 21.948,-115.901 11.166,-40.302 22.204,-72.133 52.239,-151.069 29.52,-77.908 33.756,-90.358 44.665,-133.741 15.531,-61.993 21.435,-77.652 39.917,-104.862 10.911,-16.173 16.301,-26.826 18.868,-37.35 1.027,-3.851 4.107,-9.755 7.702,-14.761 3.465,-4.62 6.545,-9.883 7.058,-11.808 0.385,-1.925 -0.385,-8.343 -1.925,-14.76 -2.31,-9.627 -2.695,-13.862 -2.053,-28.623 0.77,-19.509 2.182,-26.055 15.53,-71.876 15.916,-54.806 21.691,-80.861 27.724,-124.757 3.851,-27.21 9.241,-58.528 16.044,-92.797 2.566,-12.964 6.161,-32.216 8.856,-48.645 0.385,-2.054 1.026,-9.242 1.412,-16.044 1.155,-17.199 3.979,-33.115 7.701,-42.998 5.776,-15.402 7.572,-30.547 6.674,-58.527 -0.513,-13.734 -1.155,-26.441 -1.54,-28.238 -0.77,-4.492 -1.412,-45.307 -0.899,-71.876 0.642,-37.222 -3.465,-46.591 -28.622,-63.277 -16.557,-11.038 -21.948,-15.659 -25.798,-22.076 -3.594,-6.161 -3.851,-7.316 -5.006,-23.745 -0.77,-11.038 -2.439,-18.611 -6.417,-29.521 -2.825,-7.572 -1.926,-21.948 1.796,-29.135 5.905,-11.552 14.119,-15.146 34.142,-15.017 30.162,0.256 80.476,16.3 102.937,32.986 9.883,7.316 13.862,14.118 18.611,30.932 4.621,16.943 6.931,22.847 12.064,31.446 6.546,11.167 11.681,28.622 15.274,51.597 3.466,22.333 6.931,34.141 14.889,50.185 6.033,12.065 12.065,19.253 15.659,18.739 1.54,-0.256 3.851,-2.438 5.262,-4.877 2.311,-3.85 2.696,-6.674 2.567,-18.611 0,-13.733 -0.256,-14.76 -7.829,-37.863 -4.364,-13.092 -10.14,-33.5 -12.964,-45.565 -10.524,-44.537 -19.637,-61.095 -45.179,-82.272 -12.065,-9.883 -16.686,-16.814 -22.59,-33.5 -2.567,-6.931 -7.573,-18.611 -11.166,-26.055 -6.546,-13.092 -6.674,-13.477 -6.674,-25.029 0,-10.909 0.256,-12.193 3.722,-17.198 13.861,-20.023 45.821,-24.002 94.466,-11.68 54.677,13.733 100.113,39.917 112.692,65.073 7.316,14.504 8.728,22.333 11.038,67.128 0.898,15.787 3.594,27.467 8.471,37.221 4.107,7.958 7.573,12.836 7.701,10.91 0.128,-0.642 0.385,-2.438 0.642,-3.85 0.256,-1.412 0.77,-7.188 1.155,-12.835 1.412,-18.868 4.877,-34.142 8.599,-38.762 3.851,-4.493 11.167,0.256 16.301,10.525 4.749,9.626 5.776,18.867 4.621,39.788 -0.642,10.653 -1.155,26.184 -1.027,34.655 0.128,18.354 1.283,21.691 14.118,42.356 14.504,23.616 17.2,30.162 17.2,41.585 -0.129,9.242 -3.851,15.531 -16.686,27.981 -11.552,10.91 -16.557,18.482 -16.686,24.515 0,2.695 0.386,2.823 13.862,2.823 20.023,0 22.718,2.696 24.772,24.772 1.026,12.193 0.513,126.682 -0.77,153.636 -0.257,6.674 -0.899,26.312 -1.284,43.639 -0.385,17.327 -0.898,39.789 -1.283,50.057 -0.385,10.268 -0.899,28.75 -1.284,41.072 -1.155,36.708 -3.209,63.534 -7.187,93.054 -5.263,38.891 -10.526,61.224 -26.312,112.05 -20.408,65.074 -22.462,76.241 -22.077,115.131 l 0.385,28.237 -4.107,8.343 c -2.182,4.621 -7.573,12.322 -11.808,17.327 -12.707,14.376 -16.557,25.029 -13.991,38.762 0.514,3.081 3.595,12.193 6.803,20.28 7.445,19.252 8.6,26.44 6.546,41.714 -2.31,16.3 -1.668,26.825 2.439,40.943 4.621,15.788 4.107,24.387 -2.696,40.559 -7.316,17.456 -7.316,27.724 -0.641,69.951 2.823,17.969 6.931,44.538 8.984,59.042 4.492,30.675 6.033,36.451 12.45,46.848 12.065,19.381 12.579,22.204 7.958,39.532 -1.669,6.417 -2.695,14.375 -2.695,20.151 0,8.342 0.77,11.68 5.904,25.156 3.722,9.755 6.931,21.307 8.728,30.805 2.438,13.733 2.695,18.225 1.925,43.51 -0.385,15.531 -1.284,31.446 -2.054,35.297 -0.77,3.85 -1.283,14.247 -1.155,23.103 0.514,30.034 0.129,31.831 -10.397,46.206 -9.112,12.579 -20.407,37.479 -26.311,57.886 -4.621,16.301 -9.498,24.9 -19.253,34.398 -13.092,12.579 -12.065,14.504 11.167,21.948 26.183,8.343 28.365,13.477 19.894,44.923 -2.182,8.086 -3.466,17.199 -3.979,27.082 -1.283,24.772 -6.418,45.436 -21.177,84.326 -3.466,8.985 -8.728,23.489 -11.552,32.345 -2.952,8.856 -11.423,28.494 -18.739,43.639 -16.686,34.655 -19.895,44.666 -20.793,63.662 -0.771,15.402 0.513,22.076 5.134,27.21 6.674,7.188 14.632,0.899 25.156,-20.151 9.242,-18.225 17.969,-32.216 44.538,-71.363 27.082,-40.045 33.628,-48.388 57.887,-74.571 23.744,-25.671 30.803,-34.013 46.847,-54.421 20.665,-26.44 39.789,-47.747 59.426,-66.101 32.73,-30.547 35.939,-34.013 37.736,-40.687 2.438,-8.471 1.026,-16.044 -7.701,-42.869 -4.107,-12.835 -8.215,-27.467 -8.985,-32.473 -2.695,-16.429 2.054,-27.98 13.991,-34.013 7.701,-3.85 9.241,-4.107 28.621,-6.417 18.226,-2.182 25.414,-4.492 30.035,-10.011 4.748,-5.648 5.776,-11.552 5.519,-33.243 -0.128,-12.065 0.385,-21.05 1.283,-23.103 2.311,-5.648 9.242,-12.707 18.483,-18.74 14.76,-9.754 18.354,-15.915 25.285,-42.484 6.032,-23.103 12.835,-42.099 27.723,-76.625 7.188,-16.942 16.814,-39.789 21.178,-50.699 11.038,-27.723 33.372,-72.518 48.26,-96.904 33.243,-54.678 43.639,-73.545 59.94,-109.74 17.584,-38.89 31.189,-78.166 42.741,-122.96 3.08,-12.065 7.957,-27.981 10.91,-35.168 6.16,-15.531 8.856,-25.414 8.856,-32.473 0,-2.824 -1.668,-13.605 -3.851,-24.002 -2.053,-10.268 -5.005,-28.75 -6.417,-40.943 -4.107,-34.912 -8.471,-54.293 -23.745,-103.836 -13.092,-42.484 -16.942,-59.17 -23.103,-100.114 -1.797,-12.45 -3.594,-29.392 -4.493,-44.537 -1.026,-16.301 -0.641,-81.246 0.514,-91.514 0.256,-2.439 0.898,-9.37 1.284,-15.402 1.026,-13.221 1.796,-20.665 3.337,-33.372 0.77,-5.262 1.668,-12.835 2.053,-16.685 1.669,-15.146 9.626,-56.859 14.504,-75.727 6.289,-24.772 7.573,-37.607 4.749,-48.517 -2.567,-10.396 -8.086,-21.049 -16.429,-31.831 -3.594,-4.877 -10.012,-13.348 -14.119,-18.739 -14.632,-19.252 -20.279,-37.221 -17.712,-55.961 1.925,-14.632 5.776,-24.771 20.664,-54.549 7.06,-13.99 13.862,-28.109 15.274,-31.574 4.493,-11.68 6.546,-24.515 8.343,-55.319 1.54,-25.157 6.803,-45.821 12.193,-48.773 1.541,-0.899 4.621,-0.385 10.012,1.54 6.417,2.439 8.214,2.567 11.038,1.283 4.749,-2.182 7.957,-10.139 9.754,-24.001 3.338,-27.339 4.108,-31.061 7.06,-37.479 6.546,-14.375 22.589,-26.953 42.099,-33.114 9.497,-3.08 44.281,-11.167 61.223,-14.375 15.017,-2.824 32.345,-2.439 42.612,0.77 21.564,6.802 39.148,34.398 40.174,63.148 1.027,26.954 -6.417,45.18 -39.018,96.135 -16.686,25.927 -27.467,47.361 -34.142,67.384 -8.856,26.697 -15.145,58.913 -16.685,85.353 -1.412,25.157 -1.54,27.082 -0.642,27.596 1.412,0.898 15.145,-11.937 19.252,-17.969 6.675,-9.755 12.451,-22.59 20.537,-46.207 16.3,-47.746 27.723,-63.02 53.778,-71.876 14.119,-4.749 27.468,-6.289 49.415,-5.391 34.527,1.412 56.09,9.37 71.877,26.697 16.172,17.969 20.279,40.046 11.166,59.555 -7.059,15.274 -15.402,22.076 -46.976,38.505 -36.067,18.739 -46.719,27.981 -58.014,50.185 -17.071,33.5 -24.901,75.342 -24.002,127.837 0.385,30.034 1.669,44.923 7.059,85.097 3.081,22.076 5.904,38.377 17.713,99.472 10.139,52.367 11.038,58.014 12.321,85.353 1.925,37.992 5.263,57.501 12.836,74.572 4.62,10.396 10.781,17.455 24.258,27.467 6.417,4.749 13.22,10.268 15.145,12.321 3.722,3.979 8.985,14.889 11.167,23.232 0.77,2.824 4.877,13.092 9.113,22.718 11.936,27.339 12.193,28.494 13.477,82.914 0.385,15.146 0.898,29.393 1.155,31.446 0.256,2.182 0.898,11.038 1.283,19.895 0.513,8.856 1.155,20.407 1.412,25.67 0.256,5.262 0.898,17.712 1.283,27.595 0.385,9.883 1.027,22.077 1.284,26.954 0.385,5.006 0.898,14.247 1.284,20.536 2.695,44.538 8.086,77.524 25.541,154.663 17.456,77.908 21.948,108.071 26.312,176.482 1.412,21.306 1.284,68.796 0,87.278 -1.54,20.408 -3.851,33.5 -11.038,64.047 l -6.032,25.414 3.08,2.567 c 12.322,9.626 14.247,14.632 11.038,27.467 -1.155,4.749 -5.262,15.658 -9.241,24.13 -9.498,20.407 -12.065,27.98 -12.065,35.938 0,8.214 1.283,10.524 4.877,8.599 5.006,-2.695 18.226,-26.312 27.852,-49.543 5.905,-14.375 15.659,-34.013 29.649,-59.298 5.904,-10.653 13.734,-25.67 17.328,-33.371 3.593,-7.573 8.471,-17.969 10.909,-22.975 7.83,-16.429 12.193,-19.766 14.632,-10.782 1.669,6.033 2.952,7.06 5.262,4.236 2.183,-2.567 9.113,-5.519 12.964,-5.519 5.648,0 12.964,-2.824 15.916,-6.033 4.235,-4.492 6.546,-13.348 8.856,-32.857 3.08,-26.312 13.605,-87.664 27.595,-160.054 6.803,-35.553 12.579,-65.715 16.557,-87.92 3.594,-19.637 20.793,-122.831 27.853,-167.497 1.026,-6.675 2.438,-15.659 3.08,-19.895 4.107,-26.183 9.883,-70.208 12.193,-94.338 0.385,-3.85 0.514,-29.007 0.385,-55.832 -0.513,-123.088 -0.128,-166.214 2.182,-193.168 0.129,-2.438 0.77,-13.733 1.155,-25.028 0.514,-11.295 1.155,-22.59 1.412,-25.029 0.257,-2.438 0.899,-12.578 1.284,-22.461 0.513,-9.883 1.026,-19.381 1.284,-21.178 0.256,-1.797 0.77,-9.498 1.155,-17.327 0.513,-7.701 1.155,-16.942 1.411,-20.536 0.385,-3.466 0.899,-10.782 1.284,-16.044 2.31,-33.371 7.829,-94.338 10.268,-113.59 1.026,-7.701 2.695,-23.104 3.851,-34.013 1.155,-10.91 2.31,-22.205 2.566,-25.029 1.412,-12.963 1.925,-20.793 3.209,-41.329 2.567,-44.537 6.289,-59.554 27.724,-110.766 2.695,-6.546 3.594,-11.038 4.107,-21.82 0.77,-16.3 -0.642,-27.21 -7.444,-58.014 -6.674,-30.548 -8.857,-44.41 -9.755,-63.277 -1.925,-35.553 5.519,-60.068 25.927,-86.252 18.996,-24.258 43.768,-39.789 67.384,-42.356 13.477,-1.412 41.586,6.546 58.528,16.429 4.107,2.439 11.68,8.471 16.814,13.477 10.396,10.396 14.118,17.327 17.327,32.601 4.364,20.665 3.466,39.147 -4.236,87.279 -6.673,41.585 -7.316,46.848 -9.754,68.667 -1.797,17.328 -2.695,64.561 -1.283,73.802 0.385,2.438 1.026,9.754 1.411,16.044 0.385,6.417 1.027,13.862 1.284,16.685 0.385,2.824 0.898,9.755 1.283,15.402 0.899,12.579 1.797,23.745 2.568,31.446 0.256,3.209 0.898,10.397 1.283,16.044 0.385,5.648 1.027,12.322 1.283,14.76 0.257,2.439 0.899,9.37 1.284,15.402 0.385,6.033 1.027,12.964 1.283,15.403 0.257,2.438 0.899,9.369 1.284,15.402 0.385,6.032 1.027,13.476 1.284,16.685 0.256,3.209 0.898,10.653 1.283,16.686 0.385,6.032 1.027,14.118 1.283,17.969 1.027,12.193 3.081,43.639 3.851,60.325 0.385,8.856 1.027,17.84 1.284,19.894 1.283,8.985 2.567,52.624 2.567,84.07 -0.129,42.741 -2.311,63.148 -12.194,110.895 -8.6,41.585 -10.268,71.748 -5.775,98.573 1.155,6.546 4.877,23.232 8.342,36.965 10.782,42.869 11.552,48.26 13.477,85.353 0.77,14.889 2.952,45.18 3.851,53.908 0.641,6.674 4.363,46.462 5.262,57.116 0.77,10.139 1.669,19.637 2.439,25.67 2.31,18.226 4.748,36.195 5.776,43.382 3.08,19.766 4.877,46.463 5.005,75.085 0.128,32.987 1.283,41.843 7.059,53.394 3.594,6.931 9.883,12.964 13.734,12.964 1.412,0 3.979,-1.412 5.775,-3.209 8.343,-8.343 14.761,-33.628 21.05,-81.888 3.465,-26.568 5.519,-37.35 11.68,-60.838 6.674,-25.798 18.483,-60.838 30.034,-89.589 18.996,-46.848 23.488,-63.79 24.387,-91.899 0.385,-9.113 0.898,-23.873 1.283,-32.986 0.899,-25.157 4.621,-42.099 13.991,-64.175 8.727,-20.536 10.139,-31.703 6.674,-57.373 -2.183,-16.557 -2.439,-32.986 -0.899,-47.49 2.952,-26.825 3.337,-31.702 3.081,-50.057 -0.257,-10.524 -0.899,-23.616 -1.54,-28.878 -2.311,-18.226 -0.899,-48.389 3.593,-73.802 2.31,-12.707 5.519,-31.446 7.316,-41.714 6.418,-36.58 8.086,-53.394 7.701,-74.444 -0.513,-22.461 -1.026,-24.9 -11.936,-50.57 -12.322,-29.52 -12.322,-29.52 -12.579,-71.363 -0.256,-40.045 -0.385,-40.815 -9.113,-76.368 -6.289,-25.414 -8.086,-37.735 -7.316,-51.341 1.412,-29.392 19.638,-51.982 50.185,-62.763 7.958,-2.824 18.868,-4.621 33.115,-5.391 14.889,-0.77 20.665,-2.053 29.264,-6.674 8.6,-4.749 17.584,-15.145 29.52,-34.526 19.638,-31.575 38.891,-46.72 80.348,-63.021 l 14.761,-5.775 20.022,-0.642 c 37.864,-1.027 89.589,7.573 106.146,17.712 5.134,3.081 9.241,11.424 9.241,18.611 0,7.188 -5.133,20.665 -11.166,29.649 -12.45,18.226 -30.419,35.682 -63.277,61.223 -49.158,38.249 -66.486,57.373 -77.139,84.969 -16.3,41.714 -11.423,104.477 12.451,160.695 12.193,28.622 12.449,29.649 12.834,51.725 0.129,10.91 -0.385,25.927 -1.411,33.371 -3.723,29.777 -5.135,60.71 -5.135,107.815 0.129,55.319 2.568,75.983 17.969,153.379 11.552,57.886 16.815,90.487 20.537,128.35 0.385,4.236 1.026,9.755 1.283,12.194 0.257,2.438 0.899,8.599 1.284,13.477 0.385,5.005 1.026,11.551 1.283,14.76 0.385,3.209 1.156,14.504 1.926,25.028 0.77,10.653 1.54,23.36 1.925,28.237 1.283,17.584 3.08,45.18 3.85,57.758 0.385,7.06 1.027,14.889 1.284,17.328 0.257,2.438 0.77,9.754 1.283,16.043 0.385,6.418 1.027,13.606 1.284,16.044 0.257,2.439 0.898,8.856 1.283,14.119 0.385,5.262 1.027,11.68 1.284,14.118 0.256,2.439 0.77,8.215 1.155,12.835 0.385,4.621 1.668,17.585 2.696,28.879 1.796,19.253 2.438,26.056 3.978,44.923 0.385,4.236 0.899,10.011 1.155,12.835 0.257,2.824 1.155,14.119 1.925,25.029 0.643,10.909 1.541,22.461 1.926,25.67 1.412,14.888 2.567,54.292 2.567,89.203 -0.128,32.73 -0.642,43.383 -3.594,71.107 -4.749,43.767 -5.391,54.677 -5.262,80.347 0.256,44.41 9.369,74.444 30.162,99.6 11.167,13.349 16.172,28.879 14.76,46.592 -0.385,4.235 -1.027,13.605 -1.668,20.664 -1.925,24.515 -1.284,37.093 3.08,52.624 6.803,24.13 7.444,29.649 7.444,62.892 -0.128,16.942 -0.513,33.114 -1.026,35.938 -0.514,2.824 -1.284,13.22 -1.669,23.103 -0.77,16.557 -0.642,18.482 1.797,24.13 4.107,9.113 11.423,11.166 25.927,7.188 2.439,-0.771 11.167,-1.669 19.253,-2.054 11.423,-0.513 16.557,-0.257 22.846,1.412 20.921,5.262 24.387,1.54 22.846,-25.542 -0.513,-8.599 -1.027,-16.942 -1.283,-18.739 -0.385,-1.669 -0.899,-7.445 -1.412,-12.707 -0.385,-5.262 -1.668,-18.226 -2.567,-28.879 -4.236,-42.741 -5.134,-58.014 -6.418,-96.263 -1.283,-41.457 -2.181,-59.811 -3.978,-85.353 -0.385,-5.262 -1.926,-16.814 -3.338,-25.67 -3.336,-19.124 -3.85,-45.565 -1.155,-53.009 2.311,-6.931 7.958,-12.835 14.504,-15.53 15.274,-6.29 18.996,-10.268 23.103,-24.772 2.439,-8.985 3.081,-17.841 4.236,-65.844 0.385,-14.504 0.898,-27.98 1.155,-30.162 0.256,-2.054 0.898,-10.782 1.283,-19.253 0.513,-8.471 1.156,-17.456 1.412,-19.894 0.257,-2.439 0.899,-10.525 1.284,-17.969 0.513,-7.445 1.027,-15.531 1.283,-17.97 0.257,-2.438 0.77,-11.679 1.284,-20.536 0.513,-8.856 1.155,-16.942 1.283,-17.969 0.257,-1.027 0.77,-9.369 1.284,-18.611 0.513,-9.112 1.155,-16.942 1.284,-17.327 0.256,-0.385 0.77,-8.471 1.155,-17.969 0.513,-9.498 1.155,-18.739 1.411,-20.536 0.257,-1.797 0.899,-8.728 1.284,-15.402 0.385,-6.674 1.283,-18.868 1.925,-26.954 0.642,-8.086 1.54,-19.124 1.925,-24.386 0.257,-5.263 1.156,-17.071 1.926,-26.312 0.77,-9.113 1.54,-21.05 1.925,-26.312 0.385,-5.263 0.898,-12.45 1.283,-16.044 0.257,-3.466 0.899,-11.552 1.284,-17.969 0.385,-6.289 1.026,-14.375 1.283,-17.969 0.257,-3.466 0.899,-12.707 1.284,-20.536 0.385,-7.701 1.027,-16.429 1.284,-19.253 0.256,-2.824 0.898,-14.889 1.283,-26.954 0.513,-11.936 1.027,-23.231 1.412,-25.028 0.256,-1.797 0.77,-27.724 1.155,-57.758 0.77,-59.811 1.668,-98.958 2.438,-103.964 0.257,-1.797 0.899,-8.214 1.284,-14.247 0.514,-6.032 1.027,-12.45 1.412,-14.118 0.257,-1.669 0.77,-6.546 1.283,-10.782 1.797,-16.685 9.755,-66.1 15.274,-95.108 12.835,-67.127 60.453,-302.907 74.444,-367.596 7.316,-34.526 8.727,-45.821 6.931,-56.988 -2.439,-15.915 -7.701,-22.974 -31.19,-41.585 -27.467,-21.948 -44.152,-41.714 -55.319,-65.588 -13.605,-28.878 -12.193,-49.8 3.722,-58.656 6.418,-3.594 7.445,-3.722 24.644,-3.979 38.248,-0.385 82.016,8.985 113.333,24.259 6.161,2.952 24.258,14.247 40.43,25.028 16.044,10.781 34.014,22.076 39.789,25.285 9.755,5.391 26.312,12.322 29.136,12.322 0.642,0 0.899,-2.311 0.642,-5.134 -0.385,-2.824 -0.899,-7.445 -1.284,-10.14 -3.08,-26.312 -3.594,-78.936 -0.77,-89.589 3.081,-12.45 13.734,-18.739 35.04,-20.407 8.599,-0.771 10.011,-1.156 9.369,-2.953 -7.701,-19.252 -12.193,-39.66 -13.092,-58.527 -1.411,-29.778 8.343,-49.8 29.136,-59.555 6.29,-2.952 8.6,-3.337 21.178,-3.337 15.402,0 23.36,1.925 44.281,10.525 36.965,15.145 60.453,31.574 73.674,51.596 7.444,11.295 10.652,19.125 22.846,56.475 17.712,54.677 25.285,83.813 29.135,111.151 1.155,8.472 0.899,38.634 -0.385,45.565 -0.256,1.797 -0.898,6.161 -1.411,9.626 -0.385,3.594 -2.824,17.456 -5.135,30.804 -5.133,29.264 -6.673,40.174 -7.701,54.549 -0.385,6.033 -1.026,14.632 -1.283,19.253 -0.257,4.621 -0.899,18.739 -1.284,31.446 -1.411,46.848 -2.823,74.443 -6.417,118.083 -1.54,19.38 -2.567,68.924 -2.567,124.5 0,59.169 1.412,138.233 2.695,148.245 0.898,7.316 -1.925,37.093 -4.492,47.49 -1.283,5.262 -4.749,17.455 -7.573,26.953 -8.471,28.237 -9.754,36.067 -9.754,63.534 -0.128,21.563 0.642,36.323 2.438,48.773 1.797,12.322 9.627,67.641 10.14,72.518 2.567,21.306 3.466,29.906 5.262,48.132 1.797,18.097 3.209,33.884 5.135,55.19 0.256,3.594 1.411,16.814 2.567,29.521 1.026,12.707 2.181,26.055 2.566,29.521 0.257,3.594 1.155,13.99 1.926,23.103 1.797,21.434 7.572,80.989 8.342,85.995 1.284,8.086 8.343,80.861 10.269,106.531 1.412,17.455 2.053,41.2 1.925,67.384 -0.128,40.944 0.77,53.779 4.62,65.074 4.108,12.193 8.729,14.888 31.318,17.712 8.599,1.027 17.969,2.567 20.921,3.337 6.675,1.797 13.092,8.215 14.889,15.017 1.669,5.904 0.385,19.253 -2.952,34.013 -1.027,4.492 -2.824,16.814 -3.979,27.339 -2.567,24.772 -7.059,64.304 -7.701,69.181 -6.289,44.281 -8.214,55.704 -18.097,109.74 -14.632,79.705 -16.301,87.792 -23.489,107.044 -8.342,22.205 -10.396,30.163 -10.396,39.404 0,10.781 3.979,21.563 14.76,40.687 14.504,25.67 18.868,37.222 33.885,90.231 8.728,30.804 10.396,39.66 11.808,62.121 1.54,24.515 5.519,39.532 8.856,33.885 0.642,-0.899 2.567,-6.033 4.364,-11.423 3.209,-10.012 5.262,-24.515 6.674,-47.49 1.284,-23.873 4.493,-40.559 24.515,-127.067 10.654,-46.335 24.772,-91.129 40.302,-128.479 9.37,-22.462 11.552,-31.446 11.681,-46.078 0,-18.226 -2.824,-29.264 -17.457,-68.925 -8.342,-22.718 -12.321,-36.451 -16.043,-56.345 -1.541,-7.83 -6.674,-26.954 -11.552,-42.356 -4.877,-15.402 -9.113,-30.419 -9.626,-33.243 -1.925,-13.605 -1.925,-19.381 -0.128,-37.222 3.465,-32.729 2.695,-47.361 -3.851,-75.727 -1.54,-7.059 -3.594,-17.199 -4.492,-22.461 -0.898,-5.262 -3.979,-17.071 -6.803,-26.312 -4.62,-15.017 -5.134,-17.969 -5.134,-30.162 0,-11.68 0.771,-16.172 5.263,-33.371 2.823,-10.91 6.417,-27.724 7.829,-37.222 1.412,-9.626 4.878,-28.109 7.701,-41.072 4.621,-22.333 5.519,-27.211 7.316,-44.923 1.284,-13.349 4.364,-29.649 6.931,-36.837 1.284,-3.85 6.289,-13.22 11.038,-20.664 16.686,-25.927 18.611,-36.067 18.482,-94.595 -0.256,-51.725 0.642,-60.196 10.911,-114.232 7.957,-41.072 8.471,-46.206 8.086,-78.935 -0.514,-56.86 -0.129,-87.921 1.283,-100.756 1.284,-12.065 1.155,-88.305 -0.257,-95.621 -0.256,-1.797 -0.898,-8.984 -1.411,-16.044 -0.642,-11.68 -2.311,-31.831 -3.851,-48.773 -0.257,-3.465 -0.898,-10.781 -1.284,-16.044 -0.385,-5.262 -1.283,-17.712 -2.181,-27.595 -2.054,-24.515 -1.54,-183.413 0.898,-247.075 0.257,-7.445 0.898,-27.596 1.283,-44.923 0.642,-30.547 2.696,-74.315 3.851,-85.995 0.256,-3.209 0.899,-9.498 1.284,-14.119 5.133,-52.623 17.455,-97.418 35.938,-130.789 8.728,-15.787 14.503,-23.103 34.013,-43.126 11.936,-12.193 21.948,-24.258 31.702,-37.863 23.745,-33.115 33.756,-43.126 58.271,-58.4 25.927,-16.044 41.329,-21.434 62.122,-21.691 12.193,-0.128 15.017,0.257 20.793,2.952 3.722,1.669 8.984,5.519 11.808,8.471 9.627,10.525 11.68,19.766 12.065,53.522 0.257,27.596 0.77,29.393 8.985,34.398 6.546,4.108 14.503,3.338 34.012,-3.337 22.077,-7.316 30.676,-9.113 49.03,-10.139 10.269,-0.514 23.745,-2.696 44.923,-7.188 39.533,-8.343 44.41,-9.755 77.396,-22.461 46.463,-17.841 59.94,-21.178 84.326,-20.408 15.402,0.513 25.799,2.567 36.58,7.573 18.996,8.599 26.954,26.568 19.894,44.537 -5.647,14.375 -14.76,24.387 -49.8,55.448 -29.905,26.312 -70.207,64.432 -90.102,85.096 -22.974,23.873 -25.413,33.628 -16.3,63.534 8.984,29.52 12.193,47.233 20.921,115.387 7.059,55.448 11.166,72.775 33.243,139.902 18.225,55.576 25.798,83.043 35.296,129.249 9.498,46.078 18.611,112.436 22.462,162.749 0.385,5.648 1.026,12.322 1.283,14.76 0.642,5.648 2.823,39.532 3.851,59.042 0.385,8.086 1.027,19.637 1.283,25.67 0.642,13.477 2.054,50.698 3.979,114.874 0.513,14.888 1.027,45.179 1.155,67.384 l 0.128,40.43 4.878,17.969 c 4.621,17.071 4.877,19.381 5.904,45.565 0.513,15.145 1.925,34.526 2.952,42.997 1.155,8.471 2.31,22.333 2.823,30.804 0.385,8.472 1.156,17.713 1.413,20.537 1.283,9.369 1.54,142.212 0.513,158.513 -1.027,13.99 -2.567,26.183 -6.289,48.901 -0.514,3.209 -1.155,10.14 -1.284,15.274 -0.256,9.241 -0.256,9.37 2.696,8.471 7.957,-2.31 14.503,-2.182 18.995,0.257 5.52,3.08 11.039,13.092 12.964,24.001 1.668,8.857 0.77,46.207 -1.412,60.325 -0.77,5.006 -1.412,16.172 -1.54,25.029 0,20.279 3.08,35.938 12.45,62.891 3.722,10.91 10.653,30.933 15.145,44.281 10.14,29.136 16.558,59.17 19.509,90.488 0.385,4.62 1.027,9.754 1.284,11.551 0.257,1.797 0.899,8.471 1.284,14.761 0.385,6.417 1.027,15.145 1.412,19.637 2.181,23.103 2.695,45.95 2.566,98.445 -0.385,66.486 0.899,58.015 -15.402,106.531 -10.909,32.216 -12.963,40.944 -15.53,66.101 -8.215,81.759 -10.525,94.466 -26.312,148.245 -9.755,33.114 -13.22,47.105 -17.327,69.951 -5.135,28.622 -6.803,33.371 -22.59,60.967 -5.006,8.856 -10.396,20.407 -12.45,26.953 -5.006,15.531 -7.059,19.253 -12.964,23.232 -5.904,3.85 -11.038,13.091 -16.172,28.75 -9.498,28.879 -17.199,38.12 -42.997,51.34 -21.948,11.295 -35.425,30.035 -41.329,57.117 -2.695,12.193 -2.824,15.658 -2.695,71.876 0.257,65.587 0.128,68.282 -8.728,117.441 -8.343,46.591 -13.734,78.679 -17.199,102.424 -11.423,78.935 -31.061,123.088 -68.668,155.304 -36.066,30.676 -81.374,46.206 -124.372,42.356 -39.275,-3.466 -71.106,-21.82 -96.263,-55.448 -34.783,-46.334 -53.008,-107.301 -67.512,-226.025 -0.385,-2.824 -0.898,-7.188 -1.284,-9.627 -0.256,-2.438 -0.898,-7.701 -1.283,-11.551 -1.155,-10.525 -1.926,-17.584 -3.209,-28.237 -0.642,-5.263 -1.54,-13.092 -1.925,-17.328 -0.385,-4.235 -1.027,-9.754 -1.284,-12.193 -0.385,-2.439 -1.54,-11.937 -2.566,-21.178 -2.953,-25.028 -6.931,-51.597 -8.985,-60.967 -7.188,-32.472 -19.766,-46.719 -48.131,-54.549 -40.688,-11.166 -58.272,-20.792 -77.525,-42.227 -5.133,-5.776 -9.754,-9.755 -11.808,-10.14 -4.877,-0.898 -9.754,3.979 -17.84,17.584 -3.723,6.418 -8.215,12.964 -9.884,14.504 -1.797,1.669 -9.883,4.877 -19.637,7.958 -22.847,7.059 -39.661,13.605 -46.335,18.097 -8.728,5.904 -9.754,6.161 -21.563,7.701 l -11.295,1.412 -33.243,27.467 c -18.739,15.531 -41.2,32.858 -51.596,39.789 -32.858,21.691 -43.383,34.398 -43.639,52.239 -0.129,16.043 4.235,23.359 20.407,34.141 9.37,6.289 13.477,10.91 18.611,21.049 9.755,19.253 15.659,41.201 15.53,58.143 0,9.37 -0.77,14.376 -4.492,26.954 -2.439,8.471 -4.877,17.456 -5.519,19.894 -1.54,7.445 -0.77,26.312 1.925,47.49 3.723,28.622 4.621,41.714 4.493,63.534 -0.257,37.478 -9.113,64.817 -26.44,81.631 -8.728,8.471 -14.761,11.166 -28.366,13.22 -14.761,2.31 -18.483,3.979 -28.494,13.733 -12.322,11.809 -16.814,13.349 -39.789,13.477 -25.67,0.257 -49.543,-1.283 -59.169,-3.85 -18.868,-4.878 -41.457,-17.328 -59.042,-32.473 -26.568,-22.975 -36.58,-44.024 -42.869,-90.102 -6.803,-48.517 -8.214,-54.678 -20.664,-83.942 -11.68,-27.595 -14.375,-37.221 -14.504,-54.164 -0.128,-7.701 0.642,-19.637 1.54,-26.312 4.236,-30.932 8.6,-42.099 20.922,-52.88 10.268,-9.113 12.064,-12.193 16.429,-29.649 4.107,-15.787 7.444,-23.36 18.739,-41.971 14.76,-24.386 20.022,-38.248 20.15,-53.522 0,-21.178 -9.497,-37.607 -32.729,-56.346 -27.082,-21.691 -58.271,-35.553 -103.45,-46.078 -34.141,-7.957 -45.693,-12.578 -56.731,-22.333 -8.856,-7.701 -13.349,-15.659 -18.354,-32.858 -14.376,-48.773 -38.377,-103.579 -72.775,-166.214 -18.098,-32.857 -19.124,-35.039 -26.44,-55.704 -8.215,-23.616 -16.686,-36.451 -27.724,-42.099 -5.776,-2.952 -7.188,-2.054 -7.445,5.134 -0.128,2.182 -0.257,4.492 -0.385,5.134 -0.128,0.514 -0.77,7.316 -1.283,15.017 -0.514,7.83 -1.155,15.787 -1.412,17.841 -0.257,1.925 -0.77,28.494 -1.283,59.041 -0.771,62.764 -1.797,103.964 -2.568,112.435 -0.385,3.209 -1.797,21.692 -3.208,41.073 -1.412,19.381 -2.824,37.35 -3.209,39.788 -0.257,2.439 -0.898,8.6 -1.283,13.477 -3.98,46.591 -15.916,123.217 -23.232,148.887 -8.984,31.703 -24.772,50.57 -50.313,60.196 -4.75,1.797 -17.585,5.905 -28.495,9.113 -24.386,7.316 -45.692,15.659 -84.069,33.115 -22.975,10.396 -35.425,15.274 -55.576,21.306 -29.906,8.985 -38.89,12.835 -49.928,21.178 -9.242,7.059 -39.533,38.12 -42.356,43.639 -4.108,7.83 -2.182,18.611 7.829,44.666 1.797,4.749 5.648,17.969 8.472,29.392 5.262,20.793 8.471,28.623 18.097,44.41 12.322,20.022 18.354,43.639 18.482,71.619 0,21.948 -2.567,31.703 -11.808,43.64 -11.038,14.632 -14.889,25.67 -20.28,58.528 -3.978,23.616 -6.93,35.039 -12.963,49.8 -24.386,59.298 -74.443,97.931 -128.864,99.471 -7.444,0.129 -17.07,-0.128 -21.434,-0.641 z M 19660.62,14322.336 c 9.755,-5.006 18.611,-26.441 25.67,-61.224 2.054,-10.781 5.776,-27.338 8.214,-36.965 5.648,-22.718 7.573,-36.708 6.675,-47.233 -0.514,-5.775 -3.85,-17.969 -10.396,-37.478 -8.472,-25.285 -16.943,-56.089 -19.381,-70.721 -0.385,-2.696 -1.412,-4.878 -2.054,-4.878 -3.465,0 -8.856,8.472 -12.707,19.766 -3.594,11.039 -4.877,13.092 -14.76,24.387 -7.316,8.214 -12.193,15.274 -15.146,21.563 -2.31,5.134 -8.214,16.301 -13.091,24.772 -21.563,37.863 -27.981,53.779 -28.109,69.309 -0.128,15.017 3.209,21.563 20.28,38.505 10.396,10.397 16.685,18.226 27.852,34.912 18.739,28.108 18.097,27.21 20.793,27.338 1.283,0 4.107,-0.898 6.16,-2.053 z m 2766.085,-1183.65 c 9.37,-24.9 11.552,-35.553 11.809,-58.015 0.128,-17.455 -1.027,-41.329 -2.439,-50.313 -0.385,-2.952 -1.284,-16.172 -2.567,-38.249 -0.385,-6.674 -1.027,-15.017 -1.283,-18.611 -0.385,-3.465 -1.155,-17.327 -1.926,-30.804 -0.641,-13.348 -1.668,-29.264 -2.054,-35.296 -0.513,-6.033 -1.026,-51.597 -1.155,-101.397 -0.256,-87.407 -0.641,-102.167 -3.208,-128.351 -0.642,-6.674 -1.412,-15.659 -1.797,-19.894 -1.797,-20.151 -2.311,-25.157 -4.107,-35.425 -2.182,-13.605 -4.877,-22.333 -8.215,-27.852 -2.438,-3.979 -5.775,-6.418 -7.059,-5.134 -0.385,0.385 -1.54,9.241 -2.567,19.766 -5.263,49.543 -13.862,110.766 -19.381,137.207 -5.776,27.338 -8.214,53.394 -10.14,107.814 -1.54,43.64 -3.979,68.54 -7.7,79.578 -1.669,5.005 -5.905,15.402 -9.371,23.103 -9.241,20.279 -11.038,27.21 -10.909,42.356 0,15.145 1.54,24.001 7.573,45.564 5.519,19.509 11.679,32.601 28.108,60.325 15.916,26.825 22.718,40.174 27.082,53.522 l 3.466,10.525 6.289,-8.343 c 4.364,-5.776 8.086,-12.835 11.551,-22.076 z m -3142.409,-332.043 c 2.567,-16.301 3.851,-29.264 4.749,-44.281 0.385,-8.087 0.898,-15.403 1.155,-16.301 0.898,-2.695 2.567,-50.57 2.567,-70.978 0,-17.584 -0.385,-21.691 -3.722,-35.296 -4.235,-17.713 -5.648,-35.04 -3.465,-43.896 1.026,-4.107 3.593,-8.086 7.829,-12.835 7.701,-8.471 10.268,-16.044 10.268,-30.419 0,-15.146 -3.722,-35.425 -6.418,-35.425 -3.978,0 -14.503,6.802 -22.076,14.247 -13.22,12.963 -14.76,18.611 -9.883,37.221 1.412,5.776 2.439,12.194 2.182,14.247 -0.385,2.182 0.128,6.033 1.027,8.728 1.412,4.107 3.979,19.509 6.289,38.505 1.926,16.301 2.439,35.297 2.439,87.921 0,31.831 -0.257,64.432 -0.77,72.518 -0.771,13.22 0.128,23.873 2.31,29.52 1.155,3.209 3.85,-3.465 5.519,-13.476 z"
           id="path1641" />
      </g>
    </g>
    <path
       id="path978"
       d="m 170.85688,202.23296 c -0.0326,-0.0625 -0.76027,-1.63832 -1.617,-3.50183 l -1.55767,-3.38813 -0.34436,-0.17497 c -0.62147,-0.31578 -1.35357,-0.46207 -1.88631,-0.37693 -0.80216,0.12822 -1.48582,0.63268 -2.683,1.97975 -0.87442,0.98391 -1.35116,1.39023 -1.91223,1.62983 -0.42818,0.18286 -0.44207,0.18522 -1.08017,0.18355 -0.71301,-0.002 -0.98437,-0.0666 -1.5632,-0.37276 l -0.29861,-0.15798 -1.64527,-3.58176 c -0.90491,-1.96997 -1.64539,-3.61106 -1.64554,-3.64691 -1.6e-4,-0.0447 0.092,-0.0204 0.29366,0.0774 0.70166,0.34035 1.42347,0.4876 1.93878,0.3955 0.7999,-0.14296 1.42884,-0.60357 2.59094,-1.89735 0.78016,-0.86859 1.26202,-1.32094 1.65259,-1.55144 0.80814,-0.47687 1.7918,-0.50366 2.7729,-0.0755 0.3691,0.16106 0.37946,0.163 0.37946,0.071 0,-0.0571 0.23452,-0.14174 0.40857,-0.14756 0.039,-10e-4 6.7011,14.41429 6.7011,14.5002 0,0.0181 -0.0606,0.046 -0.13475,0.0621 -0.0741,0.0161 -0.17429,0.0424 -0.22262,0.0584 -0.0579,0.0192 -0.10811,-0.01 -0.14718,-0.0845 z m -10.30147,-3.81133 c 0.15352,-0.0504 0.44293,-0.19277 0.64316,-0.31631 l 0.36403,-0.22459 -0.0937,-0.20403 c -0.0515,-0.11221 -0.19699,-0.42685 -0.32323,-0.69921 l -0.22954,-0.49516 -0.33329,0.21691 c -0.33018,0.21488 -0.82333,0.4104 -1.03516,0.4104 -0.0604,0 -0.10986,0.0252 -0.10986,0.056 0,0.0308 0.13025,0.34664 0.28945,0.70182 0.3264,0.7282 0.3171,0.72201 0.82814,0.55412 z m -1.1736,-1.28821 c 0,-0.0135 -0.13855,-0.32317 -0.30789,-0.68801 -0.16934,-0.36485 -0.30789,-0.67891 -0.30789,-0.69793 0,-0.019 0.14485,-0.0707 0.32188,-0.11491 0.34091,-0.0851 0.58476,-0.19646 0.91774,-0.41929 0.11219,-0.0751 0.21652,-0.1365 0.23185,-0.1365 0.0153,0 0.16034,0.2886 0.32225,0.64132 0.16192,0.35273 0.31804,0.66311 0.34696,0.68975 0.0592,0.0545 0.35617,-0.21492 0.8937,-0.81075 0.18613,-0.20632 0.34376,-0.37511 0.35028,-0.37511 0.006,0 0.14603,0.29404 0.31003,0.65343 0.16399,0.35939 0.31778,0.65344 0.34175,0.65344 0.024,0 0.16365,-0.13613 0.31041,-0.30251 0.14677,-0.16639 0.4138,-0.436 0.5934,-0.59918 l 0.32657,-0.29663 -0.27358,-0.59882 c -0.15047,-0.32934 -0.29096,-0.64071 -0.31221,-0.6919 -0.0346,-0.0835 -0.0651,-0.0709 -0.29403,0.12101 -0.14047,0.11776 -0.41877,0.39381 -0.61845,0.61344 -0.19969,0.21963 -0.37163,0.39932 -0.38212,0.39932 -0.0105,0 -0.16241,-0.31697 -0.33761,-0.70437 -0.17522,-0.38741 -0.32515,-0.69778 -0.3332,-0.68975 -0.008,0.008 -0.21587,0.23246 -0.46182,0.49867 -0.24594,0.26621 -0.52175,0.5443 -0.61283,0.61794 l -0.16565,0.13394 -0.29646,-0.66637 c -0.16305,-0.36651 -0.31682,-0.68546 -0.34171,-0.70883 -0.025,-0.0234 -0.15467,0.0351 -0.28955,0.13065 -0.2713,0.19221 -0.75843,0.40312 -1.03746,0.44917 -0.10006,0.0165 -0.18194,0.0447 -0.18194,0.0627 0,0.018 0.13856,0.33115 0.3079,0.69599 0.16934,0.36485 0.30789,0.67446 0.30789,0.68801 0,0.0519 -0.55049,0.0215 -0.85591,-0.0473 -0.17579,-0.0396 -0.49597,-0.14877 -0.71153,-0.24262 -0.21554,-0.0939 -0.39189,-0.1639 -0.39189,-0.15566 0,0.008 0.14523,0.32977 0.32275,0.71455 l 0.32275,0.69957 0.41898,0.18101 c 0.23044,0.0995 0.55755,0.21247 0.72688,0.25092 0.29948,0.068 0.83969,0.10122 0.83969,0.0516 z m 7.8344,-2.66776 c -0.15803,-0.34271 -0.31498,-0.65205 -0.34876,-0.68739 -0.0943,-0.0986 -0.53034,-0.27654 -0.95605,-0.39003 -0.43349,-0.11558 -1.01756,-0.14071 -0.97164,-0.0418 0.0154,0.0333 0.16104,0.34911 0.32354,0.70182 l 0.29544,0.64132 h 0.34832 c 0.37596,0 0.9051,0.1256 1.31178,0.31136 0.13855,0.0633 0.25929,0.10894 0.26831,0.10146 0.009,-0.007 -0.11291,-0.29402 -0.27094,-0.63671 z m -9.20346,-0.22401 c 0.0148,-0.0334 -0.10951,-0.35466 -0.27629,-0.71394 -0.16679,-0.35927 -0.29157,-0.66954 -0.27731,-0.68949 0.0143,-0.02 0.0613,-0.0363 0.10449,-0.0363 0.18378,0 0.72048,-0.21541 1.03414,-0.41505 0.33421,-0.21273 0.33901,-0.21404 0.38717,-0.10588 0.20662,0.46406 0.58731,1.27568 0.60761,1.29536 0.0319,0.031 0.4305,-0.35408 0.86379,-0.83432 0.18583,-0.20598 0.3561,-0.36479 0.37836,-0.35289 0.0223,0.0119 0.17366,0.31747 0.33643,0.67906 0.16277,0.36158 0.31422,0.65109 0.33655,0.64331 0.0223,-0.008 0.24315,-0.18078 0.49072,-0.49813 0.24757,-0.31736 0.5151,-0.53622 0.59447,-0.6 l 0.14432,-0.11595 0.0521,0.11595 c 0.0287,0.0638 0.16907,0.37645 0.31201,0.69481 0.14293,0.31838 0.26892,0.5867 0.27997,0.59621 0.0111,0.01 0.14224,-0.0636 0.29151,-0.16266 0.28605,-0.18976 0.79612,-0.4069 0.95875,-0.40815 0.26958,-0.002 0.26447,-0.0602 -0.0687,-0.78088 -0.17664,-0.38207 -0.32629,-0.69931 -0.33256,-0.70499 -0.006,-0.006 -0.13618,0.0182 -0.28869,0.0531 -0.34348,0.0786 -0.65881,0.21644 -0.94275,0.4122 -0.11969,0.0825 -0.23305,0.14985 -0.25191,0.14963 -0.0189,-1.9e-4 -0.17038,-0.2997 -0.33671,-0.66555 -0.16633,-0.36583 -0.31171,-0.67467 -0.32305,-0.68633 -0.0375,-0.0384 -0.52656,0.40196 -0.87013,0.78349 -0.18577,0.20632 -0.3557,0.37512 -0.37761,0.37512 -0.0219,0 -0.17458,-0.29525 -0.33924,-0.65609 -0.16467,-0.36086 -0.31442,-0.66413 -0.33278,-0.67395 -0.0184,-0.01 -0.21356,0.18198 -0.4338,0.4262 -0.39967,0.4432 -0.78037,0.79489 -0.81771,0.75536 -0.0108,-0.0115 -0.15387,-0.31494 -0.31783,-0.6743 -0.16396,-0.35939 -0.30468,-0.66086 -0.31271,-0.66991 -0.008,-0.009 -0.14878,0.0699 -0.31278,0.17552 -0.38431,0.24744 -0.5101,0.30299 -0.89442,0.39505 l -0.31636,0.0758 0.30236,0.65134 c 0.1663,0.35825 0.30236,0.68192 0.30236,0.71926 0,0.0549 -0.071,0.0613 -0.36995,0.0336 -0.4142,-0.0384 -0.80594,-0.14394 -1.24075,-0.33446 -0.16095,-0.0705 -0.29263,-0.10969 -0.29263,-0.087 0,0.13754 0.58398,1.30774 0.69563,1.39386 0.36771,0.28366 1.77528,0.61923 1.85393,0.44199 z m 7.87787,-2.65481 -0.32303,-0.69681 -0.34692,-0.15863 c -0.57161,-0.26137 -1.58442,-0.44505 -1.58442,-0.28734 0,0.0342 0.13605,0.35551 0.30233,0.71394 l 0.30233,0.6517 0.36607,0.032 c 0.45481,0.0398 0.86854,0.14659 1.26846,0.3275 0.16934,0.0766 0.31471,0.13368 0.32303,0.12686 0.008,-0.007 -0.13023,-0.32597 -0.30789,-0.70923 z m -3.0996,-0.95922 c 0.11081,-0.0481 0.30226,-0.11389 0.42541,-0.14614 0.12316,-0.0322 0.25381,-0.0667 0.29034,-0.0765 0.044,-0.0118 -0.0377,-0.24291 -0.24263,-0.68607 -0.16998,-0.36752 -0.33131,-0.68821 -0.35852,-0.71266 -0.11479,-0.10309 -0.8064,0.15283 -1.32948,0.49195 l -0.16766,0.1087 -0.30701,-0.66341 c -0.16885,-0.36489 -0.33379,-0.67113 -0.36653,-0.6806 -0.0558,-0.0161 -0.94909,0.87852 -1.12583,1.12747 -0.0743,0.10465 -0.057,0.16524 0.22028,0.77296 0.1655,0.36268 0.3154,0.66714 0.33312,0.6766 0.0177,0.009 0.21992,-0.18797 0.44934,-0.43875 0.4227,-0.46202 0.76723,-0.78026 0.80349,-0.74216 0.0164,0.0173 0.42543,0.89426 0.6025,1.29189 0.0487,0.10926 0.0489,0.1092 0.31023,-0.0632 0.14384,-0.0949 0.35219,-0.21199 0.46301,-0.26012 z m 2.07681,-1.23727 c 0,-0.0129 -0.12714,-0.30147 -0.28253,-0.64131 -0.32028,-0.70049 -0.38303,-0.76283 -0.98765,-0.98116 -0.3794,-0.13702 -1.21267,-0.28925 -1.27731,-0.23336 -0.0163,0.0141 0.11479,0.34467 0.2913,0.73465 l 0.32092,0.70903 0.33787,5.8e-4 c 0.3529,7.7e-4 1.11826,0.1975 1.37673,0.35406 0.13198,0.0799 0.22067,0.10304 0.22067,0.0575 z"
       inkscape:connector-curvature="0"
       style="stroke-width:0.05114168" />
    <path
       id="path978-4"
       d="m 234.62788,202.27804 c -0.0326,-0.0625 -0.76027,-1.63832 -1.617,-3.50183 l -1.55767,-3.38813 -0.34436,-0.17497 c -0.62147,-0.31578 -1.35357,-0.46207 -1.88631,-0.37693 -0.80216,0.12822 -1.48582,0.63268 -2.683,1.97975 -0.87442,0.98391 -1.35116,1.39023 -1.91223,1.62983 -0.42818,0.18286 -0.44207,0.18522 -1.08017,0.18355 -0.71301,-0.002 -0.98437,-0.0666 -1.5632,-0.37276 l -0.29861,-0.15798 -1.64527,-3.58176 c -0.90491,-1.96997 -1.64539,-3.61106 -1.64554,-3.64691 -1.6e-4,-0.0447 0.092,-0.0204 0.29366,0.0774 0.70166,0.34035 1.42347,0.4876 1.93878,0.3955 0.7999,-0.14296 1.42884,-0.60357 2.59094,-1.89735 0.78016,-0.86859 1.26202,-1.32094 1.65259,-1.55144 0.80814,-0.47687 1.7918,-0.50366 2.7729,-0.0755 0.3691,0.16106 0.37946,0.163 0.37946,0.071 0,-0.0571 0.23452,-0.14174 0.40857,-0.14756 0.039,-0.001 6.7011,14.41429 6.7011,14.5002 0,0.0181 -0.0606,0.046 -0.13475,0.0621 -0.0741,0.0161 -0.17429,0.0424 -0.22262,0.0584 -0.0579,0.0192 -0.10811,-0.01 -0.14718,-0.0845 z m -10.30147,-3.81133 c 0.15352,-0.0504 0.44293,-0.19277 0.64316,-0.31631 l 0.36403,-0.22459 -0.0937,-0.20403 c -0.0515,-0.11221 -0.19699,-0.42685 -0.32323,-0.69921 l -0.22954,-0.49516 -0.33329,0.21691 c -0.33018,0.21488 -0.82333,0.4104 -1.03516,0.4104 -0.0604,0 -0.10986,0.0252 -0.10986,0.056 0,0.0308 0.13025,0.34664 0.28945,0.70182 0.3264,0.7282 0.3171,0.72201 0.82814,0.55412 z m -1.1736,-1.28821 c 0,-0.0135 -0.13855,-0.32317 -0.30789,-0.68801 -0.16934,-0.36485 -0.30789,-0.67891 -0.30789,-0.69793 0,-0.019 0.14485,-0.0707 0.32188,-0.11491 0.34091,-0.0851 0.58476,-0.19646 0.91774,-0.41929 0.11219,-0.0751 0.21652,-0.1365 0.23185,-0.1365 0.0153,0 0.16034,0.2886 0.32225,0.64132 0.16192,0.35273 0.31804,0.66311 0.34696,0.68975 0.0592,0.0545 0.35617,-0.21492 0.8937,-0.81075 0.18613,-0.20632 0.34376,-0.37511 0.35028,-0.37511 0.006,0 0.14603,0.29404 0.31003,0.65343 0.16399,0.35939 0.31778,0.65344 0.34175,0.65344 0.024,0 0.16365,-0.13613 0.31041,-0.30251 0.14677,-0.16639 0.4138,-0.436 0.5934,-0.59918 l 0.32657,-0.29663 -0.27358,-0.59882 c -0.15047,-0.32934 -0.29096,-0.64071 -0.31221,-0.6919 -0.0346,-0.0835 -0.0651,-0.0709 -0.29403,0.12101 -0.14047,0.11776 -0.41877,0.39381 -0.61845,0.61344 -0.19969,0.21963 -0.37163,0.39932 -0.38212,0.39932 -0.0105,0 -0.16241,-0.31697 -0.33761,-0.70437 -0.17522,-0.38741 -0.32515,-0.69778 -0.3332,-0.68975 -0.008,0.008 -0.21587,0.23246 -0.46182,0.49867 -0.24594,0.26621 -0.52175,0.5443 -0.61283,0.61794 l -0.16565,0.13394 -0.29646,-0.66637 c -0.16305,-0.36651 -0.31682,-0.68546 -0.34171,-0.70883 -0.025,-0.0234 -0.15467,0.0351 -0.28955,0.13065 -0.2713,0.19221 -0.75843,0.40312 -1.03746,0.44917 -0.10006,0.0165 -0.18194,0.0447 -0.18194,0.0627 0,0.018 0.13856,0.33115 0.3079,0.69599 0.16934,0.36485 0.30789,0.67446 0.30789,0.68801 0,0.0519 -0.55049,0.0215 -0.85591,-0.0473 -0.17579,-0.0396 -0.49597,-0.14877 -0.71153,-0.24262 -0.21554,-0.0939 -0.39189,-0.1639 -0.39189,-0.15566 0,0.008 0.14523,0.32977 0.32275,0.71455 l 0.32275,0.69957 0.41898,0.18101 c 0.23044,0.0995 0.55755,0.21247 0.72688,0.25092 0.29948,0.068 0.83969,0.10122 0.83969,0.0516 z m 7.8344,-2.66776 c -0.15803,-0.34271 -0.31498,-0.65205 -0.34876,-0.68739 -0.0943,-0.0986 -0.53034,-0.27654 -0.95605,-0.39003 -0.43349,-0.11558 -1.01756,-0.14071 -0.97164,-0.0418 0.0154,0.0333 0.16104,0.34911 0.32354,0.70182 l 0.29544,0.64132 h 0.34832 c 0.37596,0 0.9051,0.1256 1.31178,0.31136 0.13855,0.0633 0.25929,0.10894 0.26831,0.10146 0.009,-0.007 -0.11291,-0.29402 -0.27094,-0.63671 z m -9.20346,-0.22401 c 0.0148,-0.0334 -0.10951,-0.35466 -0.27629,-0.71394 -0.16679,-0.35927 -0.29157,-0.66954 -0.27731,-0.68949 0.0143,-0.02 0.0613,-0.0363 0.10449,-0.0363 0.18378,0 0.72048,-0.21541 1.03414,-0.41505 0.33421,-0.21273 0.33901,-0.21404 0.38717,-0.10588 0.20662,0.46406 0.58731,1.27568 0.60761,1.29536 0.0319,0.031 0.4305,-0.35408 0.86379,-0.83432 0.18583,-0.20598 0.3561,-0.36479 0.37836,-0.35289 0.0223,0.0119 0.17366,0.31747 0.33643,0.67906 0.16277,0.36158 0.31422,0.65109 0.33655,0.64331 0.0223,-0.008 0.24315,-0.18078 0.49072,-0.49813 0.24757,-0.31736 0.5151,-0.53622 0.59447,-0.6 l 0.14432,-0.11595 0.0521,0.11595 c 0.0287,0.0638 0.16907,0.37645 0.31201,0.69481 0.14293,0.31838 0.26892,0.5867 0.27997,0.59621 0.0111,0.01 0.14224,-0.0636 0.29151,-0.16266 0.28605,-0.18976 0.79612,-0.4069 0.95875,-0.40815 0.26958,-0.002 0.26447,-0.0602 -0.0687,-0.78088 -0.17664,-0.38207 -0.32629,-0.69931 -0.33256,-0.70499 -0.006,-0.006 -0.13618,0.0182 -0.28869,0.0531 -0.34348,0.0786 -0.65881,0.21644 -0.94275,0.4122 -0.11969,0.0825 -0.23305,0.14985 -0.25191,0.14963 -0.0189,-1.9e-4 -0.17038,-0.2997 -0.33671,-0.66555 -0.16633,-0.36583 -0.31171,-0.67467 -0.32305,-0.68633 -0.0375,-0.0384 -0.52656,0.40196 -0.87013,0.78349 -0.18577,0.20632 -0.3557,0.37512 -0.37761,0.37512 -0.0219,0 -0.17458,-0.29525 -0.33924,-0.65609 -0.16467,-0.36086 -0.31442,-0.66413 -0.33278,-0.67395 -0.0184,-0.01 -0.21356,0.18198 -0.4338,0.4262 -0.39967,0.4432 -0.78037,0.79489 -0.81771,0.75536 -0.0108,-0.0115 -0.15387,-0.31494 -0.31783,-0.6743 -0.16396,-0.35939 -0.30468,-0.66086 -0.31271,-0.66991 -0.008,-0.009 -0.14878,0.0699 -0.31278,0.17552 -0.38431,0.24744 -0.5101,0.30299 -0.89442,0.39505 l -0.31636,0.0758 0.30236,0.65134 c 0.1663,0.35825 0.30236,0.68192 0.30236,0.71926 0,0.0549 -0.071,0.0613 -0.36995,0.0336 -0.4142,-0.0384 -0.80594,-0.14394 -1.24075,-0.33446 -0.16095,-0.0705 -0.29263,-0.10969 -0.29263,-0.087 0,0.13754 0.58398,1.30774 0.69563,1.39386 0.36771,0.28366 1.77528,0.61923 1.85393,0.44199 z m 7.87787,-2.65481 -0.32303,-0.69681 -0.34692,-0.15863 c -0.57161,-0.26137 -1.58442,-0.44505 -1.58442,-0.28734 0,0.0342 0.13605,0.35551 0.30233,0.71394 l 0.30233,0.6517 0.36607,0.032 c 0.45481,0.0398 0.86854,0.14659 1.26846,0.3275 0.16934,0.0766 0.31471,0.13368 0.32303,0.12686 0.008,-0.007 -0.13023,-0.32597 -0.30789,-0.70923 z m -3.0996,-0.95922 c 0.11081,-0.0481 0.30226,-0.11389 0.42541,-0.14614 0.12316,-0.0322 0.25381,-0.0667 0.29034,-0.0765 0.044,-0.0118 -0.0377,-0.24291 -0.24263,-0.68607 -0.16998,-0.36752 -0.33131,-0.68821 -0.35852,-0.71266 -0.11479,-0.10309 -0.8064,0.15283 -1.32948,0.49195 l -0.16766,0.1087 -0.30701,-0.66341 c -0.16885,-0.36489 -0.33379,-0.67113 -0.36653,-0.6806 -0.0558,-0.0161 -0.94909,0.87852 -1.12583,1.12747 -0.0743,0.10465 -0.057,0.16524 0.22028,0.77296 0.1655,0.36268 0.3154,0.66714 0.33312,0.6766 0.0177,0.009 0.21992,-0.18797 0.44934,-0.43875 0.4227,-0.46202 0.76723,-0.78026 0.80349,-0.74216 0.0164,0.0173 0.42543,0.89426 0.6025,1.29189 0.0487,0.10926 0.0489,0.1092 0.31023,-0.0632 0.14384,-0.0949 0.35219,-0.21199 0.46301,-0.26012 z m 2.07681,-1.23727 c 0,-0.0129 -0.12714,-0.30147 -0.28253,-0.64131 -0.32028,-0.70049 -0.38303,-0.76283 -0.98765,-0.98116 -0.3794,-0.13702 -1.21267,-0.28925 -1.27731,-0.23336 -0.0163,0.0141 0.11479,0.34467 0.2913,0.73465 l 0.32092,0.70903 0.33787,5.8e-4 c 0.3529,7.7e-4 1.11826,0.1975 1.37673,0.35406 0.13198,0.0799 0.22067,0.10304 0.22067,0.0575 z"
       inkscape:connector-curvature="0"
       style="stroke-width:0.05114168" />
    <text
       xml:space="preserve"
       style="font-style:normal;font-weight:normal;font-size:8.99444866px;line-height:1.25;font-family:sans-serif;letter-spacing:0px;word-spacing:0px;fill:#000000;fill-opacity:1;stroke:none;stroke-width:0.2248612"
       x="152.81386"
       y="252.56355"
       id="text854-5-7-3-8-2"><tspan
         sodipodi:role="line"
         id="tspan852-5-1-0-2-6"
         x="152.81386"
         y="252.56355"
         style="font-style:normal;font-variant:normal;font-weight:normal;font-stretch:normal;font-size:8.99462795px;font-family:'Open Sans';-inkscape-font-specification:'Open Sans, Normal';font-variant-ligatures:normal;font-variant-caps:normal;font-variant-numeric:normal;font-feature-settings:normal;text-align:start;writing-mode:lr-tb;text-anchor:start;fill:#000000;stroke-width:0.2248612">3</tspan></text>
    <text
       xml:space="preserve"
       style="font-style:normal;font-weight:normal;font-size:8.99444866px;line-height:1.25;font-family:sans-serif;letter-spacing:0px;word-spacing:0px;fill:#000000;fill-opacity:1;stroke:none;stroke-width:0.2248612"
       x="168.65175"
       y="252.57893"
       id="text854-5-7-3-8-8"><tspan
         sodipodi:role="line"
         id="tspan852-5-1-0-2-1"
         x="168.65175"
         y="252.57893"
         style="font-style:normal;font-variant:normal;font-weight:normal;font-stretch:normal;font-size:8.99462795px;font-family:'Open Sans';-inkscape-font-specification:'Open Sans, Normal';font-variant-ligatures:normal;font-variant-caps:normal;font-variant-numeric:normal;font-feature-settings:normal;text-align:start;writing-mode:lr-tb;text-anchor:start;fill:#000000;stroke-width:0.2248612">4</tspan></text>
    <text
       xml:space="preserve"
       style="font-style:normal;font-weight:normal;font-size:8.99444866px;line-height:1.25;font-family:sans-serif;letter-spacing:0px;word-spacing:0px;fill:#000000;fill-opacity:1;stroke:none;stroke-width:0.2248612"
       x="200.42194"
       y="252.51744"
       id="text854-5-7-3-8-7"><tspan
         sodipodi:role="line"
         id="tspan852-5-1-0-2-0"
         x="200.42194"
         y="252.51744"
         style="font-style:normal;font-variant:normal;font-weight:normal;font-stretch:normal;font-size:8.99462795px;font-family:'Open Sans';-inkscape-font-specification:'Open Sans, Normal';font-variant-ligatures:normal;font-variant-caps:normal;font-variant-numeric:normal;font-feature-settings:normal;text-align:start;writing-mode:lr-tb;text-anchor:start;fill:#000000;stroke-width:0.2248612">5</tspan></text>
    <text
       xml:space="preserve"
       style="font-style:normal;font-weight:normal;font-size:8.99444866px;line-height:1.25;font-family:sans-serif;letter-spacing:0px;word-spacing:0px;fill:#000000;fill-opacity:1;stroke:none;stroke-width:0.2248612"
       x="216.31691"
       y="252.56355"
       id="text854-5-7-3-8-7-6"><tspan
         sodipodi:role="line"
         id="tspan852-5-1-0-2-0-6"
         x="216.31691"
         y="252.56355"
         style="font-style:normal;font-variant:normal;font-weight:normal;font-stretch:normal;font-size:8.99462795px;font-family:'Open Sans';-inkscape-font-specification:'Open Sans, Normal';font-variant-ligatures:normal;font-variant-caps:normal;font-variant-numeric:normal;font-feature-settings:normal;text-align:start;writing-mode:lr-tb;text-anchor:start;fill:#000000;stroke-width:0.2248612">6</tspan></text>
    <text
       xml:space="preserve"
       style="font-style:normal;font-weight:normal;font-size:8.99444866px;line-height:1.25;font-family:sans-serif;letter-spacing:0px;word-spacing:0px;fill:#000000;fill-opacity:1;stroke:none;stroke-width:0.2248612"
       x="184.57747"
       y="252.56136"
       id="text854-5-7-3-8-7-0"><tspan
         sodipodi:role="line"
         id="tspan852-5-1-0-2-0-1"
         x="184.57747"
         y="252.56136"
         style="font-style:normal;font-variant:normal;font-weight:normal;font-stretch:normal;font-size:8.99462795px;font-family:'Open Sans';-inkscape-font-specification:'Open Sans, Normal';font-variant-ligatures:normal;font-variant-caps:normal;font-variant-numeric:normal;font-feature-settings:normal;text-align:start;writing-mode:lr-tb;text-anchor:start;fill:#000000;stroke-width:0.2248612">7</tspan></text>
    <text
       xml:space="preserve"
       style="font-style:normal;font-weight:normal;font-size:8.99444866px;line-height:1.25;font-family:sans-serif;letter-spacing:0px;word-spacing:0px;fill:#000000;fill-opacity:1;stroke:none;stroke-width:0.2248612"
       x="232.25774"
       y="252.56355"
       id="text854-5-7-3-8-7-1"><tspan
         sodipodi:role="line"
         id="tspan852-5-1-0-2-0-8"
         x="232.25774"
         y="252.56355"
         style="font-style:normal;font-variant:normal;font-weight:normal;font-stretch:normal;font-size:8.99462795px;font-family:'Open Sans';-inkscape-font-specification:'Open Sans, Normal';font-variant-ligatures:normal;font-variant-caps:normal;font-variant-numeric:normal;font-feature-settings:normal;text-align:start;writing-mode:lr-tb;text-anchor:start;fill:#000000;stroke-width:0.2248612">8</tspan></text>
    <text
       xml:space="preserve"
       style="font-style:normal;font-weight:normal;font-size:8.99444866px;line-height:1.25;font-family:sans-serif;letter-spacing:0px;word-spacing:0px;fill:#000000;fill-opacity:1;stroke:none;stroke-width:0.2248612"
       x="248.16103"
       y="252.56355"
       id="text854-5-7-3-8-7-9"><tspan
         sodipodi:role="line"
         id="tspan852-5-1-0-2-0-7"
         x="248.16103"
         y="252.56355"
         style="font-style:normal;font-variant:normal;font-weight:normal;font-stretch:normal;font-size:8.99462795px;font-family:'Open Sans';-inkscape-font-specification:'Open Sans, Normal';font-variant-ligatures:normal;font-variant-caps:normal;font-variant-numeric:normal;font-feature-settings:normal;text-align:start;writing-mode:lr-tb;text-anchor:start;fill:#000000;stroke-width:0.2248612">9</tspan></text>
    <text
       xml:space="preserve"
       style="font-style:normal;font-weight:normal;font-size:8.99444866px;line-height:1.25;font-family:sans-serif;letter-spacing:0px;word-spacing:0px;fill:#000000;fill-opacity:1;stroke:none;stroke-width:0.2248612"
       x="261.28891"
       y="252.56795"
       id="text854-5-7-3-8-7-5"><tspan
         sodipodi:role="line"
         x="261.28891"
         y="252.56795"
         style="font-style:normal;font-variant:normal;font-weight:normal;font-stretch:normal;font-size:8.99462795px;font-family:'Open Sans';-inkscape-font-specification:'Open Sans, Normal';font-variant-ligatures:normal;font-variant-caps:normal;font-variant-numeric:normal;font-feature-settings:normal;text-align:start;writing-mode:lr-tb;text-anchor:start;fill:#000000;stroke-width:0.2248612"
         id="tspan1236">10</tspan></text>
    <text
       xml:space="preserve"
       style="font-style:normal;font-weight:normal;font-size:8.99444866px;line-height:1.25;font-family:sans-serif;letter-spacing:0px;word-spacing:0px;fill:#000000;fill-opacity:1;stroke:none;stroke-width:0.2248612"
       x="277.96564"
       y="252.56136"
       id="text854-5-7-3-8-7-8"><tspan
         sodipodi:role="line"
         id="tspan852-5-1-0-2-0-3"
         x="277.96564"
         y="252.56136"
         style="font-style:normal;font-variant:normal;font-weight:normal;font-stretch:normal;font-size:8.99462795px;font-family:'Open Sans';-inkscape-font-specification:'Open Sans, Normal';font-variant-ligatures:normal;font-variant-caps:normal;font-variant-numeric:normal;font-feature-settings:normal;text-align:start;writing-mode:lr-tb;text-anchor:start;fill:#000000;stroke-width:0.2248612">11</tspan></text>
    <path
       style="fill:none;stroke:#000000;stroke-width:0.24013913px;stroke-linecap:butt;stroke-linejoin:miter;stroke-opacity:1"
       d="m 335.92933,243.25011 0.34307,31.56115"
       id="path1252"
       inkscape:connector-curvature="0" />
    <path
       style="fill:none;stroke:#000000;stroke-width:0.24013913px;stroke-linecap:butt;stroke-linejoin:miter;stroke-opacity:1;marker-start:url(#Arrow2Lstart)"
       d="m 88.347119,243.55918 0.343067,31.56115"
       id="path1252-3"
       inkscape:connector-curvature="0" />
    <path
       style="fill:none;stroke:#000000;stroke-width:0.23421106px;stroke-linecap:butt;stroke-linejoin:miter;stroke-opacity:1"
       d="M 88.690186,275.12033 336.2724,274.81126"
       id="path1733"
       inkscape:connector-curvature="0" />
    <g
       id="g2327"
       transform="translate(10.114389,-0.90484234)">
      <text
         id="text854-5-7-7"
         y="272.46738"
         x="185.81277"
         style="font-style:normal;font-weight:normal;font-size:8.99444866px;line-height:1.25;font-family:sans-serif;letter-spacing:0px;word-spacing:0px;fill:#000000;fill-opacity:1;stroke:none;stroke-width:0.2248612"
         xml:space="preserve"><tspan
           id="tspan1248-6"
           style="font-style:normal;font-variant:normal;font-weight:normal;font-stretch:normal;font-size:8.99462795px;font-family:'Open Sans';-inkscape-font-specification:'Open Sans, Normal';font-variant-ligatures:normal;font-variant-caps:normal;font-variant-numeric:normal;font-feature-settings:normal;text-align:start;writing-mode:lr-tb;text-anchor:start;fill:#000000;stroke-width:0.2248612"
           y="272.46738"
           x="185.81277"
           sodipodi:role="line">Wiederholen,</tspan><tspan
           id="tspan1779"
           style="font-style:normal;font-variant:normal;font-weight:normal;font-stretch:normal;font-size:8.99462795px;font-family:'Open Sans';-inkscape-font-specification:'Open Sans, Normal';font-variant-ligatures:normal;font-variant-caps:normal;font-variant-numeric:normal;font-feature-settings:normal;text-align:start;writing-mode:lr-tb;text-anchor:start;fill:#000000;stroke-width:0.2248612"
           y="283.9469"
           x="185.81277"
           sodipodi:role="line">lebenslang</tspan></text>
      <path
         style="fill:#ff6600;fill-opacity:1;stroke-width:0.03173887"
         inkscape:connector-curvature="0"
         d="m 166.81572,280.01528 c -0.21261,0.38184 -0.38184,0.95638 -0.38184,1.3184 0,0.0841 0,0.19094 0.0208,0.33923 l -2.65736,-4.57008 c -0.085,-0.1483 -0.14845,-0.36104 -0.14845,-0.55272 0,-0.19191 0.0634,-0.42522 0.14845,-0.57377 l 1.27574,-2.23212 -1.42416,-0.80712 4.63452,-0.0858 2.25294,4.05972 -1.44496,-0.82892 -2.27556,3.93308 z m 2.04123,-12.88154 c 0.40356,-0.70222 1.06313,-1.08483 1.87025,-1.08483 0.87218,0 1.55259,0.4044 2.04118,1.23235 l 0.72292,1.21154 -2.50898,4.33743 -4.05972,-2.35986 1.93448,-3.3367 z m 0.29679,16.5588 c -1.21154,0 -2.21045,-0.99905 -2.21045,-2.21054 0,-0.34022 0.14925,-0.91471 0.36189,-1.27575 l 0.67952,-1.21154 h 5.03887 v 4.698 h -3.86961 z m 4.04004,-16.68703 c -0.31853,-0.55197 -0.74376,-0.93558 -1.25407,-1.14831 h 5.22899 c 0.46776,0 0.8288,0.19193 1.0423,0.55369 l 1.2966,2.21053 1.40257,-0.82967 -2.25396,4.03972 -4.61167,-0.065 1.42415,-0.80713 -2.27462,-3.95403 z m 8.05722,12.03189 c 0.63701,0 1.16902,-0.17008 1.61511,-0.50957 l -2.63654,4.59103 c -0.21262,0.36104 -0.59448,0.57377 -1.0407,0.57377 h -2.48817 v 1.63678 l -2.38054,-3.97466 2.38054,-3.97594 v 1.65863 h 4.5504 z m 2.03949,-3.82644 c 0.1918,0.34022 0.29853,0.70124 0.29853,1.08408 0,0.76544 -0.48947,1.5733 -1.169,1.95517 -0.31935,0.17111 -0.76633,0.27772 -1.21154,0.27772 h -1.40418 l -2.50738,-4.33743 4.06005,-2.3172 1.93358,3.33766 z"
         id="path1768" />
    </g>
    <path
       style="fill:#ff6600;fill-opacity:1;stroke:#000000;stroke-width:0.53900617px;stroke-linecap:butt;stroke-linejoin:miter;stroke-opacity:1"
       d="m 116.34114,202.43546 h 11.2736 l 20.46461,20.4646 -20.07958,20.07958 h -11.27362 l 20.07959,-20.07958 z"
       id="path1488-7"
       inkscape:connector-curvature="0" />
    <text
       xml:space="preserve"
       style="font-style:normal;font-weight:normal;font-size:8.99444866px;line-height:1.25;font-family:sans-serif;letter-spacing:0px;word-spacing:0px;fill:#000000;fill-opacity:1;stroke:none;stroke-width:0.2248612"
       x="119.78489"
       y="252.60748"
       id="text854-5-7-3-8-4"><tspan
         sodipodi:role="line"
         id="tspan852-5-1-0-2-08"
         x="119.78489"
         y="252.60748"
         style="font-style:normal;font-variant:normal;font-weight:normal;font-stretch:normal;font-size:8.99462795px;font-family:'Open Sans';-inkscape-font-specification:'Open Sans, Normal';font-variant-ligatures:normal;font-variant-caps:normal;font-variant-numeric:normal;font-feature-settings:normal;text-align:start;writing-mode:lr-tb;text-anchor:start;fill:#000000;stroke-width:0.2248612">1</tspan></text>
  </g>
</svg>
