<?xml version="1.0" encoding="UTF-8" standalone="no"?>
<!-- Created with Inkscape (http://www.inkscape.org/) -->

<svg
   xmlns:dc="http://purl.org/dc/elements/1.1/"
   xmlns:cc="http://creativecommons.org/ns#"
   xmlns:rdf="http://www.w3.org/1999/02/22-rdf-syntax-ns#"
   xmlns:svg="http://www.w3.org/2000/svg"
   xmlns="http://www.w3.org/2000/svg"
   xmlns:sodipodi="http://sodipodi.sourceforge.net/DTD/sodipodi-0.dtd"
   xmlns:inkscape="http://www.inkscape.org/namespaces/inkscape"
   width="1600"
   height="900"
   viewBox="0 0 423.33332 238.12505"
   version="1.1"
   id="svg311"
   inkscape:version="0.92.3 (2405546, 2018-03-11)"
   sodipodi:docname="lernOS-Skillset.svg"
   inkscape:export-filename="C:\Users\SimonDückert\OneDrive - Cogneon GmbH\Dokumente\GitHub\lernos\lernOS Guide\de\images\lernOS-Skillset.png"
   inkscape:export-xdpi="96"
   inkscape:export-ydpi="96">
  <defs
     id="defs305" />
  <sodipodi:namedview
     id="base"
     pagecolor="#ffffff"
     bordercolor="#666666"
     borderopacity="1.0"
     inkscape:pageopacity="1"
     inkscape:pageshadow="2"
     inkscape:zoom="0.7"
     inkscape:cx="690.38462"
     inkscape:cy="411.11502"
     inkscape:document-units="mm"
     inkscape:current-layer="layer1"
     showgrid="false"
     inkscape:window-width="1920"
     inkscape:window-height="1013"
     inkscape:window-x="-9"
     inkscape:window-y="-9"
     inkscape:window-maximized="1"
     units="px"
     showguides="false" />
  <metadata
     id="metadata308">
    <rdf:RDF>
      <cc:Work
         rdf:about="">
        <dc:format>image/svg+xml</dc:format>
        <dc:type
           rdf:resource="http://purl.org/dc/dcmitype/StillImage" />
        <dc:title />
      </cc:Work>
    </rdf:RDF>
  </metadata>
  <g
     inkscape:label="Ebene 1"
     inkscape:groupmode="layer"
     id="layer1"
     transform="translate(0,-58.874969)">
    <text
       xml:space="preserve"
       style="font-style:normal;font-variant:normal;font-weight:600;font-stretch:normal;font-size:10.58333302px;line-height:1.25;font-family:'Open Sans';-inkscape-font-specification:'Open Sans, Semi-Bold';font-variant-ligatures:normal;font-variant-caps:normal;font-variant-numeric:normal;font-feature-settings:normal;text-align:start;letter-spacing:0px;word-spacing:0px;writing-mode:lr-tb;text-anchor:start;fill:#000000;fill-opacity:1;stroke:none;stroke-width:0.37885991"
       x="75.092934"
       y="96.951485"
       id="text854"><tspan
         sodipodi:role="line"
         id="tspan852"
         x="75.092934"
         y="96.951485"
         style="font-style:normal;font-variant:normal;font-weight:600;font-stretch:normal;font-size:10.58333302px;font-family:'Open Sans';-inkscape-font-specification:'Open Sans, Semi-Bold';font-variant-ligatures:normal;font-variant-caps:normal;font-variant-numeric:normal;font-feature-settings:normal;text-align:start;writing-mode:lr-tb;text-anchor:start;fill:#000000;stroke-width:0.37885991">lernOS Skillset</tspan></text>
    <g
       id="layer2"
       inkscape:label="Layer"
       transform="matrix(0.36842994,0,0,0.36842994,-58.948556,-85.350361)" />
    <g
       id="g4167"
       transform="translate(-1.1339286,-0.74840858)">
      <rect
         y="148.9427"
         x="75.94902"
         height="32.524029"
         width="328.74048"
         id="rect910-3-5"
         style="opacity:1;fill:#ff6600;fill-opacity:1;stroke:#000000;stroke-width:1.25953281;stroke-miterlimit:4;stroke-dasharray:none;stroke-dashoffset:0;stroke-opacity:1" />
      <g
         style="fill:#ffffff"
         transform="matrix(1.7937208,0,0,1.7937208,57.463927,-9.5006384)"
         id="g940-9-0">
        <text
           xml:space="preserve"
           style="font-style:normal;font-weight:normal;font-size:7.43887758px;line-height:1.25;font-family:sans-serif;letter-spacing:0px;word-spacing:0px;fill:#ffffff;fill-opacity:1;stroke:none;stroke-width:0.18597192"
           x="13.595558"
           y="99.330658"
           id="text854-4-0-2"><tspan
             sodipodi:role="line"
             id="tspan852-1-1-9"
             x="13.595558"
             y="99.330658"
             style="font-style:normal;font-variant:normal;font-weight:bold;font-stretch:normal;font-size:7.43887758px;font-family:'Open Sans';-inkscape-font-specification:'Open Sans, Bold';font-variant-ligatures:normal;font-variant-caps:normal;font-variant-numeric:normal;font-feature-settings:normal;text-align:start;writing-mode:lr-tb;text-anchor:start;fill:#ffffff;stroke-width:0.18597192">Kritisches Denken &amp; Problemlösen</tspan></text>
      </g>
    </g>
    <g
       id="g4173"
       transform="translate(-1.1339286,3.3267787)">
      <rect
         y="181.65721"
         x="76.039146"
         height="32.524029"
         width="328.74048"
         id="rect910-3-3"
         style="opacity:1;fill:#ff6600;fill-opacity:1;stroke:#000000;stroke-width:1.25953269;stroke-miterlimit:4;stroke-dasharray:none;stroke-dashoffset:0;stroke-opacity:1" />
      <g
         style="fill:#ffffff"
         transform="matrix(1.7937208,0,0,1.7937208,56.420127,24.751482)"
         id="g940-9-7">
        <text
           xml:space="preserve"
           style="font-style:normal;font-weight:normal;font-size:7.43887758px;line-height:1.25;font-family:sans-serif;letter-spacing:0px;word-spacing:0px;fill:#ffffff;fill-opacity:1;stroke:none;stroke-width:0.18597192"
           x="13.595558"
           y="99.330658"
           id="text854-4-0-5"><tspan
             sodipodi:role="line"
             id="tspan852-1-1-7"
             x="13.595558"
             y="99.330658"
             style="font-style:normal;font-variant:normal;font-weight:bold;font-stretch:normal;font-size:7.43887758px;font-family:'Open Sans';-inkscape-font-specification:'Open Sans, Bold';font-variant-ligatures:normal;font-variant-caps:normal;font-variant-numeric:normal;font-feature-settings:normal;text-align:start;writing-mode:lr-tb;text-anchor:start;fill:#ffffff;stroke-width:0.18597192">Kommunikation</tspan></text>
      </g>
    </g>
    <g
       id="g4179"
       transform="translate(-1.1339286,-4.9136905)">
      <rect
         y="226.68738"
         x="75.57106"
         height="32.524029"
         width="328.74048"
         id="rect910-3-3-4"
         style="opacity:1;fill:#ff6600;fill-opacity:1;stroke:#000000;stroke-width:1.25953269;stroke-miterlimit:4;stroke-dasharray:none;stroke-dashoffset:0;stroke-opacity:1" />
      <g
         style="fill:#ffffff"
         transform="matrix(1.7937208,0,0,1.7937208,58.219896,69.781633)"
         id="g940-9-7-3">
        <text
           xml:space="preserve"
           style="font-style:normal;font-weight:normal;font-size:7.43887758px;line-height:1.25;font-family:sans-serif;letter-spacing:0px;word-spacing:0px;fill:#ffffff;fill-opacity:1;stroke:none;stroke-width:0.18597192"
           x="13.595558"
           y="99.330658"
           id="text854-4-0-5-5"><tspan
             sodipodi:role="line"
             id="tspan852-1-1-7-4"
             x="13.595558"
             y="99.330658"
             style="font-style:normal;font-variant:normal;font-weight:bold;font-stretch:normal;font-size:7.43887758px;font-family:'Open Sans';-inkscape-font-specification:'Open Sans, Bold';font-variant-ligatures:normal;font-variant-caps:normal;font-variant-numeric:normal;font-feature-settings:normal;text-align:start;writing-mode:lr-tb;text-anchor:start;fill:#ffffff;stroke-width:0.18597192">Kollaboration</tspan></text>
      </g>
    </g>
    <path
       style="fill:#333333;fill-opacity:1;stroke:none;stroke-width:0.00823996"
       d="m 8.7534174,124.78259 c 0.0414,0.0577 0.63737,11.88446 0.75275,12.23049 0.20596,0.64277 0.33716,1.57484 0.42782,3.04981 0.0824,1.5326 0.2886996,2.60291 1.5740896,8.15663 0.68396,2.97467 1.59069,5.85123 2.5877,8.24907 0.60153,1.44202 0.74149,2.018 0.74978,2.95738 0,1.17008 -0.18166,1.87945 -1.12095,4.42564 -0.53556,1.45846 -0.79106,2.34054 -1.03001,3.61771 -0.0989,0.50269 -0.42766,1.7301 -0.74084,2.71889 -0.31309,0.98881 -0.58566,1.95327 -0.61859,2.13456 -0.12353,0.87343 -0.12381,1.24407 -0.008,2.38945 0.22239,2.10117 0.17284,3.03981 -0.24744,4.8609 -0.0989,0.45319 -0.23,1.10511 -0.28769,1.44292 -0.0576,0.3378 -0.25558,1.09561 -0.43675,1.68886 -0.29662,0.96408 -0.32943,1.15351 -0.32943,1.93631 0,0.74983 0.0486,1.03788 0.33688,2.14201 0.18114,0.70043 0.4132,1.77971 0.50383,2.38945 0.0905,0.61799 0.31217,1.80471 0.49339,2.6369 0.29668,1.43378 0.35417,1.74724 0.46955,2.88435 0.0824,0.857 0.28081,1.90266 0.44569,2.36413 0.0825,0.2472 0.40318,0.84873 0.70804,1.32663 1.07122,1.66447 1.19481,2.31533 1.18653,6.07277 -0.0173,3.32068 0.0414,3.86478 0.7006,7.33382 0.51084,2.6368 0.54344,2.96692 0.51872,5.06808 -0.0329,3.65036 -0.007,5.64376 0.0834,6.4678 0.0824,0.77453 0.0735,5.67018 -0.0179,6.13983 -0.0173,0.11546 -0.0581,0.57678 -0.0909,1.03003 -0.0412,0.74985 -0.1485,2.04263 -0.24744,3.13029 -0.0173,0.22239 -0.0572,0.69211 -0.082,1.03001 -0.0259,0.3378 -0.0824,1.13785 -0.1401,1.77234 -0.13189,1.57384 -0.0985,11.77458 0.0582,15.86163 0.0173,0.47793 0.0575,1.77196 0.082,2.88434 0.0412,1.96107 0.17331,4.76989 0.24744,5.51975 0.0173,0.20595 0.0572,0.60964 0.082,0.90628 0.32953,3.37834 1.12091,6.25429 2.30749,8.39664 0.56031,1.01354 0.93123,1.48412 2.18375,2.76958 0.76627,0.78275 1.40848,1.55625 2.03467,2.42969 1.52443,2.12594 2.16764,2.76979 3.74146,3.75038 1.66447,1.03002 2.6525,1.37573 3.98738,1.39224 0.78279,0.009 0.96479,-0.0171 1.33559,-0.1893 0.23885,-0.10709 0.57744,-0.35457 0.75873,-0.54409 0.61804,-0.67569 0.74894,-1.26876 0.77364,-3.43588 0.0173,-1.77162 0.0494,-1.88777 0.57686,-2.20908 0.42025,-0.26363 0.93129,-0.21399 2.18375,0.21464 1.41733,0.46967 1.969899,0.58556 3.148179,0.65143 0.65928,0.0329 1.52324,0.17219 2.88287,0.46058 2.53796,0.53562 2.85204,0.6272 4.9697,1.44293 2.982874,1.14538 3.848363,1.35968 5.413906,1.31024 0.988819,-0.0329 1.655569,-0.16595 2.34773,-0.48742 1.219509,-0.55204 1.730689,-1.70541 1.277448,-2.859 -0.362519,-0.92286 -0.94782,-1.56553 -3.197379,-3.5596 -1.919869,-1.68919 -4.507841,-4.13649 -5.785069,-5.46311 -1.474916,-1.53261 -1.631446,-2.15839 -1.046426,-4.07831 0.57677,-1.89513 0.78422,-3.03295 1.344555,-7.40836 0.453179,-3.55973 0.715749,-4.67145 2.133069,-8.98095 1.17004,-3.56792 1.655971,-5.33187 2.26573,-8.29824 0.609772,-2.95817 1.19567,-7.21772 1.44291,-10.44774 0.0259,-0.36261 0.0653,-0.79152 0.082,-0.94804 0.0412,-0.36258 0.18139,-2.53811 0.247452,-3.79061 0.0259,-0.51911 0.0656,-1.25984 0.082,-1.64714 0.0412,-0.86521 0.132879,-3.25551 0.256389,-7.37557 0.0329,-0.95577 0.0649,-2.90022 0.073,-4.32575 l 0.008,-2.59517 0.313021,-1.15374 c 0.29664,-1.09593 0.314169,-1.2436 0.380111,-2.92458 0.0329,-0.97228 0.12324,-2.21679 0.189309,-2.76062 0.0741,-0.54386 0.147471,-1.43423 0.180369,-1.97803 0.0259,-0.54392 0.0742,-1.13642 0.0909,-1.31772 0.0822,-0.60147 0.0989,-9.12993 0.0329,-10.17642 -0.0657,-0.89815 -0.16492,-1.68077 -0.40396,-3.13925 -0.0329,-0.20596 -0.0737,-0.6512 -0.082,-0.98083 -0.0173,-0.59324 -0.01741,-0.60178 0.172911,-0.54407 0.510809,0.14827 0.930918,0.13967 1.219308,-0.0179 0.35437,-0.19759 0.709692,-0.83946 0.83325,-1.53981 0.10696,-0.5686 0.049,-2.96776 -0.0909,-3.87411 -0.0493,-0.3214 -0.0915,-1.03826 -0.0999,-1.60688 0,-1.30188 0.198779,-2.30625 0.80046,-4.03658 0.238839,-0.70043 0.683519,-1.98567 0.971891,-2.84261 0.650968,-1.8705 1.062678,-3.79986 1.252109,-5.81042 0.0259,-0.29661 0.0656,-0.62546 0.082,-0.74083 0.0173,-0.11545 0.0587,-0.54423 0.0834,-0.94804 0.0259,-0.41196 0.0664,-0.97121 0.0909,-1.25957 0.14024,-1.48319 0.172331,-2.95009 0.16397,-6.32021 -0.0259,-4.26832 0.0582,-3.72576 -0.988301,-6.84042 -0.700328,-2.06823 -0.832408,-2.62725 -0.997219,-4.2423 -0.5274,-5.24884 -0.675349,-6.06503 -1.68886,-9.51757 -0.62626,-2.12589 -0.84981,-3.02453 -1.11348,-4.49122 -0.32965,-1.8375 -0.436869,-2.14275 -1.450369,-3.91436 -0.321371,-0.56854 -0.667091,-1.30886 -0.798981,-1.72911 -0.32136,-0.99707 -0.45267,-1.23666 -0.83176,-1.49212 -0.379029,-0.2472 -0.709359,-0.84009 -1.03895,-1.84538 -0.609769,-1.85399 -1.102929,-2.44703 -2.759131,-3.29575 -1.409038,-0.72513 -2.274263,-1.92826 -2.653303,-3.6669 -0.17307,-0.78278 -0.18247,-1.00582 -0.1744,-4.61495 0.0173,-4.21061 0.01,-4.38358 -0.55898,-7.539528 -0.53559,-2.99111 -0.88211,-5.0507 -1.10453,-6.57511 -0.73336,-5.067552 -1.99491,-7.902502 -4.40925,-9.970722 -2.315369,-1.96938 -5.223309,-2.96606 -7.983719,-2.71889 -2.52142,0.22241 -4.56506,1.4007 -6.1801,3.55959 -2.23304,2.97456 -3.40358,6.88768 -4.33471,14.509662 -0.0259,0.18114 -0.0571,0.462 -0.082,0.61859 -0.0173,0.15663 -0.0572,0.49516 -0.082,0.74233 -0.0741,0.675686 -0.12494,1.128686 -0.20719,1.812588 -0.0412,0.33789 -0.0978,0.84004 -0.12225,1.11199 -0.0259,0.27201 -0.067,0.62598 -0.0834,0.78257 -0.0259,0.15664 -0.0982,0.76619 -0.16397,1.35945 -0.1895,1.60676 -0.445,3.31279 -0.57686,3.91435 -0.46148,2.08464 -1.26905,2.99877 -3.09005,3.50146 -2.61213,0.71683 -3.74114,1.3353 -4.97716,2.71142 -0.32953,0.3708 -2.7597596,3.26704 -2.1688396,10.80844 z m 24.7993596,84.66842 0.40396,0.53661 c 0.28008,0.37082 0.51837,0.82282 0.74084,1.41609 h 10e-4 c 0.60155,1.59856 0.74074,2.28299 0.75725,3.72505 0.008,1.12058 -0.0659,2.6534 -0.15652,3.23016 -0.0259,0.18952 -0.0817,1.03771 -0.16398,2.45505 -0.0259,0.42843 -0.067,0.96473 -0.0834,1.19546 -0.0259,0.2224 -0.0741,1.11135 -0.12367,1.97657 -0.0412,0.85693 -0.10639,1.87994 -0.13118,2.26722 -0.0329,0.3873 -0.0662,3.3124 -0.0745,6.50952 -0.0173,5.61142 -0.0409,6.55915 -0.20571,8.24012 -0.0412,0.42846 -0.0915,1.00409 -0.1163,1.27596 -0.11532,1.29367 -0.14698,1.61552 -0.26236,2.27467 -0.14024,0.87344 -0.31338,1.43445 -0.52767,1.78875 -0.15663,0.25556 -0.37071,0.41187 -0.45314,0.32942 -0.0259,-0.0259 -0.0997,-0.59431 -0.16546,-1.27 -0.33788,-3.18058 -0.88888,-7.11055 -1.24318,-8.80805 -0.37081,-1.75504 -0.52774,-3.42719 -0.65139,-6.92091 -0.099,-2.80162 -0.25614,-4.40123 -0.4949,-5.10984 -0.10695,-0.32134 -0.3782,-0.98879 -0.60071,-1.48315 -0.59326,-1.30191 -0.70887,-1.74655 -0.70059,-2.71889 0,-0.97232 0.0987,-1.54028 0.48593,-2.9246 0.35434,-1.25245 0.74894,-2.09275 1.80366,-3.87261 1.02178,-1.72215 1.4594,-2.58042 1.73955,-3.43735 z"
       id="path1641-3"
       inkscape:connector-curvature="0"
       sodipodi:nodetypes="cccccccccccscsccccccccccccccccccccccccccccccccccccccccccccccccccccccccccccccccccccccccccccccccccccccccccccccccccccccccccccccscccccccccccc" />
    <g
       id="g4161"
       transform="translate(-1.1339286,-4.9136905)">
      <rect
         y="116.31829"
         x="75.949028"
         height="32.524029"
         width="328.74048"
         id="rect910-3-5-2"
         style="opacity:1;fill:#ff6600;fill-opacity:1;stroke:#000000;stroke-width:1.25953281;stroke-miterlimit:4;stroke-dasharray:none;stroke-dashoffset:0;stroke-opacity:1" />
      <g
         style="fill:#ffffff"
         transform="matrix(1.7937208,0,0,1.7937208,57.085974,-42.125036)"
         id="g940-9-0-1">
        <text
           xml:space="preserve"
           style="font-style:normal;font-weight:normal;font-size:7.43887758px;line-height:1.25;font-family:sans-serif;letter-spacing:0px;word-spacing:0px;fill:#ffffff;fill-opacity:1;stroke:none;stroke-width:0.18597192"
           x="13.595558"
           y="99.330658"
           id="text854-4-0-2-2"><tspan
             sodipodi:role="line"
             id="tspan852-1-1-9-5"
             x="13.595558"
             y="99.330658"
             style="font-style:normal;font-variant:normal;font-weight:bold;font-stretch:normal;font-size:7.43887758px;font-family:'Open Sans';-inkscape-font-specification:'Open Sans, Bold';font-variant-ligatures:normal;font-variant-caps:normal;font-variant-numeric:normal;font-feature-settings:normal;text-align:start;writing-mode:lr-tb;text-anchor:start;fill:#ffffff;stroke-width:0.18597192">Kreativität &amp; Innovation</tspan></text>
      </g>
    </g>
    <rect
       style="opacity:0.97000002;fill:#333333;fill-opacity:1;stroke:#000000;stroke-width:0.94732344;stroke-miterlimit:4;stroke-dasharray:none;stroke-dashoffset:0;stroke-opacity:1"
       id="rect910-3-5-2-8"
       width="38.687611"
       height="156.33751"
       x="357.83572"
       y="104.46151" />
    <g
       id="g940-9-0-1-8"
       transform="matrix(0,1.7937208,-1.7937208,0,600.66189,145.6598)"
       style="opacity:0.97000002;fill:#ffffff">
      <text
         id="text854-4-0-2-2-7"
         y="127.14594"
         x="-19.614216"
         style="font-style:normal;font-variant:normal;font-weight:bold;font-stretch:normal;font-size:9.83368683px;line-height:1.25;font-family:'Open Sans';-inkscape-font-specification:'Open Sans, Bold';font-variant-ligatures:normal;font-variant-caps:normal;font-variant-numeric:normal;font-feature-settings:normal;text-align:start;letter-spacing:0px;word-spacing:0px;writing-mode:lr-tb;text-anchor:start;fill:#ffffff;fill-opacity:1;stroke:none;stroke-width:0.18597192"
         xml:space="preserve"><tspan
           style="font-style:normal;font-variant:normal;font-weight:bold;font-stretch:normal;font-size:9.83368683px;font-family:'Open Sans';-inkscape-font-specification:'Open Sans, Bold';font-variant-ligatures:normal;font-variant-caps:normal;font-variant-numeric:normal;font-feature-settings:normal;text-align:start;writing-mode:lr-tb;text-anchor:start;fill:#ffffff;stroke-width:0.18597192"
           y="127.14594"
           x="-19.614216"
           sodipodi:role="line"
           id="tspan5027">Digitale Literacy</tspan></text>
    </g>
  </g>
</svg>
