<?xml version="1.0" encoding="UTF-8" standalone="no"?>
<svg
   xmlns:dc="http://purl.org/dc/elements/1.1/"
   xmlns:cc="http://creativecommons.org/ns#"
   xmlns:rdf="http://www.w3.org/1999/02/22-rdf-syntax-ns#"
   xmlns:svg="http://www.w3.org/2000/svg"
   xmlns="http://www.w3.org/2000/svg"
   xmlns:xlink="http://www.w3.org/1999/xlink"
   xmlns:sodipodi="http://sodipodi.sourceforge.net/DTD/sodipodi-0.dtd"
   xmlns:inkscape="http://www.inkscape.org/namespaces/inkscape"
   inkscape:export-ydpi="72"
   inkscape:export-xdpi="72"
   inkscape:export-filename="C:\Users\SimonDückert\Cogneon GmbH\GRNY - Dokumente\Produkte\lernOS\lernOS Logo\lernOS-logo-white-300px.png"
   sodipodi:docname="lernOS-Logo-white.svg"
   inkscape:version="1.0 (4035a4fb49, 2020-05-01)"
   id="svg8"
   version="1.1"
   viewBox="0 0 105.83325 26.45835"
   height="100"
   width="400">
  <defs
     id="defs2" />
  <sodipodi:namedview
     inkscape:document-rotation="0"
     inkscape:pagecheckerboard="true"
     units="px"
     inkscape:window-maximized="1"
     inkscape:window-y="-8"
     inkscape:window-x="-8"
     inkscape:window-height="1027"
     inkscape:window-width="2560"
     showgrid="false"
     inkscape:current-layer="layer1"
     inkscape:document-units="mm"
     inkscape:cy="-15.387392"
     inkscape:cx="186.67231"
     inkscape:zoom="2.8"
     inkscape:pageshadow="2"
     inkscape:pageopacity="0"
     borderopacity="1.0"
     bordercolor="#666666"
     pagecolor="#ffffff"
     id="base" />
  <metadata
     id="metadata5">
    <rdf:RDF>
      <cc:Work
         rdf:about="">
        <dc:format>image/svg+xml</dc:format>
        <dc:type
           rdf:resource="http://purl.org/dc/dcmitype/StillImage" />
        <dc:title></dc:title>
      </cc:Work>
    </rdf:RDF>
  </metadata>
  <g
     transform="translate(0,-270.54134)"
     id="layer1"
     inkscape:groupmode="layer"
     inkscape:label="Layer 1">
    <g
       style="fill:#ffffff;stroke-width:1.04450762"
       transform="matrix(0.95738894,0,0,0.95738894,-3.523277,267.39511)"
       id="g941">
      <text
         xml:space="preserve"
         style="font-style:normal;font-weight:normal;font-size:31.6992px;line-height:1.25;font-family:sans-serif;letter-spacing:0px;word-spacing:0px;fill:#ffffff;fill-opacity:1;stroke:none;stroke-width:0.827752"
         x="10.278968"
         y="28.991444"
         id="text817"><tspan
           sodipodi:role="line"
           id="tspan815"
           x="10.278968"
           y="28.991444"
           style="font-style:normal;font-variant:normal;font-weight:300;font-stretch:normal;font-size:31.6992px;font-family:'Open Sans';-inkscape-font-specification:'Open Sans, Light';font-variant-ligatures:normal;font-variant-caps:normal;font-variant-numeric:normal;font-feature-settings:normal;text-align:start;writing-mode:lr-tb;text-anchor:start;fill:#ffffff;stroke-width:0.827752">lernOS</tspan></text>
      <rect
         style="opacity:1;fill:#ffffff;fill-opacity:1;stroke:#ffffff;stroke-width:0;stroke-linejoin:round;stroke-miterlimit:4;stroke-dasharray:none;stroke-opacity:1"
         id="rect834"
         width="4.8642378"
         height="4.8642378"
         x="4.5344229"
         y="4.9074588"
         rx="0.73115528"
         ry="0.73115528" />
      <rect
         style="opacity:1;fill:#ffffff;fill-opacity:1;stroke:#ffffff;stroke-width:0;stroke-linejoin:round;stroke-miterlimit:4;stroke-dasharray:none;stroke-opacity:1"
         id="rect834-1"
         width="4.8642378"
         height="4.8642378"
         x="4.5578423"
         y="14.672123"
         rx="0.73115528"
         ry="0.73115528" />
      <rect
         style="opacity:1;fill:#ffffff;fill-opacity:1;stroke:#ffffff;stroke-width:0;stroke-linejoin:round;stroke-miterlimit:4;stroke-dasharray:none;stroke-opacity:1"
         id="rect834-1-8"
         width="4.8642378"
         height="4.8642378"
         x="4.491025"
         y="24.436771"
         rx="0.73115528"
         ry="0.73115528" />
      <g
         id="g895"
         transform="matrix(0.07899893,0,0,0.07889048,108.38482,4.8829219)"
         style="fill:#ffffff;stroke-width:3.50066996">
        <path
           id="path879"
           d="M 31.957,0.311 C 23.275,0.311 15.635,3.524 9.731,9.514 3.653,15.678 0.354,23.666 0.354,32 c 0,8.422 3.212,16.236 9.29,22.313 6.078,6.078 13.978,9.377 22.313,9.377 8.334,0 16.409,-3.299 22.66,-9.463 C 60.521,48.41 63.646,40.683 63.646,32 63.646,23.405 60.521,15.592 54.53,9.601 48.453,3.523 40.639,0.311 31.957,0.311 Z m 0.086,5.73 c 7.12,0 13.458,2.691 18.406,7.641 4.862,4.861 7.466,11.286 7.466,18.318 0,7.119 -2.518,13.371 -7.379,18.146 -5.123,5.035 -11.721,7.727 -18.493,7.727 -6.858,0 -13.283,-2.691 -18.232,-7.641 C 8.862,45.283 6.084,38.772 6.084,32 6.084,25.142 8.862,18.631 13.811,13.594 18.673,8.646 24.924,6.041 32.043,6.041 Z"
           inkscape:connector-curvature="0"
           style="fill:#ffffff;stroke-width:3.50066996" />
        <path
           d="m 31.635,26.734 c -1.79,-3.264 -4.844,-4.563 -8.389,-4.563 -5.16,0 -9.267,3.65 -9.267,9.828 0,6.283 3.861,9.829 9.442,9.829 3.581,0 6.635,-1.966 8.319,-4.949 l -3.931,-2.001 c -0.878,2.105 -2.212,2.738 -3.896,2.738 -2.914,0 -4.248,-2.422 -4.248,-5.617 0,-3.193 1.124,-5.616 4.248,-5.616 0.842,0 2.527,0.456 3.51,2.563 z"
           id="c"
           inkscape:connector-curvature="0"
           style="fill:#ffffff;stroke-width:3.50066996" />
        <use
           id="use882"
           transform="translate(18.281)"
           xlink:href="#c"
           x="0"
           y="0"
           width="100%"
           height="100%"
           style="fill:#ffffff;stroke-width:3.50066996" />
      </g>
    </g>
  </g>
</svg>
