<?xml version="1.0" encoding="UTF-8" standalone="no"?>
<!-- Created with Inkscape (http://www.inkscape.org/) -->

<svg
   xmlns:dc="http://purl.org/dc/elements/1.1/"
   xmlns:cc="http://creativecommons.org/ns#"
   xmlns:rdf="http://www.w3.org/1999/02/22-rdf-syntax-ns#"
   xmlns:svg="http://www.w3.org/2000/svg"
   xmlns="http://www.w3.org/2000/svg"
   xmlns:sodipodi="http://sodipodi.sourceforge.net/DTD/sodipodi-0.dtd"
   xmlns:inkscape="http://www.inkscape.org/namespaces/inkscape"
   width="1600"
   height="900"
   viewBox="0 0 423.33332 238.12505"
   version="1.1"
   id="svg311"
   inkscape:version="0.92.3 (2405546, 2018-03-11)"
   sodipodi:docname="lernOS-Kata-02.svg"
   inkscape:export-filename="C:\Users\SimonDückert\OneDrive - Cogneon GmbH\Dokumente\GitHub\lernos\lernOS Guide\de\images\lernOS-Kata-02.png"
   inkscape:export-xdpi="96"
   inkscape:export-ydpi="96">
  <defs
     id="defs305">
    <marker
       inkscape:stockid="DiamondLend"
       orient="auto"
       refY="0.0"
       refX="0.0"
       id="DiamondLend"
       style="overflow:visible"
       inkscape:isstock="true">
      <path
         id="path3225"
         d="M 0,-7.0710768 L -7.0710894,0 L 0,7.0710589 L 7.0710462,0 L 0,-7.0710768 z "
         style="fill-rule:evenodd;stroke:#000000;stroke-width:1pt;stroke-opacity:1;fill:#000000;fill-opacity:1"
         transform="scale(0.8) translate(-7,0)" />
    </marker>
    <marker
       inkscape:stockid="Arrow2Lend"
       orient="auto"
       refY="0.0"
       refX="0.0"
       id="marker3402"
       style="overflow:visible;"
       inkscape:isstock="true">
      <path
         id="path3400"
         style="fill-rule:evenodd;stroke-width:0.625;stroke-linejoin:round;stroke:#000000;stroke-opacity:1;fill:#000000;fill-opacity:1"
         d="M 8.7185878,4.0337352 L -2.2072895,0.016013256 L 8.7185884,-4.0017078 C 6.9730900,-1.6296469 6.9831476,1.6157441 8.7185878,4.0337352 z "
         transform="scale(1.1) rotate(180) translate(1,0)" />
    </marker>
    <marker
       inkscape:stockid="Arrow1Lstart"
       orient="auto"
       refY="0.0"
       refX="0.0"
       id="Arrow1Lstart"
       style="overflow:visible"
       inkscape:isstock="true">
      <path
         id="path3128"
         d="M 0.0,0.0 L 5.0,-5.0 L -12.5,0.0 L 5.0,5.0 L 0.0,0.0 z "
         style="fill-rule:evenodd;stroke:#000000;stroke-width:1pt;stroke-opacity:1;fill:#000000;fill-opacity:1"
         transform="scale(0.8) translate(12.5,0)" />
    </marker>
    <marker
       inkscape:stockid="Arrow1Lend"
       orient="auto"
       refY="0.0"
       refX="0.0"
       id="Arrow1Lend"
       style="overflow:visible;"
       inkscape:isstock="true">
      <path
         id="path3131"
         d="M 0.0,0.0 L 5.0,-5.0 L -12.5,0.0 L 5.0,5.0 L 0.0,0.0 z "
         style="fill-rule:evenodd;stroke:#000000;stroke-width:1pt;stroke-opacity:1;fill:#000000;fill-opacity:1"
         transform="scale(0.8) rotate(180) translate(12.5,0)" />
    </marker>
    <marker
       inkscape:stockid="Arrow2Lstart"
       orient="auto"
       refY="0.0"
       refX="0.0"
       id="Arrow2Lstart"
       style="overflow:visible"
       inkscape:isstock="true">
      <path
         id="path3146"
         style="fill-rule:evenodd;stroke-width:0.625;stroke-linejoin:round;stroke:#000000;stroke-opacity:1;fill:#000000;fill-opacity:1"
         d="M 8.7185878,4.0337352 L -2.2072895,0.016013256 L 8.7185884,-4.0017078 C 6.9730900,-1.6296469 6.9831476,1.6157441 8.7185878,4.0337352 z "
         transform="scale(1.1) translate(1,0)" />
    </marker>
    <marker
       inkscape:stockid="Arrow2Lend"
       orient="auto"
       refY="0.0"
       refX="0.0"
       id="Arrow2Lend"
       style="overflow:visible;"
       inkscape:isstock="true">
      <path
         id="path3149"
         style="fill-rule:evenodd;stroke-width:0.625;stroke-linejoin:round;stroke:#000000;stroke-opacity:1;fill:#000000;fill-opacity:1"
         d="M 8.7185878,4.0337352 L -2.2072895,0.016013256 L 8.7185884,-4.0017078 C 6.9730900,-1.6296469 6.9831476,1.6157441 8.7185878,4.0337352 z "
         transform="scale(1.1) rotate(180) translate(1,0)" />
    </marker>
  </defs>
  <sodipodi:namedview
     id="base"
     pagecolor="#ffffff"
     bordercolor="#666666"
     borderopacity="1.0"
     inkscape:pageopacity="1"
     inkscape:pageshadow="2"
     inkscape:zoom="1"
     inkscape:cx="981.10747"
     inkscape:cy="585.80217"
     inkscape:document-units="mm"
     inkscape:current-layer="layer1"
     showgrid="false"
     inkscape:window-width="1920"
     inkscape:window-height="1013"
     inkscape:window-x="-9"
     inkscape:window-y="-9"
     inkscape:window-maximized="1"
     units="px" />
  <metadata
     id="metadata308">
    <rdf:RDF>
      <cc:Work
         rdf:about="">
        <dc:format>image/svg+xml</dc:format>
        <dc:type
           rdf:resource="http://purl.org/dc/dcmitype/StillImage" />
        <dc:title />
      </cc:Work>
    </rdf:RDF>
  </metadata>
  <g
     inkscape:label="Ebene 1"
     inkscape:groupmode="layer"
     id="layer1"
     transform="translate(0,-58.874969)">
    <rect
       style="opacity:1;fill:#ff6600;fill-opacity:1;stroke:#000000;stroke-width:0.35637045;stroke-miterlimit:4;stroke-dasharray:none;stroke-dashoffset:0;stroke-opacity:1"
       id="rect1052"
       width="104.05954"
       height="25.815411"
       x="30.830976"
       y="78.342369" />
    <text
       xml:space="preserve"
       style="font-style:normal;font-variant:normal;font-weight:600;font-stretch:normal;font-size:10.94847488px;line-height:1.25;font-family:'Open Sans';-inkscape-font-specification:'Open Sans, Semi-Bold';font-variant-ligatures:normal;font-variant-caps:normal;font-variant-numeric:normal;font-feature-settings:normal;text-align:start;letter-spacing:0px;word-spacing:0px;writing-mode:lr-tb;text-anchor:start;fill:#ffffff;fill-opacity:1;stroke:none;stroke-width:0.39193121"
       x="60.202747"
       y="94.094093"
       id="text854"><tspan
         sodipodi:role="line"
         id="tspan852"
         x="60.202747"
         y="94.094093"
         style="font-style:normal;font-variant:normal;font-weight:600;font-stretch:normal;font-size:10.94847488px;font-family:'Open Sans';-inkscape-font-specification:'Open Sans, Semi-Bold';font-variant-ligatures:normal;font-variant-caps:normal;font-variant-numeric:normal;font-feature-settings:normal;text-align:start;writing-mode:lr-tb;text-anchor:start;fill:#ffffff;stroke-width:0.39193121">Meine Ziele</tspan></text>
    <g
       transform="matrix(0.11976286,0,0,0.11958489,3.8416285,26.38715)"
       inkscape:label="Layer 1"
       id="layer1-8-9-6">
      <g
         transform="translate(-0.9635,-1.0044)"
         id="g818-0-2">
        <circle
           transform="matrix(0.41522,0,0,0.41522,203.67,311.84)"
           style="color:#000000;fill:none;stroke:#000000;stroke-width:24.08399963"
           id="path12427-9-3-9-9-8"
           cx="351.13956"
           cy="557.68408"
           r="180.62735" />
        <circle
           transform="matrix(0.24913,0,0,0.24913,261.99,404.46)"
           style="color:#000000;fill:none;stroke:#000000;stroke-width:40.13899994"
           id="path12427-9-3-9-8-5-2-9"
           cx="351.13956"
           cy="557.68408"
           r="180.62735" />
        <circle
           transform="matrix(0.12121,0,0,0.12121,306.91,475.8)"
           style="color:#000000;fill:#000000"
           id="path12427-9-3-9-8-2-3-0-9"
           cx="351.13956"
           cy="557.68408"
           r="180.62735" />
        <path
           inkscape:connector-curvature="0"
           style="fill:none;stroke:#000000;stroke-width:5;stroke-linecap:round"
           d="M 349.48,455.93 V 630.88"
           id="path13189-0-9-9" />
        <path
           d="M 436.98,543.41 H 262.03"
           inkscape:connector-curvature="0"
           style="fill:none;stroke:#000000;stroke-width:5;stroke-linecap:round"
           id="path45-3-3" />
      </g>
    </g>
    <g
       id="layer2"
       inkscape:label="Layer"
       transform="matrix(0.36842994,0,0,0.36842994,-58.948556,-85.350361)" />
    <path
       style="fill:#333333;fill-opacity:1;stroke:none;stroke-width:0.00823996"
       d="m 132.39863,127.81494 c 0.0414,0.0577 0.63737,11.88446 0.75275,12.23049 0.20596,0.64277 0.33716,1.57484 0.42782,3.04981 0.0824,1.5326 0.2887,2.60291 1.57409,8.15663 0.68396,2.97467 1.59069,5.85123 2.5877,8.24907 0.60153,1.44202 0.74149,2.018 0.74978,2.95738 0,1.17008 -0.18166,1.87944 -1.12095,4.42564 -0.53556,1.45846 -0.79106,2.34054 -1.03001,3.61771 -0.0989,0.50269 -0.42766,1.7301 -0.74084,2.71888 -0.31309,0.98882 -0.58566,1.95328 -0.61859,2.13457 -0.12353,0.87343 -0.12381,1.24407 -0.008,2.38945 0.22239,2.10117 0.17284,3.03981 -0.24744,4.8609 -0.0989,0.45319 -0.23,1.10511 -0.28769,1.44291 -0.0576,0.33781 -0.25558,1.09561 -0.43675,1.68887 -0.29662,0.96407 -0.32943,1.15351 -0.32943,1.9363 0,0.74984 0.0486,1.03789 0.33688,2.14202 0.18114,0.70042 0.4132,1.7797 0.50383,2.38945 0.0905,0.61798 0.31217,1.8047 0.49339,2.6369 0.29668,1.43378 0.35417,1.74724 0.46955,2.88435 0.0824,0.85699 0.28081,1.90265 0.44569,2.36412 0.0825,0.2472 0.40318,0.84873 0.70804,1.32664 1.07122,1.66447 1.19481,2.31533 1.18653,6.07277 -0.0173,3.32068 0.0414,3.86478 0.7006,7.33381 0.51084,2.6368 0.54344,2.96693 0.51872,5.06809 -0.0329,3.65036 -0.007,5.64376 0.0834,6.46779 0.0824,0.77454 0.0735,5.67018 -0.0179,6.13984 -0.0173,0.11546 -0.0581,0.57677 -0.0909,1.03002 -0.0412,0.74985 -0.1485,2.04264 -0.24744,3.13029 -0.0173,0.22239 -0.0572,0.69212 -0.082,1.03001 -0.0259,0.33781 -0.0824,1.13786 -0.1401,1.77235 -0.13189,1.57383 -0.0985,11.77458 0.0582,15.86163 0.0173,0.47793 0.0575,1.77195 0.082,2.88434 0.0412,1.96106 0.17331,4.76988 0.24744,5.51975 0.0173,0.20594 0.0572,0.60963 0.082,0.90628 0.32953,3.37834 1.12091,6.25428 2.30749,8.39663 0.56031,1.01354 0.93123,1.48412 2.18375,2.76958 0.76627,0.78276 1.40848,1.55625 2.03467,2.42969 1.52443,2.12594 2.16764,2.76979 3.74146,3.75038 1.66447,1.03002 2.6525,1.37574 3.98738,1.39224 0.78279,0.009 0.96479,-0.0171 1.33559,-0.1893 0.23885,-0.10709 0.57744,-0.35456 0.75873,-0.54409 0.61804,-0.67569 0.74894,-1.26875 0.77364,-3.43587 0.0173,-1.77163 0.0494,-1.88778 0.57686,-2.20908 0.42025,-0.26364 0.93129,-0.21399 2.18375,0.21464 1.41733,0.46967 1.96989,0.58556 3.14817,0.65142 0.65928,0.0329 1.52325,0.17219 2.88287,0.46059 2.53796,0.53562 2.85204,0.6272 4.96971,1.44292 2.98287,1.14538 3.84836,1.35968 5.4139,1.31024 0.98882,-0.0329 1.65557,-0.16595 2.34773,-0.48742 1.21951,-0.55204 1.73069,-1.7054 1.27745,-2.859 -0.36252,-0.92285 -0.94782,-1.56553 -3.19738,-3.55959 -1.91987,-1.6892 -4.50784,-4.13649 -5.78507,-5.46312 -1.47491,-1.53261 -1.63145,-2.15838 -1.04642,-4.07831 0.57677,-1.89513 0.78422,-3.03295 1.34455,-7.40835 0.45318,-3.55974 0.71575,-4.67146 2.13307,-8.98096 1.17004,-3.56791 1.65597,-5.33187 2.26573,-8.29824 0.60977,-2.95816 1.19567,-7.21771 1.44291,-10.44773 0.0259,-0.36261 0.0653,-0.79152 0.082,-0.94804 0.0412,-0.36258 0.18139,-2.53812 0.24745,-3.79062 0.0259,-0.51911 0.0656,-1.25984 0.082,-1.64714 0.0412,-0.8652 0.13288,-3.25551 0.25639,-7.37556 0.0329,-0.95578 0.0649,-2.90023 0.073,-4.32576 l 0.008,-2.59517 0.31302,-1.15373 c 0.29664,-1.09594 0.31417,-1.24361 0.38011,-2.92459 0.0329,-0.97228 0.12324,-2.21679 0.18931,-2.76062 0.0741,-0.54385 0.14747,-1.43422 0.18037,-1.97803 0.0259,-0.54391 0.0742,-1.13642 0.0909,-1.31772 0.0822,-0.60147 0.0989,-9.12993 0.0329,-10.17642 -0.0657,-0.89815 -0.16492,-1.68076 -0.40396,-3.13924 -0.0329,-0.20596 -0.0737,-0.65121 -0.082,-0.98083 -0.0173,-0.59324 -0.0174,-0.60179 0.17291,-0.54407 0.51081,0.14827 0.93092,0.13967 1.21931,-0.0179 0.35437,-0.19759 0.70969,-0.83946 0.83325,-1.53981 0.10696,-0.5686 0.049,-2.96776 -0.0909,-3.87411 -0.0493,-0.3214 -0.0915,-1.03826 -0.0999,-1.60688 0,-1.30188 0.19878,-2.30625 0.80046,-4.03658 0.23884,-0.70043 0.68352,-1.98567 0.97189,-2.84261 0.65097,-1.8705 1.06268,-3.79986 1.25211,-5.81042 0.0259,-0.29661 0.0656,-0.62546 0.082,-0.74083 0.0173,-0.11545 0.0587,-0.54423 0.0834,-0.94804 0.0259,-0.41196 0.0664,-0.97121 0.0909,-1.25957 0.14024,-1.48319 0.17233,-2.95009 0.16397,-6.32021 -0.0259,-4.26832 0.0582,-3.72576 -0.9883,-6.84042 -0.70033,-2.06823 -0.83241,-2.62725 -0.99722,-4.2423 -0.5274,-5.24884 -0.67535,-6.06503 -1.68886,-9.51757 -0.62626,-2.12589 -0.84981,-3.02453 -1.11348,-4.49122 -0.32965,-1.8375 -0.43687,-2.14275 -1.45037,-3.91436 -0.32137,-0.56854 -0.66709,-1.30886 -0.79898,-1.72911 -0.32136,-0.99706 -0.45267,-1.23665 -0.83176,-1.49211 -0.37903,-0.2472 -0.70936,-0.84009 -1.03895,-1.84538 -0.60977,-1.85399 -1.10293,-2.44703 -2.75913,-3.29575 -1.40904,-0.72513 -2.27427,-1.92826 -2.6533,-3.6669 -0.17307,-0.78278 -0.18247,-1.00582 -0.1744,-4.61495 0.0173,-4.21061 0.01,-4.38358 -0.55898,-7.53953 -0.5356,-2.991104 -0.88212,-5.050689 -1.10454,-6.5751 -0.73336,-5.067541 -1.99491,-7.902497 -4.40925,-9.970714 -2.31537,-1.969381 -5.22331,-2.966063 -7.98372,-2.718893 -2.52142,0.222407 -4.56506,1.400698 -6.1801,3.559592 -2.23304,2.974562 -3.40358,6.887683 -4.33471,14.509655 -0.0259,0.18114 -0.0571,0.462 -0.082,0.61859 -0.0173,0.15663 -0.0572,0.49516 -0.082,0.74233 -0.0741,0.67569 -0.12494,1.12869 -0.20719,1.81259 -0.0412,0.33789 -0.0978,0.84004 -0.12225,1.11199 -0.0259,0.27201 -0.067,0.62598 -0.0834,0.78257 -0.0259,0.15664 -0.0982,0.76619 -0.16397,1.35945 -0.1895,1.60676 -0.445,3.31279 -0.57686,3.91435 -0.46148,2.08464 -1.26905,2.99877 -3.09005,3.50146 -2.61213,0.71683 -3.74114,1.3353 -4.97716,2.71142 -0.32953,0.3708 -2.75976,3.26704 -2.16884,10.80844 z m 24.79935,84.66842 0.40396,0.53661 c 0.28008,0.37081 0.51838,0.82282 0.74084,1.41608 h 0.001 c 0.60155,1.59857 0.74074,2.28299 0.75725,3.72506 0.008,1.12057 -0.0659,2.6534 -0.15652,3.23016 -0.0259,0.18951 -0.0817,1.0377 -0.16398,2.45505 -0.0259,0.42842 -0.067,0.96473 -0.0834,1.19546 -0.0259,0.2224 -0.0741,1.11135 -0.12367,1.97656 -0.0412,0.85693 -0.10639,1.87995 -0.13118,2.26722 -0.0329,0.3873 -0.0662,3.31241 -0.0745,6.50952 -0.0173,5.61142 -0.0409,6.55915 -0.20571,8.24012 -0.0412,0.42847 -0.0915,1.0041 -0.1163,1.27596 -0.11532,1.29368 -0.14698,1.61552 -0.26236,2.27468 -0.14024,0.87344 -0.31338,1.43444 -0.52767,1.78875 -0.15663,0.25555 -0.37071,0.41186 -0.45314,0.32942 -0.0259,-0.0259 -0.0997,-0.59431 -0.16546,-1.27001 -0.33788,-3.18058 -0.88888,-7.11055 -1.24318,-8.80805 -0.37081,-1.75504 -0.52774,-3.42719 -0.65139,-6.92091 -0.099,-2.80162 -0.25614,-4.40123 -0.4949,-5.10983 -0.10695,-0.32134 -0.3782,-0.98879 -0.60071,-1.48316 -0.59326,-1.3019 -0.70887,-1.74655 -0.70059,-2.71889 0,-0.97232 0.0987,-1.54028 0.48593,-2.92459 0.35434,-1.25245 0.74894,-2.09275 1.80366,-3.87262 1.02178,-1.72214 1.4594,-2.58042 1.73955,-3.43735 z"
       id="path1641"
       inkscape:connector-curvature="0"
       sodipodi:nodetypes="cccccccccccscsccccccccccccccccccccccccccccccccccccccccccccccccccccccccccccccccccccccccccccccccccccccccccccccccccccccccccccccscccccccccccc" />
    <flowRoot
       xml:space="preserve"
       id="flowRoot1404"
       style="fill:black;fill-opacity:1;stroke:none;font-family:sans-serif;font-style:normal;font-weight:normal;font-size:40px;line-height:1.25;letter-spacing:0px;word-spacing:0px"><flowRegion
         id="flowRegion1406"><rect
           id="rect1408"
           width="21.428572"
           height="168.57143"
           x="542.85712"
           y="-331.42856" /></flowRegion><flowPara
         id="flowPara1410" /></flowRoot>    <text
       xml:space="preserve"
       style="font-style:normal;font-variant:normal;font-weight:normal;font-stretch:normal;font-size:11.72993088px;line-height:1.25;font-family:'Open Sans';-inkscape-font-specification:'Open Sans, Normal';font-variant-ligatures:normal;font-variant-caps:normal;font-variant-numeric:normal;font-feature-settings:normal;text-align:start;letter-spacing:0px;word-spacing:0px;writing-mode:lr-tb;text-anchor:start;fill:#000000;fill-opacity:1;stroke:none;stroke-width:0.41990557"
       x="238.18338"
       y="88.833298"
       id="text854-7"><tspan
         sodipodi:role="line"
         id="tspan852-3"
         x="238.18338"
         y="88.833298"
         style="font-style:normal;font-variant:normal;font-weight:normal;font-stretch:normal;font-size:11.72993088px;font-family:'Open Sans';-inkscape-font-specification:'Open Sans, Normal';font-variant-ligatures:normal;font-variant-caps:normal;font-variant-numeric:normal;font-feature-settings:normal;text-align:start;writing-mode:lr-tb;text-anchor:start;fill:#000000;stroke-width:0.41990557">Ist es mir wirklich wichtig?</tspan></text>
    <text
       xml:space="preserve"
       style="font-style:normal;font-variant:normal;font-weight:normal;font-stretch:normal;font-size:11.72993183px;line-height:1.25;font-family:'Open Sans';-inkscape-font-specification:'Open Sans, Normal';font-variant-ligatures:normal;font-variant-caps:normal;font-variant-numeric:normal;font-feature-settings:normal;text-align:start;letter-spacing:0px;word-spacing:0px;writing-mode:lr-tb;text-anchor:start;fill:#000000;fill-opacity:1;stroke:none;stroke-width:0.41990557"
       x="231.65138"
       y="128.26405"
       id="text854-0"><tspan
         sodipodi:role="line"
         id="tspan852-0"
         x="231.65138"
         y="128.26405"
         style="font-style:normal;font-variant:normal;font-weight:normal;font-stretch:normal;font-size:11.72993183px;font-family:'Open Sans';-inkscape-font-specification:'Open Sans, Normal';font-variant-ligatures:normal;font-variant-caps:normal;font-variant-numeric:normal;font-feature-settings:normal;text-align:start;writing-mode:lr-tb;text-anchor:start;fill:#000000;stroke-width:0.41990557">Kann mein Netzwerk helfen? </tspan></text>
    <text
       xml:space="preserve"
       style="font-style:normal;font-variant:normal;font-weight:normal;font-stretch:normal;font-size:11.72993279px;line-height:1.25;font-family:'Open Sans';-inkscape-font-specification:'Open Sans, Normal';font-variant-ligatures:normal;font-variant-caps:normal;font-variant-numeric:normal;font-feature-settings:normal;text-align:start;letter-spacing:0px;word-spacing:0px;writing-mode:lr-tb;text-anchor:start;fill:#000000;fill-opacity:1;stroke:none;stroke-width:0.41990557"
       x="210.43846"
       y="109.15237"
       id="text854-0-2"><tspan
         sodipodi:role="line"
         id="tspan852-0-8"
         x="210.43846"
         y="109.15237"
         style="font-style:normal;font-variant:normal;font-weight:normal;font-stretch:normal;font-size:11.72993279px;font-family:'Open Sans';-inkscape-font-specification:'Open Sans, Normal';font-variant-ligatures:normal;font-variant-caps:normal;font-variant-numeric:normal;font-feature-settings:normal;text-align:start;writing-mode:lr-tb;text-anchor:start;fill:#000000;stroke-width:0.41990557">Kann ich es in 12 Wochen schaffen?</tspan></text>
    <path
       style="opacity:1;fill:none;fill-opacity:1;stroke:#000000;stroke-width:2.31381583;stroke-linecap:butt;stroke-miterlimit:4;stroke-dasharray:none;stroke-dashoffset:0;stroke-opacity:1;paint-order:normal"
       d="M 1163.8984 23.210938 A 370.50091 160.49018 0 0 0 804.98438 144.68945 L 667.50781 160.36719 L 793.54883 185.57422 A 370.50091 160.49018 0 0 0 1163.8984 344.19141 A 370.50091 160.49018 0 0 0 1534.3984 183.70117 A 370.50091 160.49018 0 0 0 1163.8984 23.210938 z "
       transform="matrix(0.26458333,0,0,0.26458333,0,58.874969)"
       id="path6077" />
  </g>
</svg>
