<?xml version="1.0" encoding="UTF-8" standalone="no"?>
<svg
   xmlns:dc="http://purl.org/dc/elements/1.1/"
   xmlns:cc="http://creativecommons.org/ns#"
   xmlns:rdf="http://www.w3.org/1999/02/22-rdf-syntax-ns#"
   xmlns:svg="http://www.w3.org/2000/svg"
   xmlns="http://www.w3.org/2000/svg"
   xmlns:sodipodi="http://sodipodi.sourceforge.net/DTD/sodipodi-0.dtd"
   xmlns:inkscape="http://www.inkscape.org/namespaces/inkscape"
   width="1600"
   height="600"
   viewBox="0 0 423.33332 158.75003"
   version="1.1"
   id="svg311"
   inkscape:version="1.0.2 (e86c870879, 2021-01-15, custom)"
   sodipodi:docname="lernOS-Sprint.svg"
   inkscape:export-filename="C:\Users\SimonDückert\OneDrive - Cogneon GmbH\Dokumente\GitHub\lernos-for-you\de\src\images\lernOS-Sprint.png"
   inkscape:export-xdpi="96"
   inkscape:export-ydpi="96">
  <defs
     id="defs305">
    <marker
       inkscape:stockid="Arrow2Lstart"
       orient="auto"
       refY="0"
       refX="0"
       id="Arrow2Lstart"
       style="overflow:visible"
       inkscape:isstock="true">
      <path
         id="path1274"
         style="fill:#000000;fill-opacity:1;fill-rule:evenodd;stroke:#000000;stroke-width:0.625;stroke-linejoin:round;stroke-opacity:1"
         d="M 8.7185878,4.0337352 -2.2072895,0.01601326 8.7185884,-4.0017078 c -1.7454984,2.3720609 -1.7354408,5.6174519 -6e-7,8.035443 z"
         transform="matrix(1.1,0,0,1.1,1.1,0)" />
    </marker>
    <marker
       inkscape:stockid="Arrow1Lend"
       orient="auto"
       refY="0"
       refX="0"
       id="marker1615"
       style="overflow:visible"
       inkscape:isstock="true">
      <path
         id="path1613"
         d="M 0,0 5,-5 -12.5,0 5,5 Z"
         style="fill:#000000;fill-opacity:1;fill-rule:evenodd;stroke:#000000;stroke-width:1pt;stroke-opacity:1"
         transform="matrix(-0.8,0,0,-0.8,-10,0)" />
    </marker>
    <marker
       inkscape:stockid="Arrow1Lend"
       orient="auto"
       refY="0"
       refX="0"
       id="Arrow1Lend"
       style="overflow:visible"
       inkscape:isstock="true">
      <path
         id="path1259"
         d="M 0,0 5,-5 -12.5,0 5,5 Z"
         style="fill:#000000;fill-opacity:1;fill-rule:evenodd;stroke:#000000;stroke-width:1pt;stroke-opacity:1"
         transform="matrix(-0.8,0,0,-0.8,-10,0)" />
    </marker>
  </defs>
  <sodipodi:namedview
     id="base"
     pagecolor="#ffffff"
     bordercolor="#666666"
     borderopacity="1.0"
     inkscape:pageopacity="1"
     inkscape:pageshadow="2"
     inkscape:zoom="0.77098371"
     inkscape:cx="578.5588"
     inkscape:cy="334.227"
     inkscape:document-units="mm"
     inkscape:current-layer="layer1"
     showgrid="false"
     inkscape:window-width="2560"
     inkscape:window-height="1387"
     inkscape:window-x="-8"
     inkscape:window-y="-8"
     inkscape:window-maximized="1"
     units="px"
     inkscape:document-rotation="0" />
  <metadata
     id="metadata308">
    <rdf:RDF>
      <cc:Work
         rdf:about="">
        <dc:format>image/svg+xml</dc:format>
        <dc:type
           rdf:resource="http://purl.org/dc/dcmitype/StillImage" />
        <dc:title></dc:title>
      </cc:Work>
    </rdf:RDF>
  </metadata>
  <g
     inkscape:label="Ebene 1"
     inkscape:groupmode="layer"
     id="layer1"
     transform="translate(0,-58.874969)">
    <g
       id="layer2"
       inkscape:label="Layer"
       transform="matrix(0.36842994,0,0,0.36842994,-58.948556,-85.350361)" />
    <g
       id="g2341">
      <g
         transform="matrix(2.0371888,0,0,2.0371888,296.81696,-153.59125)"
         id="g966"
         style="fill:#000000" />
    </g>
    <path
       style="fill:#ff6600;fill-opacity:1;stroke:#000000;stroke-width:0.542673px;stroke-linecap:butt;stroke-linejoin:miter;stroke-opacity:1"
       d="m 293.12474,117.17355 20.74641,20.46217 -20.35611,20.07721 h 84.05954 v -40.48002 z"
       id="path1579"
       inkscape:connector-curvature="0" />
    <g
       id="g1796"
       transform="translate(-53.945607,-85.264516)">
      <path
         style="fill:#ff6600;fill-opacity:1;stroke:#000000;stroke-width:0.539006px;stroke-linecap:butt;stroke-linejoin:miter;stroke-opacity:1"
         d="m 100.1514,202.43544 h 62.30984 l 20.4646,20.4646 -20.07959,20.07959 H 99.705503 Z"
         id="path1385"
         inkscape:connector-curvature="0" />
      <text
         id="text854-4-5"
         y="221.70657"
         x="106.91977"
         style="font-style:normal;font-weight:normal;font-size:13.3433px;line-height:1.25;font-family:sans-serif;letter-spacing:0px;word-spacing:0px;fill:#ffffff;fill-opacity:1;stroke:none;stroke-width:0.333582"
         xml:space="preserve"><tspan
           style="font-style:normal;font-variant:normal;font-weight:bold;font-stretch:normal;font-size:13.3433px;font-family:'Open Sans';-inkscape-font-specification:'Open Sans, Bold';font-variant-ligatures:normal;font-variant-caps:normal;font-variant-numeric:normal;font-feature-settings:normal;text-align:start;writing-mode:lr-tb;text-anchor:start;fill:#ffffff;stroke-width:0.333582"
           y="221.70657"
           x="106.91977"
           id="tspan852-1-3"
           sodipodi:role="line">Woche 0</tspan></text>
      <text
         id="text854-5-6-1"
         y="231.94382"
         x="108.62478"
         style="font-style:normal;font-weight:normal;font-size:7.91951px;line-height:1.25;font-family:sans-serif;letter-spacing:0px;word-spacing:0px;fill:#ffffff;fill-opacity:1;stroke:none;stroke-width:0.197988"
         xml:space="preserve"><tspan
           style="font-style:normal;font-variant:normal;font-weight:normal;font-stretch:normal;font-size:7.91966px;font-family:'Open Sans';-inkscape-font-specification:'Open Sans, Normal';font-variant-ligatures:normal;font-variant-caps:normal;font-variant-numeric:normal;font-feature-settings:normal;text-align:start;writing-mode:lr-tb;text-anchor:start;fill:#ffffff;stroke-width:0.197988"
           y="231.94382"
           x="108.62478"
           id="tspan852-5-7-2"
           sodipodi:role="line">Planung, Ziele</tspan></text>
    </g>
    <path
       style="fill:#ff6600;fill-opacity:1;stroke:#000000;stroke-width:0.539006px;stroke-linecap:butt;stroke-linejoin:miter;stroke-opacity:1"
       d="m 132.48908,117.17092 h 11.2736 l 20.4646,20.4646 -20.07957,20.07958 h -11.27362 l 20.07959,-20.07958 z"
       id="path1488"
       inkscape:connector-curvature="0" />
    <path
       style="fill:#ff6600;fill-opacity:1;stroke:#000000;stroke-width:0.539006px;stroke-linecap:butt;stroke-linejoin:miter;stroke-opacity:1"
       d="m 148.41248,117.17092 h 11.27364 l 20.4646,20.4646 -20.07961,20.07958 h -11.2736 l 20.07959,-20.07958 z"
       id="path1488-4"
       inkscape:connector-curvature="0" />
    <path
       style="fill:#ff6600;fill-opacity:1;stroke:#000000;stroke-width:0.539006px;stroke-linecap:butt;stroke-linejoin:miter;stroke-opacity:1"
       d="m 164.33594,117.17092 h 11.27364 l 20.4646,20.4646 -20.07959,20.07958 h -11.27362 l 20.07959,-20.07958 z"
       id="path1488-4-9"
       inkscape:connector-curvature="0" />
    <path
       style="fill:#ff6600;fill-opacity:1;stroke:#000000;stroke-width:0.539006px;stroke-linecap:butt;stroke-linejoin:miter;stroke-opacity:1"
       d="m 180.2594,117.17092 h 11.27362 l 20.46461,20.4646 -20.0796,20.07958 h -11.27362 l 20.0796,-20.07958 z"
       id="path1488-4-3"
       inkscape:connector-curvature="0" />
    <path
       style="fill:#ff6600;fill-opacity:1;stroke:#000000;stroke-width:0.539006px;stroke-linecap:butt;stroke-linejoin:miter;stroke-opacity:1"
       d="m 196.18283,117.17092 h 11.27362 l 20.4646,20.4646 -20.07959,20.07958 h -11.27362 l 20.07959,-20.07958 z"
       id="path1488-4-4"
       inkscape:connector-curvature="0" />
    <path
       style="fill:#ff6600;fill-opacity:1;stroke:#000000;stroke-width:0.539006px;stroke-linecap:butt;stroke-linejoin:miter;stroke-opacity:1"
       d="m 212.10626,117.17092 h 11.27362 l 20.46461,20.4646 -20.0796,20.07958 h -11.27362 l 20.0796,-20.07958 z"
       id="path1488-4-2"
       inkscape:connector-curvature="0" />
    <path
       style="fill:#ff6600;fill-opacity:1;stroke:#000000;stroke-width:0.539006px;stroke-linecap:butt;stroke-linejoin:miter;stroke-opacity:1"
       d="m 228.02975,117.17092 h 11.27362 l 20.4646,20.4646 -20.07959,20.07958 h -11.27362 l 20.07959,-20.07958 z"
       id="path1488-4-5"
       inkscape:connector-curvature="0" />
    <path
       style="fill:#ff6600;fill-opacity:1;stroke:#000000;stroke-width:0.539006px;stroke-linecap:butt;stroke-linejoin:miter;stroke-opacity:1"
       d="m 243.95313,117.17092 h 11.27362 l 20.4646,20.4646 -20.07959,20.07958 h -11.27362 l 20.07959,-20.07958 z"
       id="path1488-4-0"
       inkscape:connector-curvature="0" />
    <path
       style="fill:#ff6600;fill-opacity:1;stroke:#000000;stroke-width:0.539006px;stroke-linecap:butt;stroke-linejoin:miter;stroke-opacity:1"
       d="m 259.87662,117.17092 h 11.27362 l 20.46461,20.4646 -20.0796,20.07958 h -11.27362 l 20.07958,-20.07958 z"
       id="path1488-4-91"
       inkscape:connector-curvature="0" />
    <path
       style="fill:#ff6600;fill-opacity:1;stroke:#000000;stroke-width:0.539006px;stroke-linecap:butt;stroke-linejoin:miter;stroke-opacity:1"
       d="m 275.80005,117.17092 h 11.27361 l 20.46461,20.4646 -20.07959,20.07958 h -11.27362 l 20.07961,-20.07958 z"
       id="path1488-4-1"
       inkscape:connector-curvature="0" />
    <text
       xml:space="preserve"
       style="font-style:normal;font-weight:normal;font-size:13.3433px;line-height:1.25;font-family:sans-serif;letter-spacing:0px;word-spacing:0px;fill:#ffffff;fill-opacity:1;stroke:none;stroke-width:0.333582"
       x="312.72253"
       y="136.44194"
       id="text854-4-55"><tspan
         sodipodi:role="line"
         id="tspan852-1-2"
         x="312.72253"
         y="136.44194"
         style="font-style:normal;font-variant:normal;font-weight:bold;font-stretch:normal;font-size:13.3433px;font-family:'Open Sans';-inkscape-font-specification:'Open Sans, Bold';font-variant-ligatures:normal;font-variant-caps:normal;font-variant-numeric:normal;font-feature-settings:normal;text-align:start;writing-mode:lr-tb;text-anchor:start;fill:#ffffff;stroke-width:0.333582">Woche 12</tspan></text>
    <text
       xml:space="preserve"
       style="font-style:normal;font-weight:normal;font-size:7.91951px;line-height:1.25;font-family:sans-serif;letter-spacing:0px;word-spacing:0px;fill:#ffffff;fill-opacity:1;stroke:none;stroke-width:0.197988"
       x="318.71481"
       y="146.67917"
       id="text854-5-6-3"><tspan
         sodipodi:role="line"
         id="tspan852-5-7-4"
         x="318.71481"
         y="146.67917"
         style="font-style:normal;font-variant:normal;font-weight:normal;font-stretch:normal;font-size:7.91966px;font-family:'Open Sans';-inkscape-font-specification:'Open Sans, Normal';font-variant-ligatures:normal;font-variant-caps:normal;font-variant-numeric:normal;font-feature-settings:normal;text-align:start;writing-mode:lr-tb;text-anchor:start;fill:#ffffff;stroke-width:0.197988">Retrospektive</tspan></text>
    <text
       xml:space="preserve"
       style="font-style:normal;font-weight:normal;font-size:8.99445px;line-height:1.25;font-family:sans-serif;letter-spacing:0px;word-spacing:0px;fill:#000000;fill-opacity:1;stroke:none;stroke-width:0.224861"
       x="147.11198"
       y="83.207329"
       id="text854-5-7"><tspan
         sodipodi:role="line"
         id="tspan852-5-1"
         x="147.11198"
         y="83.207329"
         style="font-style:normal;font-variant:normal;font-weight:normal;font-stretch:normal;font-size:8.99463px;font-family:'Open Sans';-inkscape-font-specification:'Open Sans, Normal';font-variant-ligatures:normal;font-variant-caps:normal;font-variant-numeric:normal;font-feature-settings:normal;text-align:start;writing-mode:lr-tb;text-anchor:start;fill:#000000;stroke-width:0.224861">Boxen-</tspan><tspan
         sodipodi:role="line"
         x="147.11198"
         y="94.46209"
         style="font-style:normal;font-variant:normal;font-weight:normal;font-stretch:normal;font-size:8.99463px;font-family:'Open Sans';-inkscape-font-specification:'Open Sans, Normal';font-variant-ligatures:normal;font-variant-caps:normal;font-variant-numeric:normal;font-feature-settings:normal;text-align:start;writing-mode:lr-tb;text-anchor:start;fill:#000000;stroke-width:0.224861"
         id="tspan1248">stopp 1</tspan></text>
    <text
       xml:space="preserve"
       style="font-style:normal;font-weight:normal;font-size:8.99445px;line-height:1.25;font-family:sans-serif;letter-spacing:0px;word-spacing:0px;fill:#000000;fill-opacity:1;stroke:none;stroke-width:0.224861"
       x="210.12318"
       y="83.207329"
       id="text854-5-7-3"><tspan
         sodipodi:role="line"
         id="tspan852-5-1-0"
         x="210.12318"
         y="83.207329"
         style="font-style:normal;font-variant:normal;font-weight:normal;font-stretch:normal;font-size:8.99463px;font-family:'Open Sans';-inkscape-font-specification:'Open Sans, Normal';font-variant-ligatures:normal;font-variant-caps:normal;font-variant-numeric:normal;font-feature-settings:normal;text-align:start;writing-mode:lr-tb;text-anchor:start;fill:#000000;stroke-width:0.224861">Boxen-</tspan><tspan
         sodipodi:role="line"
         x="210.12318"
         y="94.46209"
         style="font-style:normal;font-variant:normal;font-weight:normal;font-stretch:normal;font-size:8.99463px;font-family:'Open Sans';-inkscape-font-specification:'Open Sans, Normal';font-variant-ligatures:normal;font-variant-caps:normal;font-variant-numeric:normal;font-feature-settings:normal;text-align:start;writing-mode:lr-tb;text-anchor:start;fill:#000000;stroke-width:0.224861"
         id="tspan1250">stopp 2</tspan></text>
    <text
       xml:space="preserve"
       style="font-style:normal;font-weight:normal;font-size:8.99445px;line-height:1.25;font-family:sans-serif;letter-spacing:0px;word-spacing:0px;fill:#000000;fill-opacity:1;stroke:none;stroke-width:0.224861"
       x="135.93283"
       y="167.34293"
       id="text854-5-7-3-8"><tspan
         sodipodi:role="line"
         id="tspan852-5-1-0-2"
         x="135.93283"
         y="167.34293"
         style="font-style:normal;font-variant:normal;font-weight:normal;font-stretch:normal;font-size:8.99463px;font-family:'Open Sans';-inkscape-font-specification:'Open Sans, Normal';font-variant-ligatures:normal;font-variant-caps:normal;font-variant-numeric:normal;font-feature-settings:normal;text-align:start;writing-mode:lr-tb;text-anchor:start;fill:#000000;stroke-width:0.224861">2</tspan></text>
    <path
       id="path978"
       d="m 169.91035,116.96842 c -0.0326,-0.0625 -0.76027,-1.63832 -1.617,-3.50183 l -1.55767,-3.38813 -0.34436,-0.17497 c -0.62147,-0.31578 -1.35357,-0.46207 -1.88631,-0.37693 -0.80216,0.12822 -1.48582,0.63268 -2.683,1.97975 -0.87442,0.98391 -1.35116,1.39023 -1.91223,1.62983 -0.42818,0.18286 -0.44207,0.18522 -1.08017,0.18355 -0.71301,-0.002 -0.98437,-0.0666 -1.5632,-0.37276 l -0.29861,-0.15798 -1.64527,-3.58176 c -0.90491,-1.96997 -1.64539,-3.61106 -1.64554,-3.64691 -1.6e-4,-0.0447 0.092,-0.0204 0.29366,0.0774 0.70166,0.34035 1.42347,0.4876 1.93878,0.3955 0.7999,-0.14296 1.42884,-0.60357 2.59094,-1.89735 0.78016,-0.86859 1.26202,-1.32094 1.65259,-1.55144 0.80814,-0.47687 1.7918,-0.50366 2.7729,-0.0755 0.3691,0.16106 0.37946,0.163 0.37946,0.071 0,-0.0571 0.23452,-0.14174 0.40857,-0.14756 0.039,-10e-4 6.7011,14.41429 6.7011,14.5002 0,0.0181 -0.0606,0.046 -0.13475,0.0621 -0.0741,0.0161 -0.17429,0.0424 -0.22262,0.0584 -0.0579,0.0192 -0.10811,-0.01 -0.14718,-0.0845 z m -10.30147,-3.81133 c 0.15352,-0.0504 0.44293,-0.19277 0.64316,-0.31631 l 0.36403,-0.22459 -0.0937,-0.20403 c -0.0515,-0.11221 -0.19699,-0.42685 -0.32323,-0.69921 l -0.22954,-0.49516 -0.33329,0.21691 c -0.33018,0.21488 -0.82333,0.4104 -1.03516,0.4104 -0.0604,0 -0.10986,0.0252 -0.10986,0.056 0,0.0308 0.13025,0.34664 0.28945,0.70182 0.3264,0.7282 0.3171,0.72201 0.82814,0.55412 z m -1.1736,-1.28821 c 0,-0.0135 -0.13855,-0.32317 -0.30789,-0.68801 -0.16934,-0.36485 -0.30789,-0.67891 -0.30789,-0.69793 0,-0.019 0.14485,-0.0707 0.32188,-0.11491 0.34091,-0.0851 0.58476,-0.19646 0.91774,-0.41929 0.11219,-0.0751 0.21652,-0.1365 0.23185,-0.1365 0.0153,0 0.16034,0.2886 0.32225,0.64132 0.16192,0.35273 0.31804,0.66311 0.34696,0.68975 0.0592,0.0545 0.35617,-0.21492 0.8937,-0.81075 0.18613,-0.20632 0.34376,-0.37511 0.35028,-0.37511 0.006,0 0.14603,0.29404 0.31003,0.65343 0.16399,0.35939 0.31778,0.65344 0.34175,0.65344 0.024,0 0.16365,-0.13613 0.31041,-0.30251 0.14677,-0.16639 0.4138,-0.436 0.5934,-0.59918 l 0.32657,-0.29663 -0.27358,-0.59882 c -0.15047,-0.32934 -0.29096,-0.64071 -0.31221,-0.6919 -0.0346,-0.0835 -0.0651,-0.0709 -0.29403,0.12101 -0.14047,0.11776 -0.41877,0.39381 -0.61845,0.61344 -0.19969,0.21963 -0.37163,0.39932 -0.38212,0.39932 -0.0105,0 -0.16241,-0.31697 -0.33761,-0.70437 -0.17522,-0.38741 -0.32515,-0.69778 -0.3332,-0.68975 -0.008,0.008 -0.21587,0.23246 -0.46182,0.49867 -0.24594,0.26621 -0.52175,0.5443 -0.61283,0.61794 l -0.16565,0.13394 -0.29646,-0.66637 c -0.16305,-0.36651 -0.31682,-0.68546 -0.34171,-0.70883 -0.025,-0.0234 -0.15467,0.0351 -0.28955,0.13065 -0.2713,0.19221 -0.75843,0.40312 -1.03746,0.44917 -0.10006,0.0165 -0.18194,0.0447 -0.18194,0.0627 0,0.018 0.13856,0.33115 0.3079,0.69599 0.16934,0.36485 0.30789,0.67446 0.30789,0.68801 0,0.0519 -0.55049,0.0215 -0.85591,-0.0473 -0.17579,-0.0396 -0.49597,-0.14877 -0.71153,-0.24262 -0.21554,-0.0939 -0.39189,-0.1639 -0.39189,-0.15566 0,0.008 0.14523,0.32977 0.32275,0.71455 l 0.32275,0.69957 0.41898,0.18101 c 0.23044,0.0995 0.55755,0.21247 0.72688,0.25092 0.29948,0.068 0.83969,0.10122 0.83969,0.0516 z m 7.8344,-2.66776 c -0.15803,-0.34271 -0.31498,-0.65205 -0.34876,-0.68739 -0.0943,-0.0986 -0.53034,-0.27654 -0.95605,-0.39003 -0.43349,-0.11558 -1.01756,-0.14071 -0.97164,-0.0418 0.0154,0.0333 0.16104,0.34911 0.32354,0.70182 l 0.29544,0.64132 h 0.34832 c 0.37596,0 0.9051,0.1256 1.31178,0.31136 0.13855,0.0633 0.25929,0.10894 0.26831,0.10146 0.009,-0.007 -0.11291,-0.29402 -0.27094,-0.63671 z m -9.20346,-0.22401 c 0.0148,-0.0334 -0.10951,-0.35466 -0.27629,-0.71394 -0.16679,-0.35927 -0.29157,-0.66954 -0.27731,-0.68949 0.0143,-0.02 0.0613,-0.0363 0.10449,-0.0363 0.18378,0 0.72048,-0.21541 1.03414,-0.41505 0.33421,-0.21273 0.33901,-0.21404 0.38717,-0.10588 0.20662,0.46406 0.58731,1.27568 0.60761,1.29536 0.0319,0.031 0.4305,-0.35408 0.86379,-0.83432 0.18583,-0.20598 0.3561,-0.36479 0.37836,-0.35289 0.0223,0.0119 0.17366,0.31747 0.33643,0.67906 0.16277,0.36158 0.31422,0.65109 0.33655,0.64331 0.0223,-0.008 0.24315,-0.18078 0.49072,-0.49813 0.24757,-0.31736 0.5151,-0.53622 0.59447,-0.6 l 0.14432,-0.11595 0.0521,0.11595 c 0.0287,0.0638 0.16907,0.37645 0.31201,0.69481 0.14293,0.31838 0.26892,0.5867 0.27997,0.59621 0.0111,0.01 0.14224,-0.0636 0.29151,-0.16266 0.28605,-0.18976 0.79612,-0.4069 0.95875,-0.40815 0.26958,-0.002 0.26447,-0.0602 -0.0687,-0.78088 -0.17664,-0.38207 -0.32629,-0.69931 -0.33256,-0.70499 -0.006,-0.006 -0.13618,0.0182 -0.28869,0.0531 -0.34348,0.0786 -0.65881,0.21644 -0.94275,0.4122 -0.11969,0.0825 -0.23305,0.14985 -0.25191,0.14963 -0.0189,-1.9e-4 -0.17038,-0.2997 -0.33671,-0.66555 -0.16633,-0.36583 -0.31171,-0.67467 -0.32305,-0.68633 -0.0375,-0.0384 -0.52656,0.40196 -0.87013,0.78349 -0.18577,0.20632 -0.3557,0.37512 -0.37761,0.37512 -0.0219,0 -0.17458,-0.29525 -0.33924,-0.65609 -0.16467,-0.36086 -0.31442,-0.66413 -0.33278,-0.67395 -0.0184,-0.01 -0.21356,0.18198 -0.4338,0.4262 -0.39967,0.4432 -0.78037,0.79489 -0.81771,0.75536 -0.0108,-0.0115 -0.15387,-0.31494 -0.31783,-0.6743 -0.16396,-0.35939 -0.30468,-0.66086 -0.31271,-0.66991 -0.008,-0.009 -0.14878,0.0699 -0.31278,0.17552 -0.38431,0.24744 -0.5101,0.30299 -0.89442,0.39505 l -0.31636,0.0758 0.30236,0.65134 c 0.1663,0.35825 0.30236,0.68192 0.30236,0.71926 0,0.0549 -0.071,0.0613 -0.36995,0.0336 -0.4142,-0.0384 -0.80594,-0.14394 -1.24075,-0.33446 -0.16095,-0.0705 -0.29263,-0.10969 -0.29263,-0.087 0,0.13754 0.58398,1.30774 0.69563,1.39386 0.36771,0.28366 1.77528,0.61923 1.85393,0.44199 z m 7.87787,-2.65481 -0.32303,-0.69681 -0.34692,-0.15863 c -0.57161,-0.26137 -1.58442,-0.44505 -1.58442,-0.28734 0,0.0342 0.13605,0.35551 0.30233,0.71394 l 0.30233,0.6517 0.36607,0.032 c 0.45481,0.0398 0.86854,0.14659 1.26846,0.3275 0.16934,0.0766 0.31471,0.13368 0.32303,0.12686 0.008,-0.007 -0.13023,-0.32597 -0.30789,-0.70923 z m -3.0996,-0.95922 c 0.11081,-0.0481 0.30226,-0.11389 0.42541,-0.14614 0.12316,-0.0322 0.25381,-0.0667 0.29034,-0.0765 0.044,-0.0118 -0.0377,-0.24291 -0.24263,-0.68607 -0.16998,-0.36752 -0.33131,-0.68821 -0.35852,-0.71266 -0.11479,-0.10309 -0.8064,0.15283 -1.32948,0.49195 l -0.16766,0.1087 -0.30701,-0.66341 c -0.16885,-0.36489 -0.33379,-0.67113 -0.36653,-0.6806 -0.0558,-0.0161 -0.94909,0.87852 -1.12583,1.12747 -0.0743,0.10465 -0.057,0.16524 0.22028,0.77296 0.1655,0.36268 0.3154,0.66714 0.33312,0.6766 0.0177,0.009 0.21992,-0.18797 0.44934,-0.43875 0.4227,-0.46202 0.76723,-0.78026 0.80349,-0.74216 0.0164,0.0173 0.42543,0.89426 0.6025,1.29189 0.0487,0.10926 0.0489,0.1092 0.31023,-0.0632 0.14384,-0.0949 0.35219,-0.21199 0.46301,-0.26012 z m 2.07681,-1.23727 c 0,-0.0129 -0.12714,-0.30147 -0.28253,-0.64131 -0.32028,-0.70049 -0.38303,-0.76283 -0.98765,-0.98116 -0.3794,-0.13702 -1.21267,-0.28925 -1.27731,-0.23336 -0.0163,0.0141 0.11479,0.34467 0.2913,0.73465 l 0.32092,0.70903 0.33787,5.8e-4 c 0.3529,7.7e-4 1.11826,0.1975 1.37673,0.35406 0.13198,0.0799 0.22067,0.10304 0.22067,0.0575 z"
       inkscape:connector-curvature="0"
       style="stroke-width:0.0511417" />
    <path
       id="path978-4"
       d="m 233.68135,117.0135 c -0.0326,-0.0625 -0.76027,-1.63832 -1.617,-3.50183 l -1.55767,-3.38813 -0.34436,-0.17497 c -0.62147,-0.31578 -1.35357,-0.46207 -1.88631,-0.37693 -0.80216,0.12822 -1.48582,0.63268 -2.683,1.97975 -0.87442,0.98391 -1.35116,1.39023 -1.91223,1.62983 -0.42818,0.18286 -0.44207,0.18522 -1.08017,0.18355 -0.71301,-0.002 -0.98437,-0.0666 -1.5632,-0.37276 l -0.29861,-0.15798 -1.64527,-3.58176 c -0.90491,-1.96997 -1.64539,-3.61106 -1.64554,-3.64691 -1.6e-4,-0.0447 0.092,-0.0204 0.29366,0.0774 0.70166,0.34035 1.42347,0.4876 1.93878,0.3955 0.7999,-0.14296 1.42884,-0.60357 2.59094,-1.89735 0.78016,-0.86859 1.26202,-1.32094 1.65259,-1.55144 0.80814,-0.47687 1.7918,-0.50366 2.7729,-0.0755 0.3691,0.16106 0.37946,0.163 0.37946,0.071 0,-0.0571 0.23452,-0.14174 0.40857,-0.14756 0.039,-0.001 6.7011,14.41429 6.7011,14.5002 0,0.0181 -0.0606,0.046 -0.13475,0.0621 -0.0741,0.0161 -0.17429,0.0424 -0.22262,0.0584 -0.0579,0.0192 -0.10811,-0.01 -0.14718,-0.0845 z m -10.30147,-3.81133 c 0.15352,-0.0504 0.44293,-0.19277 0.64316,-0.31631 l 0.36403,-0.22459 -0.0937,-0.20403 c -0.0515,-0.11221 -0.19699,-0.42685 -0.32323,-0.69921 l -0.22954,-0.49516 -0.33329,0.21691 c -0.33018,0.21488 -0.82333,0.4104 -1.03516,0.4104 -0.0604,0 -0.10986,0.0252 -0.10986,0.056 0,0.0308 0.13025,0.34664 0.28945,0.70182 0.3264,0.7282 0.3171,0.72201 0.82814,0.55412 z m -1.1736,-1.28821 c 0,-0.0135 -0.13855,-0.32317 -0.30789,-0.68801 -0.16934,-0.36485 -0.30789,-0.67891 -0.30789,-0.69793 0,-0.019 0.14485,-0.0707 0.32188,-0.11491 0.34091,-0.0851 0.58476,-0.19646 0.91774,-0.41929 0.11219,-0.0751 0.21652,-0.1365 0.23185,-0.1365 0.0153,0 0.16034,0.2886 0.32225,0.64132 0.16192,0.35273 0.31804,0.66311 0.34696,0.68975 0.0592,0.0545 0.35617,-0.21492 0.8937,-0.81075 0.18613,-0.20632 0.34376,-0.37511 0.35028,-0.37511 0.006,0 0.14603,0.29404 0.31003,0.65343 0.16399,0.35939 0.31778,0.65344 0.34175,0.65344 0.024,0 0.16365,-0.13613 0.31041,-0.30251 0.14677,-0.16639 0.4138,-0.436 0.5934,-0.59918 l 0.32657,-0.29663 -0.27358,-0.59882 c -0.15047,-0.32934 -0.29096,-0.64071 -0.31221,-0.6919 -0.0346,-0.0835 -0.0651,-0.0709 -0.29403,0.12101 -0.14047,0.11776 -0.41877,0.39381 -0.61845,0.61344 -0.19969,0.21963 -0.37163,0.39932 -0.38212,0.39932 -0.0105,0 -0.16241,-0.31697 -0.33761,-0.70437 -0.17522,-0.38741 -0.32515,-0.69778 -0.3332,-0.68975 -0.008,0.008 -0.21587,0.23246 -0.46182,0.49867 -0.24594,0.26621 -0.52175,0.5443 -0.61283,0.61794 l -0.16565,0.13394 -0.29646,-0.66637 c -0.16305,-0.36651 -0.31682,-0.68546 -0.34171,-0.70883 -0.025,-0.0234 -0.15467,0.0351 -0.28955,0.13065 -0.2713,0.19221 -0.75843,0.40312 -1.03746,0.44917 -0.10006,0.0165 -0.18194,0.0447 -0.18194,0.0627 0,0.018 0.13856,0.33115 0.3079,0.69599 0.16934,0.36485 0.30789,0.67446 0.30789,0.68801 0,0.0519 -0.55049,0.0215 -0.85591,-0.0473 -0.17579,-0.0396 -0.49597,-0.14877 -0.71153,-0.24262 -0.21554,-0.0939 -0.39189,-0.1639 -0.39189,-0.15566 0,0.008 0.14523,0.32977 0.32275,0.71455 l 0.32275,0.69957 0.41898,0.18101 c 0.23044,0.0995 0.55755,0.21247 0.72688,0.25092 0.29948,0.068 0.83969,0.10122 0.83969,0.0516 z m 7.8344,-2.66776 c -0.15803,-0.34271 -0.31498,-0.65205 -0.34876,-0.68739 -0.0943,-0.0986 -0.53034,-0.27654 -0.95605,-0.39003 -0.43349,-0.11558 -1.01756,-0.14071 -0.97164,-0.0418 0.0154,0.0333 0.16104,0.34911 0.32354,0.70182 l 0.29544,0.64132 h 0.34832 c 0.37596,0 0.9051,0.1256 1.31178,0.31136 0.13855,0.0633 0.25929,0.10894 0.26831,0.10146 0.009,-0.007 -0.11291,-0.29402 -0.27094,-0.63671 z m -9.20346,-0.22401 c 0.0148,-0.0334 -0.10951,-0.35466 -0.27629,-0.71394 -0.16679,-0.35927 -0.29157,-0.66954 -0.27731,-0.68949 0.0143,-0.02 0.0613,-0.0363 0.10449,-0.0363 0.18378,0 0.72048,-0.21541 1.03414,-0.41505 0.33421,-0.21273 0.33901,-0.21404 0.38717,-0.10588 0.20662,0.46406 0.58731,1.27568 0.60761,1.29536 0.0319,0.031 0.4305,-0.35408 0.86379,-0.83432 0.18583,-0.20598 0.3561,-0.36479 0.37836,-0.35289 0.0223,0.0119 0.17366,0.31747 0.33643,0.67906 0.16277,0.36158 0.31422,0.65109 0.33655,0.64331 0.0223,-0.008 0.24315,-0.18078 0.49072,-0.49813 0.24757,-0.31736 0.5151,-0.53622 0.59447,-0.6 l 0.14432,-0.11595 0.0521,0.11595 c 0.0287,0.0638 0.16907,0.37645 0.31201,0.69481 0.14293,0.31838 0.26892,0.5867 0.27997,0.59621 0.0111,0.01 0.14224,-0.0636 0.29151,-0.16266 0.28605,-0.18976 0.79612,-0.4069 0.95875,-0.40815 0.26958,-0.002 0.26447,-0.0602 -0.0687,-0.78088 -0.17664,-0.38207 -0.32629,-0.69931 -0.33256,-0.70499 -0.006,-0.006 -0.13618,0.0182 -0.28869,0.0531 -0.34348,0.0786 -0.65881,0.21644 -0.94275,0.4122 -0.11969,0.0825 -0.23305,0.14985 -0.25191,0.14963 -0.0189,-1.9e-4 -0.17038,-0.2997 -0.33671,-0.66555 -0.16633,-0.36583 -0.31171,-0.67467 -0.32305,-0.68633 -0.0375,-0.0384 -0.52656,0.40196 -0.87013,0.78349 -0.18577,0.20632 -0.3557,0.37512 -0.37761,0.37512 -0.0219,0 -0.17458,-0.29525 -0.33924,-0.65609 -0.16467,-0.36086 -0.31442,-0.66413 -0.33278,-0.67395 -0.0184,-0.01 -0.21356,0.18198 -0.4338,0.4262 -0.39967,0.4432 -0.78037,0.79489 -0.81771,0.75536 -0.0108,-0.0115 -0.15387,-0.31494 -0.31783,-0.6743 -0.16396,-0.35939 -0.30468,-0.66086 -0.31271,-0.66991 -0.008,-0.009 -0.14878,0.0699 -0.31278,0.17552 -0.38431,0.24744 -0.5101,0.30299 -0.89442,0.39505 l -0.31636,0.0758 0.30236,0.65134 c 0.1663,0.35825 0.30236,0.68192 0.30236,0.71926 0,0.0549 -0.071,0.0613 -0.36995,0.0336 -0.4142,-0.0384 -0.80594,-0.14394 -1.24075,-0.33446 -0.16095,-0.0705 -0.29263,-0.10969 -0.29263,-0.087 0,0.13754 0.58398,1.30774 0.69563,1.39386 0.36771,0.28366 1.77528,0.61923 1.85393,0.44199 z m 7.87787,-2.65481 -0.32303,-0.69681 -0.34692,-0.15863 c -0.57161,-0.26137 -1.58442,-0.44505 -1.58442,-0.28734 0,0.0342 0.13605,0.35551 0.30233,0.71394 l 0.30233,0.6517 0.36607,0.032 c 0.45481,0.0398 0.86854,0.14659 1.26846,0.3275 0.16934,0.0766 0.31471,0.13368 0.32303,0.12686 0.008,-0.007 -0.13023,-0.32597 -0.30789,-0.70923 z m -3.0996,-0.95922 c 0.11081,-0.0481 0.30226,-0.11389 0.42541,-0.14614 0.12316,-0.0322 0.25381,-0.0667 0.29034,-0.0765 0.044,-0.0118 -0.0377,-0.24291 -0.24263,-0.68607 -0.16998,-0.36752 -0.33131,-0.68821 -0.35852,-0.71266 -0.11479,-0.10309 -0.8064,0.15283 -1.32948,0.49195 l -0.16766,0.1087 -0.30701,-0.66341 c -0.16885,-0.36489 -0.33379,-0.67113 -0.36653,-0.6806 -0.0558,-0.0161 -0.94909,0.87852 -1.12583,1.12747 -0.0743,0.10465 -0.057,0.16524 0.22028,0.77296 0.1655,0.36268 0.3154,0.66714 0.33312,0.6766 0.0177,0.009 0.21992,-0.18797 0.44934,-0.43875 0.4227,-0.46202 0.76723,-0.78026 0.80349,-0.74216 0.0164,0.0173 0.42543,0.89426 0.6025,1.29189 0.0487,0.10926 0.0489,0.1092 0.31023,-0.0632 0.14384,-0.0949 0.35219,-0.21199 0.46301,-0.26012 z m 2.07681,-1.23727 c 0,-0.0129 -0.12714,-0.30147 -0.28253,-0.64131 -0.32028,-0.70049 -0.38303,-0.76283 -0.98765,-0.98116 -0.3794,-0.13702 -1.21267,-0.28925 -1.27731,-0.23336 -0.0163,0.0141 0.11479,0.34467 0.2913,0.73465 l 0.32092,0.70903 0.33787,5.8e-4 c 0.3529,7.7e-4 1.11826,0.1975 1.37673,0.35406 0.13198,0.0799 0.22067,0.10304 0.22067,0.0575 z"
       inkscape:connector-curvature="0"
       style="stroke-width:0.0511417" />
    <text
       xml:space="preserve"
       style="font-style:normal;font-weight:normal;font-size:8.99445px;line-height:1.25;font-family:sans-serif;letter-spacing:0px;word-spacing:0px;fill:#000000;fill-opacity:1;stroke:none;stroke-width:0.224861"
       x="151.86734"
       y="167.29901"
       id="text854-5-7-3-8-2"><tspan
         sodipodi:role="line"
         id="tspan852-5-1-0-2-6"
         x="151.86734"
         y="167.29901"
         style="font-style:normal;font-variant:normal;font-weight:normal;font-stretch:normal;font-size:8.99463px;font-family:'Open Sans';-inkscape-font-specification:'Open Sans, Normal';font-variant-ligatures:normal;font-variant-caps:normal;font-variant-numeric:normal;font-feature-settings:normal;text-align:start;writing-mode:lr-tb;text-anchor:start;fill:#000000;stroke-width:0.224861">3</tspan></text>
    <text
       xml:space="preserve"
       style="font-style:normal;font-weight:normal;font-size:8.99445px;line-height:1.25;font-family:sans-serif;letter-spacing:0px;word-spacing:0px;fill:#000000;fill-opacity:1;stroke:none;stroke-width:0.224861"
       x="167.70523"
       y="167.31439"
       id="text854-5-7-3-8-8"><tspan
         sodipodi:role="line"
         id="tspan852-5-1-0-2-1"
         x="167.70523"
         y="167.31439"
         style="font-style:normal;font-variant:normal;font-weight:normal;font-stretch:normal;font-size:8.99463px;font-family:'Open Sans';-inkscape-font-specification:'Open Sans, Normal';font-variant-ligatures:normal;font-variant-caps:normal;font-variant-numeric:normal;font-feature-settings:normal;text-align:start;writing-mode:lr-tb;text-anchor:start;fill:#000000;stroke-width:0.224861">4</tspan></text>
    <text
       xml:space="preserve"
       style="font-style:normal;font-weight:normal;font-size:8.99445px;line-height:1.25;font-family:sans-serif;letter-spacing:0px;word-spacing:0px;fill:#000000;fill-opacity:1;stroke:none;stroke-width:0.224861"
       x="199.47542"
       y="167.2529"
       id="text854-5-7-3-8-7"><tspan
         sodipodi:role="line"
         id="tspan852-5-1-0-2-0"
         x="199.47542"
         y="167.2529"
         style="font-style:normal;font-variant:normal;font-weight:normal;font-stretch:normal;font-size:8.99463px;font-family:'Open Sans';-inkscape-font-specification:'Open Sans, Normal';font-variant-ligatures:normal;font-variant-caps:normal;font-variant-numeric:normal;font-feature-settings:normal;text-align:start;writing-mode:lr-tb;text-anchor:start;fill:#000000;stroke-width:0.224861">5</tspan></text>
    <text
       xml:space="preserve"
       style="font-style:normal;font-weight:normal;font-size:8.99445px;line-height:1.25;font-family:sans-serif;letter-spacing:0px;word-spacing:0px;fill:#000000;fill-opacity:1;stroke:none;stroke-width:0.224861"
       x="215.37039"
       y="167.29901"
       id="text854-5-7-3-8-7-6"><tspan
         sodipodi:role="line"
         id="tspan852-5-1-0-2-0-6"
         x="215.37039"
         y="167.29901"
         style="font-style:normal;font-variant:normal;font-weight:normal;font-stretch:normal;font-size:8.99463px;font-family:'Open Sans';-inkscape-font-specification:'Open Sans, Normal';font-variant-ligatures:normal;font-variant-caps:normal;font-variant-numeric:normal;font-feature-settings:normal;text-align:start;writing-mode:lr-tb;text-anchor:start;fill:#000000;stroke-width:0.224861">6</tspan></text>
    <text
       xml:space="preserve"
       style="font-style:normal;font-weight:normal;font-size:8.99445px;line-height:1.25;font-family:sans-serif;letter-spacing:0px;word-spacing:0px;fill:#000000;fill-opacity:1;stroke:none;stroke-width:0.224861"
       x="183.63095"
       y="167.29681"
       id="text854-5-7-3-8-7-0"><tspan
         sodipodi:role="line"
         id="tspan852-5-1-0-2-0-1"
         x="183.63095"
         y="167.29681"
         style="font-style:normal;font-variant:normal;font-weight:normal;font-stretch:normal;font-size:8.99463px;font-family:'Open Sans';-inkscape-font-specification:'Open Sans, Normal';font-variant-ligatures:normal;font-variant-caps:normal;font-variant-numeric:normal;font-feature-settings:normal;text-align:start;writing-mode:lr-tb;text-anchor:start;fill:#000000;stroke-width:0.224861">7</tspan></text>
    <text
       xml:space="preserve"
       style="font-style:normal;font-weight:normal;font-size:8.99445px;line-height:1.25;font-family:sans-serif;letter-spacing:0px;word-spacing:0px;fill:#000000;fill-opacity:1;stroke:none;stroke-width:0.224861"
       x="231.31122"
       y="167.29901"
       id="text854-5-7-3-8-7-1"><tspan
         sodipodi:role="line"
         id="tspan852-5-1-0-2-0-8"
         x="231.31122"
         y="167.29901"
         style="font-style:normal;font-variant:normal;font-weight:normal;font-stretch:normal;font-size:8.99463px;font-family:'Open Sans';-inkscape-font-specification:'Open Sans, Normal';font-variant-ligatures:normal;font-variant-caps:normal;font-variant-numeric:normal;font-feature-settings:normal;text-align:start;writing-mode:lr-tb;text-anchor:start;fill:#000000;stroke-width:0.224861">8</tspan></text>
    <text
       xml:space="preserve"
       style="font-style:normal;font-weight:normal;font-size:8.99445px;line-height:1.25;font-family:sans-serif;letter-spacing:0px;word-spacing:0px;fill:#000000;fill-opacity:1;stroke:none;stroke-width:0.224861"
       x="247.21451"
       y="167.29901"
       id="text854-5-7-3-8-7-9"><tspan
         sodipodi:role="line"
         id="tspan852-5-1-0-2-0-7"
         x="247.21451"
         y="167.29901"
         style="font-style:normal;font-variant:normal;font-weight:normal;font-stretch:normal;font-size:8.99463px;font-family:'Open Sans';-inkscape-font-specification:'Open Sans, Normal';font-variant-ligatures:normal;font-variant-caps:normal;font-variant-numeric:normal;font-feature-settings:normal;text-align:start;writing-mode:lr-tb;text-anchor:start;fill:#000000;stroke-width:0.224861">9</tspan></text>
    <text
       xml:space="preserve"
       style="font-style:normal;font-weight:normal;font-size:8.99445px;line-height:1.25;font-family:sans-serif;letter-spacing:0px;word-spacing:0px;fill:#000000;fill-opacity:1;stroke:none;stroke-width:0.224861"
       x="260.34238"
       y="167.30341"
       id="text854-5-7-3-8-7-5"><tspan
         sodipodi:role="line"
         x="260.34238"
         y="167.30341"
         style="font-style:normal;font-variant:normal;font-weight:normal;font-stretch:normal;font-size:8.99463px;font-family:'Open Sans';-inkscape-font-specification:'Open Sans, Normal';font-variant-ligatures:normal;font-variant-caps:normal;font-variant-numeric:normal;font-feature-settings:normal;text-align:start;writing-mode:lr-tb;text-anchor:start;fill:#000000;stroke-width:0.224861"
         id="tspan1236">10</tspan></text>
    <text
       xml:space="preserve"
       style="font-style:normal;font-weight:normal;font-size:8.99445px;line-height:1.25;font-family:sans-serif;letter-spacing:0px;word-spacing:0px;fill:#000000;fill-opacity:1;stroke:none;stroke-width:0.224861"
       x="277.0191"
       y="167.29681"
       id="text854-5-7-3-8-7-8"><tspan
         sodipodi:role="line"
         id="tspan852-5-1-0-2-0-3"
         x="277.0191"
         y="167.29681"
         style="font-style:normal;font-variant:normal;font-weight:normal;font-stretch:normal;font-size:8.99463px;font-family:'Open Sans';-inkscape-font-specification:'Open Sans, Normal';font-variant-ligatures:normal;font-variant-caps:normal;font-variant-numeric:normal;font-feature-settings:normal;text-align:start;writing-mode:lr-tb;text-anchor:start;fill:#000000;stroke-width:0.224861">11</tspan></text>
    <path
       style="fill:none;stroke:#000000;stroke-width:0.240139px;stroke-linecap:butt;stroke-linejoin:miter;stroke-opacity:1"
       d="m 334.9828,157.98557 0.34307,31.56115"
       id="path1252"
       inkscape:connector-curvature="0" />
    <path
       style="fill:none;stroke:#000000;stroke-width:0.240139px;stroke-linecap:butt;stroke-linejoin:miter;stroke-opacity:1;marker-start:url(#Arrow2Lstart)"
       d="m 87.400594,158.29464 0.343067,31.56115"
       id="path1252-3"
       inkscape:connector-curvature="0" />
    <path
       style="fill:none;stroke:#000000;stroke-width:0.133668px;stroke-linecap:butt;stroke-linejoin:miter;stroke-opacity:1"
       d="m 87.744585,189.85682 80.110325,-0.31113"
       id="path1733"
       inkscape:connector-curvature="0" />
    <g
       id="g2327"
       transform="translate(10.226197,-86.169378)">
      <text
         id="text854-5-7-7"
         y="272.46738"
         x="185.81277"
         style="font-style:normal;font-weight:normal;font-size:8.99445px;line-height:1.25;font-family:sans-serif;letter-spacing:0px;word-spacing:0px;fill:#000000;fill-opacity:1;stroke:none;stroke-width:0.224861"
         xml:space="preserve"><tspan
           id="tspan1248-6"
           style="font-style:normal;font-variant:normal;font-weight:normal;font-stretch:normal;font-size:8.99463px;font-family:'Open Sans';-inkscape-font-specification:'Open Sans, Normal';font-variant-ligatures:normal;font-variant-caps:normal;font-variant-numeric:normal;font-feature-settings:normal;text-align:start;writing-mode:lr-tb;text-anchor:start;fill:#000000;stroke-width:0.224861"
           y="272.46738"
           x="185.81277"
           sodipodi:role="line">Wiederholen,</tspan><tspan
           id="tspan1779"
           style="font-style:normal;font-variant:normal;font-weight:normal;font-stretch:normal;font-size:8.99463px;font-family:'Open Sans';-inkscape-font-specification:'Open Sans, Normal';font-variant-ligatures:normal;font-variant-caps:normal;font-variant-numeric:normal;font-feature-settings:normal;text-align:start;writing-mode:lr-tb;text-anchor:start;fill:#000000;stroke-width:0.224861"
           y="283.72214"
           x="185.81277"
           sodipodi:role="line">lebenslang</tspan></text>
      <path
         style="fill:#ff6600;fill-opacity:1;stroke-width:0.0317389"
         inkscape:connector-curvature="0"
         d="m 166.81572,280.01528 c -0.21261,0.38184 -0.38184,0.95638 -0.38184,1.3184 0,0.0841 0,0.19094 0.0208,0.33923 l -2.65736,-4.57008 c -0.085,-0.1483 -0.14845,-0.36104 -0.14845,-0.55272 0,-0.19191 0.0634,-0.42522 0.14845,-0.57377 l 1.27574,-2.23212 -1.42416,-0.80712 4.63452,-0.0858 2.25294,4.05972 -1.44496,-0.82892 -2.27556,3.93308 z m 2.04123,-12.88154 c 0.40356,-0.70222 1.06313,-1.08483 1.87025,-1.08483 0.87218,0 1.55259,0.4044 2.04118,1.23235 l 0.72292,1.21154 -2.50898,4.33743 -4.05972,-2.35986 1.93448,-3.3367 z m 0.29679,16.5588 c -1.21154,0 -2.21045,-0.99905 -2.21045,-2.21054 0,-0.34022 0.14925,-0.91471 0.36189,-1.27575 l 0.67952,-1.21154 h 5.03887 v 4.698 h -3.86961 z m 4.04004,-16.68703 c -0.31853,-0.55197 -0.74376,-0.93558 -1.25407,-1.14831 h 5.22899 c 0.46776,0 0.8288,0.19193 1.0423,0.55369 l 1.2966,2.21053 1.40257,-0.82967 -2.25396,4.03972 -4.61167,-0.065 1.42415,-0.80713 -2.27462,-3.95403 z m 8.05722,12.03189 c 0.63701,0 1.16902,-0.17008 1.61511,-0.50957 l -2.63654,4.59103 c -0.21262,0.36104 -0.59448,0.57377 -1.0407,0.57377 h -2.48817 v 1.63678 l -2.38054,-3.97466 2.38054,-3.97594 v 1.65863 h 4.5504 z m 2.03949,-3.82644 c 0.1918,0.34022 0.29853,0.70124 0.29853,1.08408 0,0.76544 -0.48947,1.5733 -1.169,1.95517 -0.31935,0.17111 -0.76633,0.27772 -1.21154,0.27772 h -1.40418 l -2.50738,-4.33743 4.06005,-2.3172 1.93358,3.33766 z"
         id="path1768" />
    </g>
    <path
       style="fill:#ff6600;fill-opacity:1;stroke:#000000;stroke-width:0.539006px;stroke-linecap:butt;stroke-linejoin:miter;stroke-opacity:1"
       d="m 115.39461,117.17092 h 11.2736 l 20.46461,20.4646 -20.07958,20.07958 h -11.27362 l 20.07959,-20.07958 z"
       id="path1488-7"
       inkscape:connector-curvature="0" />
    <text
       xml:space="preserve"
       style="font-style:normal;font-weight:normal;font-size:8.99445px;line-height:1.25;font-family:sans-serif;letter-spacing:0px;word-spacing:0px;fill:#000000;fill-opacity:1;stroke:none;stroke-width:0.224861"
       x="118.83836"
       y="167.34294"
       id="text854-5-7-3-8-4"><tspan
         sodipodi:role="line"
         id="tspan852-5-1-0-2-08"
         x="118.83836"
         y="167.34294"
         style="font-style:normal;font-variant:normal;font-weight:normal;font-stretch:normal;font-size:8.99463px;font-family:'Open Sans';-inkscape-font-specification:'Open Sans, Normal';font-variant-ligatures:normal;font-variant-caps:normal;font-variant-numeric:normal;font-feature-settings:normal;text-align:start;writing-mode:lr-tb;text-anchor:start;fill:#000000;stroke-width:0.224861">1</tspan></text>
    <text
       xml:space="preserve"
       style="font-style:normal;font-weight:normal;font-size:8.99445px;line-height:1.25;font-family:sans-serif;letter-spacing:0px;word-spacing:0px;fill:#000000;fill-opacity:1;stroke:none;stroke-width:0.224861"
       x="44.784706"
       y="83.620171"
       id="text854-5-7-0"><tspan
         sodipodi:role="line"
         x="44.784706"
         y="83.620171"
         style="font-style:normal;font-variant:normal;font-weight:bold;font-stretch:normal;font-size:8.99463px;font-family:'Open Sans';-inkscape-font-specification:'Open Sans, Bold';font-variant-ligatures:normal;font-variant-caps:normal;font-variant-numeric:normal;font-variant-east-asian:normal;text-align:start;writing-mode:lr-tb;text-anchor:start;fill:#000000;stroke-width:0.224861"
         id="tspan1248-5">lernOS Sprint</tspan></text>
    <path
       style="fill:none;stroke:#000000;stroke-width:0.133668px;stroke-linecap:butt;stroke-linejoin:miter;stroke-opacity:1"
       d="m 255.21555,189.85785 80.11032,-0.31113"
       id="path1733-4"
       inkscape:connector-curvature="0" />
  </g>
</svg>
