<?xml version="1.0" encoding="UTF-8" standalone="no"?>
<!-- Generator: Adobe Illustrator 14.0.0, SVG Export Plug-In . SVG Version: 6.00 Build 43363)  -->

<svg
   xmlns:dc="http://purl.org/dc/elements/1.1/"
   xmlns:cc="http://creativecommons.org/ns#"
   xmlns:rdf="http://www.w3.org/1999/02/22-rdf-syntax-ns#"
   xmlns:svg="http://www.w3.org/2000/svg"
   xmlns="http://www.w3.org/2000/svg"
   xmlns:xlink="http://www.w3.org/1999/xlink"
   xmlns:sodipodi="http://sodipodi.sourceforge.net/DTD/sodipodi-0.dtd"
   xmlns:inkscape="http://www.inkscape.org/namespaces/inkscape"
   version="1.1"
   id="Layer_1"
   x="0px"
   y="0px"
   width="1280"
   height="720"
   viewBox="0 0 1280 720"
   enable-background="new 0 0 604 850"
   xml:space="preserve"
   sodipodi:docname="Keep-calm-and-carry-on.svg"
   inkscape:version="0.92.3 (2405546, 2018-03-11)"
   inkscape:export-filename="C:\Users\SimonDückert\Downloads\reveal.js-3.8.0\images\lernOS-keep-calm.png"
   inkscape:export-xdpi="96"
   inkscape:export-ydpi="96"><metadata
   id="metadata1276"><rdf:RDF><cc:Work
       rdf:about=""><dc:format>image/svg+xml</dc:format><dc:type
         rdf:resource="http://purl.org/dc/dcmitype/StillImage" /><dc:title></dc:title></cc:Work></rdf:RDF></metadata><defs
   id="defs1274">
	
	
	
	
	
	
	
	
	
	
	
	
	
	
	
	
	
	
	
	
	
	
	
	
	
	
	
	
	
	
	
	
	
	
	
	
	
	
	
	
	
	
	
	
	
	
	
	
	
	
	
	
	
	
	
	
	
	
	
	
	
	
	
	
	
	
	
</defs><sodipodi:namedview
   pagecolor="#ffffff"
   bordercolor="#666666"
   borderopacity="1"
   objecttolerance="10"
   gridtolerance="10"
   guidetolerance="10"
   inkscape:pageopacity="0"
   inkscape:pageshadow="2"
   inkscape:window-width="1920"
   inkscape:window-height="1013"
   id="namedview1272"
   showgrid="false"
   inkscape:pagecheckerboard="true"
   inkscape:zoom="0.68215007"
   inkscape:cx="619.90105"
   inkscape:cy="522.49562"
   inkscape:window-x="-9"
   inkscape:window-y="-9"
   inkscape:window-maximized="1"
   inkscape:current-layer="Layer_1" />

<g
   id="g1469"
   transform="translate(341.27929,115.81029)"><path
     id="path1135"
     d="m 300.33008,-79.683594 c -2.26263,-0.01313 -4.53744,0.06133 -6.83594,0.236328 1.84,3.581 3.87958,7.157844 5.51758,10.839844 -2.715,-1.371 -5.23256,-3.040893 -7.85156,-4.71289 -0.354,4.102998 -0.3085,8.201437 -0.0625,12.398437 2.486,-1.328 4.87029,-2.752734 7.15429,-4.177734 0.121,1.9 0.14111,3.899828 0.16211,5.798828 -2.484,1.429 -5.47231,2.361515 -6.94531,4.978515 -2.852,4.33 -0.98055,10.80986 3.93945,12.75586 5.836,3.337 14.3826,-1.755391 13.8086,-8.650391 -0.147,-4.198 -3.67966,-6.86 -7.09766,-8.625 -0.02,-1.9 -0.0406,-3.699047 -0.0586,-5.498047 2.314,1.275 4.52745,2.65061 6.93945,3.72461 0.258,-3.803 0.31483,-7.702953 0.17383,-11.501954 -2.586,1.328002 -5.07277,2.554547 -7.75977,3.685547 1.757,-3.72 3.91964,-7.241937 5.68164,-10.960937 -2.253,-0.1765 -4.503,-0.277891 -6.76562,-0.291016 z m -2.08594,23.1875 c 0.021,1.8 0.039,3.600782 -0.041,5.300782 -1.60599,-0.583 -3.21331,-1.165657 -4.82031,-1.847657 1.587,-1.217 3.17233,-2.334125 4.86133,-3.453125 z m 3.9082,0.556641 c 1.311,1.187 2.62685,2.471812 3.83985,3.757812 -1.297,0.414 -2.59177,0.827797 -3.88477,1.341797 -0.019,-1.699 -0.0371,-3.398609 0.0449,-5.099609 z m -4.33984,9.177734 c 2.56292,-0.06027 5.06867,0.452266 6.9668,2.494141 -3.984,1.545 -8.58444,1.49339 -11.52344,-1.97461 1.46025,-0.241124 3.01889,-0.483367 4.55664,-0.519531 z"
     style="fill:#ffffff;stroke:#ffffff;stroke-width:0.0938"
     inkscape:connector-curvature="0" /><path
     d="m 280.252,-46.7 c 2.181,-1.824 6.299,-0.169 6.23,2.732 0.332,2.697 -2.75,4.631 -5.16,3.756 -3.204,-0.364 -3.955,-5.056 -1.07,-6.488 z"
     id="path1141"
     inkscape:connector-curvature="0"
     style="fill:#ffffff;stroke:#ffffff;stroke-width:0.0938" /><path
     d="m 312.246,-47.15 c 2.775,-2.33 7.52,1.319 5.652,4.54 -1.07,2.812 -5.869,3.064 -6.902,0.076 -1.217,-1.589 -0.139,-3.599 1.25,-4.616 z"
     id="path1145"
     inkscape:connector-curvature="0"
     style="fill:#ffffff;stroke:#ffffff;stroke-width:0.0938" /><path
     d="m 269.275,-44.58 c 2.48,-1.728 6.507,0.628 5.938,3.636 -0.472,2.405 -3.649,4.439 -5.767,2.863 -2.813,-1.069 -2.76,-5.27 -0.171,-6.499 z"
     id="path1147"
     inkscape:connector-curvature="0"
     style="fill:#ffffff;stroke:#ffffff;stroke-width:0.0938" /><path
     d="m 324.281,-44.18 c 3.383,-1.339 7.24,3.521 3.865,5.958 -1.578,2.018 -4.785,1.554 -6.008,-0.533 -1.621,-1.883 -0.052,-4.802 2.143,-5.425 z"
     id="path1149"
     inkscape:connector-curvature="0"
     style="fill:#ffffff;stroke:#ffffff;stroke-width:0.0938" /><path
     d="m 257.351,-37.449 c 0.359,-3.704 7.154,-4.277 7.298,-0.18 0.528,2.493 -2.062,3.522 -3.648,4.74 -1.514,-1.283 -4.025,-2.256 -3.65,-4.56 z"
     id="path1151"
     inkscape:connector-curvature="0"
     style="fill:#ffffff;stroke:#ffffff;stroke-width:0.0938" /><path
     d="m 334.426,-39.991 c 1.988,-1.021 5.303,0.143 5.229,2.544 0.738,3.29 -3.74,5.54 -6.062,3.265 -2.316,-1.274 -1.357,-4.985 0.833,-5.809 z"
     id="path1153"
     inkscape:connector-curvature="0"
     style="fill:#ffffff;stroke:#ffffff;stroke-width:0.0938" /><path
     d="m 240.54,-20.063 c 14.094,-9.758 30.526,-16.136 47.397,-18.82 2.572,6.573 5.045,13.246 6.222,20.233 -1.299,0.214 -2.596,0.328 -3.794,0.542 -1.162,-5.688 -2.825,-11.372 -5.083,-16.646 -19.157,3.909 -37.67,12.212 -52.225,25.472 -1.007,-0.59 -2.015,-1.278 -3.021,-1.867 3.062,-3.533 6.731,-6.273 10.504,-8.914 z"
     id="path1155"
     inkscape:connector-curvature="0"
     style="fill:#ffffff;stroke:#ffffff;stroke-width:0.0938" /><path
     d="m 297.542,-38.487 c 4.376,-2.148 7.556,5.115 2.872,6.666 -4.279,1.848 -7.154,-4.819 -2.872,-6.666 z"
     id="path1157"
     inkscape:connector-curvature="0"
     style="fill:#ffffff;stroke:#ffffff;stroke-width:0.0938" /><path
     d="m 310.345,-38.227 c 20.838,3.371 40.445,12.958 56.297,26.786 -0.795,0.908 -1.582,1.816 -2.471,2.827 -14.641,-12.841 -32.539,-21.646 -51.584,-25.538 -2.141,5.423 -3.977,10.943 -5.219,16.558 -1.201,-0.188 -2.504,-0.373 -3.705,-0.559 1.427,-6.915 3.85,-13.643 6.682,-20.074 z"
     id="path1159"
     inkscape:connector-curvature="0"
     style="fill:#ffffff;stroke:#ffffff;stroke-width:0.0938" /><path
     d="m 248.695,-33.455 c -0.022,-1.998 2.677,-2.229 4.065,-3.144 1.013,1.089 1.923,2.178 2.937,3.267 -1.086,1.213 -1.661,3.618 -3.663,3.44 -1.898,0.121 -4.018,-1.555 -3.339,-3.563 z"
     id="path1161"
     inkscape:connector-curvature="0"
     style="fill:#ffffff;stroke:#ffffff;stroke-width:0.0938" /><path
     d="m 343.687,-34.492 c 1.793,-0.322 4.191,-0.746 5.113,1.243 1.316,1.486 -0.053,4.302 -1.951,4.422 -1.994,0.622 -3.217,-1.265 -4.527,-2.251 0.391,-0.802 0.973,-2.51 1.365,-3.414 z"
     id="path1163"
     inkscape:connector-curvature="0"
     style="fill:#ffffff;stroke:#ffffff;stroke-width:0.0938" /><path
     d="m 239.059,-27.449 c 1.374,-2.517 3.864,-3.243 6.572,-2.673 0.119,1.699 0.039,3.501 -0.044,5.202 -2.694,0.629 -5.101,-0.045 -6.528,-2.529 z"
     id="path1165"
     inkscape:connector-curvature="0"
     style="fill:#ffffff;stroke:#ffffff;stroke-width:0.0938" /><path
     d="m 295.067,-27.061 c 1.372,-2.716 3.862,-3.342 6.669,-2.674 0.02,1.702 0.037,3.401 -0.043,5.203 -2.694,0.628 -5.198,0.056 -6.626,-2.529 z"
     id="path1167"
     inkscape:connector-curvature="0"
     style="fill:#ffffff;stroke:#ffffff;stroke-width:0.0938" /><path
     d="m 353.344,-29.398 c 4.279,-2.046 6.357,5.232 1.76,5.582 -3.587,1.038 -5.052,-4.645 -1.76,-5.582 z"
     id="path1169"
     inkscape:connector-curvature="0"
     style="fill:#ffffff;stroke:#ffffff;stroke-width:0.0938" /><path
     d="m 232.892,-24.28 c 1.901,-0.021 3.809,0.656 5.42,1.739 -0.788,1.108 -1.475,2.318 -2.364,3.326 -1.4,-0.084 -2.705,-0.569 -4.01,-0.856 0.285,-1.403 0.571,-2.805 0.954,-4.209 z"
     id="path1171"
     inkscape:connector-curvature="0"
     style="fill:#ffffff;stroke:#ffffff;stroke-width:0.0938" /><path
     id="path1173"
     d="m 255.59766,-24.029297 c -4.026,6.743 -4.63225,15.350672 -1.15625,22.513672 -4.522,-1.949 -10.13024,-2.3877031 -13.99024,1.15429688 -7.541,5.58300002 -5.29886,18.25887512 2.74414,22.17187512 -0.046,-4.099 -0.80847,-9.891406 3.76953,-11.9414064 4.571,-2.551 10.31488,1.4868904 10.17188,6.5878904 0.894,8.691 -8.85103,13.997297 -16.45703,13.279297 -9.01,-0.801 -15.40136,-9.030719 -17.19336,-17.511719 4.417,1.35 8.04644,4.113266 11.77344,6.572266 -1.076,-7.088 -3.15296,-14.0673125 -5.12696,-20.9453125 -2.771,2.731 -5.64022,5.5615625 -9.32422,7.1015625 1.948,-4.62 4.9043,-8.8529531 7.1543,-13.3769531 -4.892,0.754 -9.67533,2.2030312 -14.36133,3.4570312 0.629,2.692 1.65911,5.3812649 2.28711,8.0722657 0.734,2.894 -0.4359,5.8079858 -0.5039,8.7089842 0.241,3.796 4.75648,5.147844 5.39648,8.839844 1.041,3.79 1.98283,7.580531 2.92383,11.269531 1.659,5.284 -1.38847,10.315625 -1.23047,15.515625 3.436,3.46 6.87559,7.025422 10.80859,9.982422 2.897,-0.232 5.48183,-1.660625 8.17383,-2.390625 14.456,-4.157 29.43874,-5.822719 44.42774,-6.886719 26.073,-2.584 52.7167,1.425203 77.2207,10.658203 3.654,-4.34 7.40798,-8.480359 10.95898,-12.818359 -0.848,-4.293 -2.49184,-8.477047 -2.83984,-12.873047 1.156,-4.113 2.70905,-8.228143 4.16601,-12.24414 0.96502,-3.111001 4.24829,-4.847641 5.11329,-8.056641 0.375,-2.204 -0.45139,-4.4952658 -0.27539,-6.6972658 0.968,-3.112 2.43546,-6.0280632 3.60546,-9.0390624 -4.015,-1.2590001 -8.12923,-2.4121875 -12.24023,-3.3671876 1.449,4.2850001 2.8948,8.6686719 3.3418,13.2636719 -2.422,-2.372 -4.64852,-4.9484375 -6.97852,-7.52343748 -2.237,5.72399998 -4.57181,11.54940638 -6.00781,17.56640638 3.791,-0.943 7.37259,-2.580875 11.05859,-3.921875 -2.121,7.324 -6.94117,14.576719 -14.61719,16.761719 -6.37799,2.168 -14.30643,-0.343297 -17.77343,-6.404297 -2.341,-3.776 -1.59947,-9.186656 1.76953,-12.222657 1.979,-2.023992 6.07976,-1.866687 7.50976,0.820313 2.133,3.076 0.17394,6.796563 -0.28906,10.101563 3.781,-1.941001 7.85333,-4.086079 9.61133,-8.205079 2.442,-5.4259936 1.24983,-13.61353045 -5.07617,-15.6445309 -4.314,-1.751 -8.48836,0.6930313 -12.06836,2.8320313 3.817,-7.741 4.01606,-17.0456874 0.1289,-24.8046874 -6.639,5.473 -10.74265,14.3192967 -9.34765,22.90429675 -1.721,-1.97999995 -3.44769,-4.26220315 -6.05469,-5.03320315 -4.414,-0.951 -9.78689,1.3052656 -11.33789,5.82226565 -1.447,4.81600005 -0.38709,10.40640475 3.25391,14.06640675 1.371,-2.615003 1.82992,-6.4210786 4.91992,-7.4550786 3.385,-1.237 6.7229,1.826881 7.2539,4.9218746 1.27101,6.686 -4.5529,13.450438 -11.2539,13.523438 -5.998,0.265 -12.42945,-2.663719 -15.18945,-8.136719 -1.53,-2.583 -1.56275,-5.681031 -1.59375,-8.5820311 2.816,1.471 5.4352,3.4435001 8.1582,5.3125001 0.627,-6.7060016 0.75151,-13.51003094 0.47851,-20.2070314 -3.381,1.637 -6.3552,4.0708594 -9.5332,6.0058594 1.547,-4.717 3.49831,-9.3386346 4.94531,-14.056641 -5.503,-0.339 -11.10412,-0.376797 -16.70312,-0.216797 1.455,4.985008 3.6085,9.7620943 5.0625,14.74609425 -2.927,-2.26799995 -5.55291,-4.84098435 -8.37891,-7.20898435 -0.626,6.70499955 -0.95408,13.5110327 -0.58008,20.2070311 3.181,-1.735 6.15749,-3.7678593 9.64649,-5.0058592 -0.657,4.2080002 -2.00961,8.3211252 -4.97461,11.4531252 -5.043,5.356 -13.52911,6.750047 -20.16211,3.623047 -4.419,-1.752 -7.67283,-6.618735 -6.92383,-11.427735 0.257,-3.8029961 4.62224,-7.0516247 8.24024,-5.3906248 3.317,1.4640001 3.06236,5.6686408 4.19336,8.5566408 2.97,-2.833 6.03159,-6.367672 5.68359,-10.763672 0.636,-5.806 -5.42789,-11.5413437 -11.21289,-10.2773438 -2.393,0.526 -4.27611,2.1454063 -6.16211,3.5664063 0.612,-8.1080005 -2.8752,-16.0697345 -9.0332,-21.3027345 z M 298.6543,1.7285156 c 1.10231,0.090938 2.09689,1.6751094 1.05664,2.6621094 -1.385,1.415 -3.60905,-0.8607344 -2.12305,-2.1777344 0.32025,-0.3785 0.69897,-0.5146875 1.06641,-0.484375 z m -80.41797,5.5507813 c 1.826,2.28 2.35828,5.0758591 1.98828,7.8808591 -2.422,-1.974 -2.95728,-4.969859 -1.98828,-7.8808591 z m 158.61719,0.7695312 c 0.916,1.589 1.23607,3.3865939 1.45507,5.1835939 -1.09,0.713 -2.285,1.425719 -3.375,2.136719 0.17,-2.602 0.84393,-5.009313 1.91993,-7.3203129 z M 297.75781,27.013672 c 1.323,2.285 2.64861,4.568469 3.97461,6.855469 -1.273,2.514 -2.64658,4.929312 -4.01758,7.445312 -1.328,-2.386 -2.55529,-4.773203 -3.77929,-7.158203 1.273,-2.416 2.54526,-4.727578 3.82226,-7.142578 z m -18.27929,2.199219 c 1.505,0.383 3.01096,0.867172 4.41796,1.451171 -0.69,1.108001 -1.3765,2.214219 -2.0625,3.324219 -1.004,-0.39 -1.90911,-0.780922 -2.9121,-1.169922 0.187,-1.203 0.37264,-2.401468 0.55664,-3.605468 z m 32.00195,0.05078 c 1.203,-0.013 2.40217,0.07359 3.70117,0.05859 0.016,1.301 0.12853,2.60039 0.14453,3.90039 -1.303,0.013 -2.60044,0.129188 -3.89844,0.242188 -0.018,-1.4 -0.0293,-2.799172 0.0527,-4.201172 z m -47.89844,0.455078 c 4.84683,-0.05288 10.03288,2.758672 8.89063,8.169922 -2.422,7.029 -14.11047,8.255875 -17.98047,1.796875 -1.741,-3.78 1.21951,-7.513219 4.60351,-8.949219 1.293,-0.66425 2.87072,-0.999953 4.48633,-1.017578 z m 66.84961,0.632812 c 5.05485,0.009 10.63369,3.346624 9.96094,8.796876 -2.52,7.527 -15.12717,6.765656 -18.20117,0.09766 -1.439,-3.784 1.1172,-7.511516 4.9082,-8.353516 1.0275,-0.367312 2.16553,-0.543101 3.33203,-0.541016 z m -88.88476,5.177735 c 2.003,0.377 3.11828,1.664594 3.73828,3.558594 -1.094,0.413 -2.18921,0.923546 -3.28321,1.435547 -0.406,-0.496001 -1.41492,-1.383954 -1.91992,-1.876954 0.39,-0.807 1.07384,-2.313187 1.46485,-3.117187 z m 108.9082,0.111328 c 1.4,0.083 2.80056,0.0673 4.10156,0.154297 0.123,1.998 -0.66178,3.70539 -2.55078,4.52539 -0.506,-0.594999 -1.51978,-1.682687 -1.92578,-2.179687 0.094,-0.598 0.281,-1.801 0.375,-2.5 z m -66.97266,2.828125 c 0.41,0.897 0.81856,1.692844 1.22656,2.589844 -0.592,0.606 -1.2859,1.213312 -1.8789,1.820312 -0.905,-0.29 -1.9075,-0.680703 -2.8125,-0.970703 0.087,-1.101 0.17867,-2.101125 0.26367,-3.203125 1,-0.111 2.10217,-0.123328 3.20117,-0.236328 z m 28.00781,0.695312 c 0.803,0.392002 2.41175,1.273063 3.21875,1.664063 -0.785,1.309 -1.57432,2.519516 -2.36132,3.728516 -0.805,-0.593 -2.21883,-1.677532 -2.92383,-2.269532 0.688,-1.007 1.3794,-2.114046 2.0664,-3.123047 z M 368,39.646484 c 0.822,2.092 1.54714,4.283 2.36914,6.375 -1.479,1.815 -3.06067,3.633172 -4.63867,5.451172 -0.724,-2.092 -1.44749,-4.18539 -2.27149,-6.27539 1.479,-1.918 2.95702,-3.733782 4.54102,-5.550782 z m -140.4082,0.232422 c 1.318,1.486 2.93412,2.968813 3.95312,4.757813 0.022,1.899 -0.35811,3.804984 -0.53711,5.708984 -1.714,-1.383 -3.53039,-2.761828 -4.65039,-4.548828 0.279,-2.005 0.75538,-4.011969 1.23438,-5.917969 z m 121.25781,4.376953 c 0.902,0.391 1.80889,0.881485 2.71289,1.271485 0.01,0.7 0.0213,1.999609 0.0293,2.599609 -0.797,0.41 -1.59428,0.719906 -2.48828,1.128906 -0.506,-0.494 -1.5161,-1.383953 -2.1211,-1.876953 0.588,-1.107 1.17619,-2.115047 1.86719,-3.123047 z m -104.20703,0.04102 c 0.506,0.595 1.6219,1.880219 2.1289,2.574219 -1.288,1.013 -2.68039,1.832609 -4.27539,2.349609 -0.213,-0.999 -0.63079,-2.895578 -0.84179,-3.892578 0.997,-0.31 1.99128,-0.72125 2.98828,-1.03125 z"
     style="fill:#ffffff;stroke:#ffffff;stroke-width:0.0938"
     inkscape:connector-curvature="0" /><path
     d="m 361.613,-23.388 c 1.494,-0.315 2.9,0.47 4.307,0.854 -0.385,1.404 -0.867,2.91 -1.352,4.316 -1.004,-0.09 -2.904,-0.17 -3.807,-0.259 -0.115,-1.698 -0.841,-3.792 0.852,-4.911 z"
     id="path1175"
     inkscape:connector-curvature="0"
     style="fill:#ffffff;stroke:#ffffff;stroke-width:0.0938" /><path
     d="m 297.427,-21.585 c 1.096,-0.212 2.196,-0.324 3.196,-0.335 0.116,1.399 0.229,2.797 0.246,4.197 -1.4,0.114 -2.699,0.33 -4.094,0.545 -0.016,-1.5 -1.241,-3.687 0.652,-4.407 z"
     id="path1177"
     inkscape:connector-curvature="0"
     style="fill:#ffffff;stroke:#ffffff;stroke-width:0.0938" /><path
     d="m 224.992,-15.193 c 1.173,-2.314 3.162,-3.537 5.769,-2.864 0.016,1.501 -0.069,2.9 -0.151,4.401 -1.999,0.223 -4.005,-0.356 -5.618,-1.537 z"
     id="path1179"
     inkscape:connector-curvature="0"
     style="fill:#ffffff;stroke:#ffffff;stroke-width:0.0938" /><path
     d="m 367.279,-17.249 c 1.695,-0.219 3.297,-0.236 4.996,-0.154 0.012,0.899 0.033,2.9 0.041,3.901 -1.496,0.216 -2.994,0.332 -4.492,0.447 -0.217,-1.397 -0.434,-2.794 -0.545,-4.194 z"
     id="path1181"
     inkscape:connector-curvature="0"
     style="fill:#ffffff;stroke:#ffffff;stroke-width:0.0938" /><path
     d="m 247.967,55.66 c 13.467,-3.148 27.258,-3.998 40.949,-4.947 19.393,-0.712 39.1,-0.128 57.953,4.768 5.018,1.345 10.434,2.986 14.08,6.946 -3.557,4.238 -9.25,4.902 -14.238,5.956 -10.086,1.61 -20.377,2.223 -30.572,2.634 -20.497,0.423 -41.2,0.25 -61.534,-2.929 -6.414,-1.129 -13.325,-2.154 -18.571,-6.397 2.655,-4.031 7.643,-4.985 11.933,-6.031 z"
     id="path1215"
     inkscape:connector-curvature="0"
     style="fill:#ffffff;stroke:#ffffff;stroke-width:0.0938" /></g>
<text
   xml:space="preserve"
   style="font-style:normal;font-weight:normal;font-size:108.68939209px;line-height:1.25;font-family:sans-serif;letter-spacing:0px;word-spacing:0px;fill:#ffffff;fill-opacity:1;stroke:none;stroke-width:1"
   x="297.32101"
   y="326.84772"
   id="text1347"><tspan
     sodipodi:role="line"
     id="tspan1345"
     x="297.32101"
     y="326.84772"
     style="font-style:normal;font-variant:normal;font-weight:500;font-stretch:normal;font-size:108.68939209px;font-family:'Keep Calm';-inkscape-font-specification:'Keep Calm, Medium';font-variant-ligatures:normal;font-variant-caps:normal;font-variant-numeric:normal;font-feature-settings:normal;text-align:start;writing-mode:lr-tb;text-anchor:start;fill:#ffffff;stroke-width:1">KEEP CALM</tspan></text>
<text
   xml:space="preserve"
   style="font-style:normal;font-weight:normal;font-size:52.97292709px;line-height:1.25;font-family:sans-serif;letter-spacing:0px;word-spacing:0px;fill:#ffffff;fill-opacity:1;stroke:none;stroke-width:0.99999994"
   x="569.00006"
   y="395.09106"
   id="text1347-9"><tspan
     sodipodi:role="line"
     id="tspan1345-3"
     x="569.00006"
     y="395.09106"
     style="font-style:normal;font-variant:normal;font-weight:500;font-stretch:normal;font-size:52.97292709px;font-family:'Keep Calm';-inkscape-font-specification:'Keep Calm, Medium';font-variant-ligatures:normal;font-variant-caps:normal;font-variant-numeric:normal;font-feature-settings:normal;text-align:start;writing-mode:lr-tb;text-anchor:start;fill:#ffffff;stroke-width:0.99999994">AND</tspan></text>
<text
   xml:space="preserve"
   style="font-style:normal;font-weight:normal;font-size:108.68939209px;line-height:1.25;font-family:sans-serif;letter-spacing:0px;word-spacing:0px;fill:#ffffff;fill-opacity:1;stroke:none;stroke-width:1"
   x="327.1571"
   y="512.862"
   id="text1347-3"><tspan
     sodipodi:role="line"
     id="tspan1345-0"
     x="327.1571"
     y="512.862"
     style="font-style:normal;font-variant:normal;font-weight:500;font-stretch:normal;font-size:108.68939209px;font-family:'Keep Calm';-inkscape-font-specification:'Keep Calm, Medium';font-variant-ligatures:normal;font-variant-caps:normal;font-variant-numeric:normal;font-feature-settings:normal;text-align:start;writing-mode:lr-tb;text-anchor:start;fill:#ffffff;stroke-width:1">LEARN ON</tspan></text>
<g
   transform="matrix(2.398571,0,0,2.3985709,513.07572,-47.005485)"
   id="layer1"
   inkscape:label="Layer 1"
   style="stroke-width:1.57574046"><g
     style="fill:#ffffff;stroke-width:1.64587283"
     transform="matrix(0.95738894,0,0,0.95738894,-3.523277,267.39511)"
     id="g941"><text
       xml:space="preserve"
       style="font-style:normal;font-weight:normal;font-size:31.6992321px;line-height:1.25;font-family:sans-serif;letter-spacing:0px;word-spacing:0px;fill:#ffffff;fill-opacity:1;stroke:none;stroke-width:1.3043226"
       x="10.278968"
       y="28.991444"
       id="text817"><tspan
         sodipodi:role="line"
         id="tspan815"
         x="10.278968"
         y="28.991444"
         style="font-style:normal;font-variant:normal;font-weight:300;font-stretch:normal;font-size:31.6992321px;font-family:'Open Sans';-inkscape-font-specification:'Open Sans, Light';font-variant-ligatures:normal;font-variant-caps:normal;font-variant-numeric:normal;font-feature-settings:normal;text-align:start;writing-mode:lr-tb;text-anchor:start;fill:#ffffff;stroke-width:1.3043226">lernOS</tspan></text>
<rect
       style="opacity:1;fill:#ffffff;fill-opacity:1;stroke:#ffffff;stroke-width:0;stroke-linejoin:round;stroke-miterlimit:4;stroke-dasharray:none;stroke-opacity:1"
       id="rect834"
       width="4.8642378"
       height="4.8642378"
       x="4.5344229"
       y="4.9074588"
       rx="1.1521109"
       ry="1.1521109" /><rect
       style="opacity:1;fill:#ffffff;fill-opacity:1;stroke:#ffffff;stroke-width:0;stroke-linejoin:round;stroke-miterlimit:4;stroke-dasharray:none;stroke-opacity:1"
       id="rect834-1"
       width="4.8642378"
       height="4.8642378"
       x="4.5578423"
       y="14.672123"
       rx="1.1521109"
       ry="1.1521109" /><rect
       style="opacity:1;fill:#ffffff;fill-opacity:1;stroke:#ffffff;stroke-width:0;stroke-linejoin:round;stroke-miterlimit:4;stroke-dasharray:none;stroke-opacity:1"
       id="rect834-1-8"
       width="4.8642378"
       height="4.8642378"
       x="4.491025"
       y="24.436771"
       rx="1.1521109"
       ry="1.1521109" /><g
       id="g895"
       transform="matrix(0.07899893,0,0,0.07889048,108.38482,4.8829219)"
       style="fill:#ffffff;stroke-width:5.51614714"><path
         id="path879"
         d="M 31.957,0.311 C 23.275,0.311 15.635,3.524 9.731,9.514 3.653,15.678 0.354,23.666 0.354,32 c 0,8.422 3.212,16.236 9.29,22.313 6.078,6.078 13.978,9.377 22.313,9.377 8.334,0 16.409,-3.299 22.66,-9.463 C 60.521,48.41 63.646,40.683 63.646,32 63.646,23.405 60.521,15.592 54.53,9.601 48.453,3.523 40.639,0.311 31.957,0.311 Z m 0.086,5.73 c 7.12,0 13.458,2.691 18.406,7.641 4.862,4.861 7.466,11.286 7.466,18.318 0,7.119 -2.518,13.371 -7.379,18.146 -5.123,5.035 -11.721,7.727 -18.493,7.727 -6.858,0 -13.283,-2.691 -18.232,-7.641 C 8.862,45.283 6.084,38.772 6.084,32 6.084,25.142 8.862,18.631 13.811,13.594 18.673,8.646 24.924,6.041 32.043,6.041 Z"
         inkscape:connector-curvature="0"
         style="fill:#ffffff;stroke-width:5.51614714" /><path
         d="m 31.635,26.734 c -1.79,-3.264 -4.844,-4.563 -8.389,-4.563 -5.16,0 -9.267,3.65 -9.267,9.828 0,6.283 3.861,9.829 9.442,9.829 3.581,0 6.635,-1.966 8.319,-4.949 l -3.931,-2.001 c -0.878,2.105 -2.212,2.738 -3.896,2.738 -2.914,0 -4.248,-2.422 -4.248,-5.617 0,-3.193 1.124,-5.616 4.248,-5.616 0.842,0 2.527,0.456 3.51,2.563 z"
         id="c"
         inkscape:connector-curvature="0"
         style="fill:#ffffff;stroke-width:5.51614714" /><use
         id="use882"
         transform="translate(18.281)"
         xlink:href="#c"
         x="0"
         y="0"
         width="100%"
         height="100%"
         style="fill:#ffffff;stroke-width:5.51614714" /></g></g></g></svg>